<svg width="220" height="227" viewBox="0 0 220 227" fill="none" xmlns="http://www.w3.org/2000/svg">
<path d="M109.678 186.483C149.001 186.483 180.878 153.638 180.878 113.123C180.878 72.6068 149.001 39.7622 109.678 39.7622C70.3552 39.7622 38.4778 72.6068 38.4778 113.123C38.4778 153.638 70.3552 186.483 109.678 186.483Z" stroke="#672E2E" stroke-width="0.86" stroke-miterlimit="10"/>
<path d="M164.508 169.615C194.794 138.411 194.794 87.8191 164.508 56.6151C134.223 25.411 85.1213 25.411 54.8361 56.615C24.551 87.8191 24.551 138.411 54.8361 169.615C85.1213 200.819 134.223 200.819 164.508 169.615Z" stroke="#672E2E" stroke-width="4.37" stroke-miterlimit="10"/>
<path d="M38.4546 64.6918L39.4349 63.2812L33.4802 58.8879L40.7546 61.3822L41.8104 59.8631L32.5062 52.9987L31.5258 54.4093L37.7729 59.0183L30.2533 56.2404L29.1504 57.8274L38.4546 64.6918Z" fill="#672E2E"/>
<path d="M50.9824 49.1465L52.2467 47.8785L42.9182 40.8043L41.2559 42.4716L47.8686 52.2698L49.1094 51.0252L47.6138 48.8871L48.9483 47.5486L50.9824 49.1465ZM46.6162 47.4934L43.7833 43.4574L47.623 46.4837L46.6162 47.4934Z" fill="#672E2E"/>
<path d="M53.0183 34.1544L54.5814 33.0338L60.1488 41.278L61.5771 40.254L56.0098 32.0098L57.5729 30.8892L56.645 29.5151L52.0904 32.7803L53.0183 34.1544Z" fill="#672E2E"/>
<path d="M73.8148 33.2229C75.2663 32.5303 75.8052 31.0609 75.1391 29.5789L71.4277 21.322L69.8715 22.0646L73.5829 30.3215C73.8616 30.9415 73.6438 31.4679 73.135 31.7106C72.6263 31.9534 72.0958 31.7841 71.8171 31.1641L68.1058 22.9072L66.5196 23.664L70.231 31.921C70.8971 33.403 72.3633 33.9155 73.8148 33.2229Z" fill="#672E2E"/>
<path d="M91.0979 26.9059L88.4039 22.2553C89.0272 21.608 89.257 20.6884 88.9935 19.6434L88.6815 18.4055C88.2721 16.7817 86.9636 15.9992 85.3459 16.4321L82.6872 17.1436L85.5242 28.3976L87.2219 27.9432L86.0507 23.297L86.9316 23.0612L89.3361 27.3774L91.0979 26.9059ZM84.7902 18.297L85.6711 18.0613C86.3278 17.8855 86.8095 18.1685 86.9756 18.8277L87.3039 20.1299C87.4701 20.7891 87.1829 21.2778 86.5263 21.4535L85.6454 21.6893L84.7902 18.297Z" fill="#672E2E"/>
<path d="M104.355 25.0132L106.14 24.8723L103.363 13.4495L101.016 13.6348L99.9586 25.3601L101.711 25.2219L101.9 22.629L103.785 22.4803L104.355 25.0132ZM102.006 20.9243L102.357 16.0236L103.428 20.8121L102.006 20.9243Z" fill="#672E2E"/>
<path d="M115.602 25.042L120.471 25.5109L120.621 23.8597L117.501 23.5593L118.4 13.652L116.651 13.4835L115.602 25.042Z" fill="#672E2E"/>
<path d="M140.704 30.8723L142.318 31.5688L144.16 27.0379L146.443 28.0235L147.068 26.4876L144.784 25.502L146.065 22.3534L148.957 23.6018L149.581 22.0659L145.075 20.121L140.704 30.8723Z" fill="#672E2E"/>
<path d="M155.676 39.0218C157.087 39.9546 158.623 39.6194 159.509 38.198L162.857 32.822C163.742 31.4006 163.398 29.8217 161.987 28.889C160.577 27.9562 159.04 28.2914 158.155 29.7128L154.806 35.0888C153.921 36.5103 154.265 38.0891 155.676 39.0218ZM156.553 37.6145C156.013 37.2579 155.887 36.6774 156.272 36.0582L159.621 30.6821C160.007 30.0629 160.571 29.9397 161.111 30.2963C161.65 30.653 161.777 31.2334 161.391 31.8526L158.043 37.2287C157.657 37.8479 157.092 37.9711 156.553 37.6145Z" fill="#672E2E"/>
<path d="M167.634 48.7356C168.851 49.9039 170.417 49.8484 171.537 48.6091L175.775 43.922C176.895 42.6828 176.838 41.0696 175.621 39.9013C174.404 38.733 172.838 38.7885 171.717 40.0278L167.48 44.7149C166.36 45.9541 166.417 47.5673 167.634 48.7356ZM168.743 47.5086C168.278 47.0619 168.257 46.4688 168.745 45.929L172.982 41.2419C173.471 40.702 174.046 40.6816 174.512 41.1283C174.977 41.575 174.998 42.1681 174.51 42.7079L170.273 47.395C169.784 47.9349 169.209 47.9553 168.743 47.5086Z" fill="#672E2E"/>
<path d="M176.357 58.1587L177.978 60.383C178.964 61.7364 180.464 61.9378 181.789 60.9131L186.588 57.2001C187.913 56.1754 188.144 54.6349 187.157 53.2815L185.537 51.0572L176.357 58.1587ZM178.703 58.5645L185.26 53.492L185.797 54.229C186.198 54.7784 186.117 55.3435 185.58 55.7594L180.727 59.5131C180.19 59.929 179.641 59.8509 179.24 59.3015L178.703 58.5645Z" fill="#672E2E"/>
<path d="M23.2879 97.0594C25.6479 101.181 24.7179 106.188 24.7179 106.188C24.7179 106.188 19.9579 104.632 17.5979 100.552C15.2379 96.4721 16.1679 91.4235 16.1679 91.4235C16.1679 91.4235 20.9179 92.9793 23.2879 97.0594Z" fill="#672E2E"/>
<path d="M21.6878 110.815C24.8678 114.884 24.6078 120.531 24.6078 120.531C24.6078 120.531 19.1978 119.593 16.0178 115.523C12.8378 111.453 13.0978 105.807 13.0978 105.807C13.0978 105.807 18.5478 106.755 21.6878 110.815Z" fill="#672E2E"/>
<path d="M21.5978 124.735C26.0478 128.238 27.2079 134.368 27.2079 134.368C27.2079 134.368 21.2078 134.822 16.7178 131.277C12.2278 127.733 11.1078 121.643 11.1078 121.643C11.1078 121.643 17.1578 121.211 21.5978 124.735Z" fill="#672E2E"/>
<path d="M45.7678 180.373C51.1578 178.817 56.6078 181.548 56.6078 181.548C56.6078 181.548 53.3278 186.792 47.9378 188.348C42.5478 189.904 37.0978 187.184 37.0978 187.184C37.0978 187.184 40.3778 181.919 45.7678 180.373Z" fill="#672E2E"/>
<path d="M23.9879 139.077C29.5079 142.281 31.7379 148.958 31.7379 148.958C31.7379 148.958 25.0379 150.493 19.5479 147.237C14.0579 143.981 11.7979 137.356 11.7979 137.356C11.7979 137.356 18.4778 135.873 23.9879 139.077Z" fill="#672E2E"/>
<path d="M35.9378 168.163C42.2678 168.163 47.3878 172.882 47.3878 172.882C47.3878 172.882 42.2378 177.55 35.9078 177.519C29.5778 177.488 24.4678 172.8 24.4678 172.8C24.4678 172.8 29.6078 168.133 35.9378 168.163Z" fill="#672E2E"/>
<path d="M28.3979 153.852C35.1279 155.737 39.2679 162.249 39.2679 162.249C39.2679 162.249 32.4979 165.701 25.7679 163.815C19.0379 161.93 14.8879 155.418 14.8879 155.418C14.8879 155.418 21.6679 151.966 28.3979 153.852Z" fill="#672E2E"/>
<path d="M26.3379 87.4773C27.0864 89.6799 27.1215 92.0733 26.4379 94.2982C24.3534 93.3266 22.7064 91.5736 21.8315 89.3956C20.9566 87.2176 20.9195 84.778 21.7279 82.5729C23.7402 83.6491 25.3583 85.3705 26.3379 87.4773Z" fill="#672E2E"/>
<path d="M70.5479 195.334C74.7779 193.459 79.5479 195.066 79.5479 195.066C79.5479 195.066 77.4179 199.723 73.1879 201.598C68.9579 203.473 64.1879 201.856 64.1879 201.856C64.1879 201.856 66.2879 197.199 70.5479 195.334Z" fill="#672E2E"/>
<path d="M57.9978 188.894C62.8378 187.338 67.8478 189.646 67.8478 189.646C67.8478 189.646 65.0078 194.489 60.1678 196.045C55.3278 197.6 50.3278 195.293 50.3278 195.293C50.3278 195.293 53.1578 190.45 57.9978 188.894Z" fill="#672E2E"/>
<path d="M84.0678 200.053C85.9982 198.829 88.2603 198.28 90.5178 198.486C90.035 200.784 88.7234 202.806 86.8485 204.145C84.9735 205.484 82.675 206.039 80.4178 205.699C81.0181 203.463 82.2972 201.485 84.0678 200.053Z" fill="#672E2E"/>
<path d="M196.248 97.0594C193.888 101.181 194.818 106.188 194.818 106.188C194.818 106.188 199.568 104.632 201.928 100.552C204.288 96.4721 203.368 91.4235 203.368 91.4235C203.368 91.4235 198.608 92.9793 196.248 97.0594Z" fill="#672E2E"/>
<path d="M197.848 110.815C194.668 114.884 194.918 120.531 194.918 120.531C194.918 120.531 200.328 119.593 203.508 115.523C206.688 111.453 206.438 105.807 206.438 105.807C206.438 105.807 201.028 106.755 197.848 110.815Z" fill="#672E2E"/>
<path d="M197.928 124.735C193.488 128.238 192.318 134.368 192.318 134.368C192.318 134.368 198.318 134.822 202.808 131.277C207.298 127.733 208.418 121.643 208.418 121.643C208.418 121.643 202.378 121.211 197.928 124.735Z" fill="#672E2E"/>
<path d="M173.758 180.373C168.368 178.817 162.918 181.548 162.918 181.548C162.918 181.548 166.208 186.792 171.588 188.348C176.968 189.904 182.428 187.184 182.428 187.184C182.428 187.184 179.148 181.919 173.758 180.373Z" fill="#672E2E"/>
<path d="M195.548 139.077C190.038 142.281 187.798 148.958 187.798 148.958C187.798 148.958 194.498 150.442 200.018 147.237C205.538 144.033 207.758 137.356 207.758 137.356C207.758 137.356 201.048 135.873 195.548 139.077Z" fill="#672E2E"/>
<path d="M183.548 168.163C177.218 168.163 172.108 172.882 172.108 172.882C172.108 172.882 177.248 177.55 183.578 177.519C189.908 177.488 195.028 172.8 195.028 172.8C195.028 172.8 189.918 168.133 183.548 168.163Z" fill="#672E2E"/>
<path d="M191.138 153.852C184.408 155.737 180.268 162.249 180.268 162.249C180.268 162.249 187.038 165.701 193.768 163.815C200.498 161.93 204.638 155.418 204.638 155.418C204.638 155.418 197.868 151.966 191.138 153.852Z" fill="#672E2E"/>
<path d="M193.198 87.4773C192.449 89.6799 192.414 92.0733 193.098 94.2982C195.18 93.3248 196.825 91.571 197.698 89.3932C198.571 87.2153 198.607 84.7768 197.798 82.5729C195.787 83.6479 194.172 85.3699 193.198 87.4773Z" fill="#672E2E"/>
<path d="M149.008 195.334C144.768 193.459 140.008 195.066 140.008 195.066C140.008 195.066 142.128 199.723 146.368 201.598C150.608 203.473 155.368 201.856 155.368 201.856C155.368 201.856 153.238 197.199 149.008 195.334Z" fill="#672E2E"/>
<path d="M161.548 188.894C156.708 187.338 151.708 189.646 151.708 189.646C151.708 189.646 154.538 194.489 159.378 196.045C164.218 197.6 169.228 195.293 169.228 195.293C169.228 195.293 166.368 190.45 161.548 188.894Z" fill="#672E2E"/>
<path d="M135.458 200.053C133.531 198.829 131.272 198.28 129.018 198.486C129.501 200.782 130.811 202.803 132.684 204.141C134.556 205.48 136.852 206.037 139.108 205.699C138.512 203.461 137.232 201.481 135.458 200.053Z" fill="#672E2E"/>
<path d="M122.548 199.146C116.401 200.192 110.614 202.829 105.728 206.812C101.212 210.624 97.474 215.32 94.7279 220.628C94.0479 221.896 95.9379 223.039 96.6179 221.762C99.2149 216.731 102.737 212.269 106.988 208.625C111.665 204.798 117.22 202.278 123.118 201.31C124.498 201.073 123.918 198.899 122.538 199.146H122.548Z" fill="#672E2E"/>
<path d="M95.3578 201.31C101.255 202.28 106.81 204.8 111.488 208.625C115.738 212.27 119.26 216.732 121.858 221.762C122.538 223.039 124.418 221.906 123.738 220.628C120.997 215.316 117.258 210.62 112.738 206.812C107.852 202.829 102.064 200.192 95.9178 199.146C94.5378 198.899 93.9178 201.073 95.3378 201.31H95.3578Z" fill="#672E2E"/>
<path d="M109.678 182.186C146.697 182.186 176.708 151.265 176.708 113.123C176.708 74.9796 146.697 44.0587 109.678 44.0587C72.6582 44.0587 42.6478 74.9796 42.6478 113.123C42.6478 151.265 72.6582 182.186 109.678 182.186Z" fill="#672E2E"/>
<path d="M64.8706 126.276H71.8114V80.4403H66.9659C65.5908 82.9285 62.3823 85.0894 57.013 85.4823V90.3278H64.8706V126.276ZM89.6701 126.931C96.349 126.931 100.802 122.478 100.802 115.865V90.8516C100.802 84.2381 96.349 79.7855 89.6701 79.7855C82.9911 79.7855 78.5385 84.2381 78.5385 90.8516V115.865C78.5385 122.478 82.9911 126.931 89.6701 126.931ZM89.6701 120.383C87.1164 120.383 85.4794 118.746 85.4794 115.865V90.8516C85.4794 87.9705 87.1164 86.3335 89.6701 86.3335C92.2238 86.3335 93.8608 87.9705 93.8608 90.8516V115.865C93.8608 118.746 92.2238 120.383 89.6701 120.383ZM118.062 126.931C124.741 126.931 129.193 122.478 129.193 115.865V90.8516C129.193 84.2381 124.741 79.7855 118.062 79.7855C111.383 79.7855 106.93 84.2381 106.93 90.8516V115.865C106.93 122.478 111.383 126.931 118.062 126.931ZM118.062 120.383C115.508 120.383 113.871 118.746 113.871 115.865V90.8516C113.871 87.9705 115.508 86.3335 118.062 86.3335C120.616 86.3335 122.253 87.9705 122.253 90.8516V115.865C122.253 118.746 120.616 120.383 118.062 120.383ZM142.197 105.912C146.715 105.912 149.138 103.293 149.138 98.5783V87.1193C149.138 82.4047 146.715 79.7855 142.197 79.7855C137.679 79.7855 135.256 82.4047 135.256 87.1193V98.5783C135.256 103.293 137.679 105.912 142.197 105.912ZM140.757 126.276H145.34L164.395 80.4403H159.811L140.757 126.276ZM142.197 101.787C140.691 101.787 139.84 100.936 139.84 98.9057V86.7919C139.84 84.762 140.691 83.9107 142.197 83.9107C143.638 83.9107 144.555 84.762 144.555 86.7919V98.9057C144.555 100.936 143.638 101.787 142.197 101.787ZM162.954 126.931C167.473 126.931 169.895 124.312 169.895 119.597V108.138C169.895 103.424 167.473 100.805 162.954 100.805C158.436 100.805 156.014 103.424 156.014 108.138V119.597C156.014 124.312 158.436 126.931 162.954 126.931ZM162.954 122.806C161.448 122.806 160.597 121.955 160.597 119.925V107.811C160.597 105.781 161.448 104.93 162.954 104.93C164.395 104.93 165.312 105.781 165.312 107.811V119.925C165.312 121.955 164.395 122.806 162.954 122.806Z" fill="white"/>
<path d="M143.468 133.214H74.4678C72.5132 133.214 70.6386 134.014 69.2565 135.438C67.8743 136.862 67.0978 138.794 67.0978 140.808C67.0978 142.822 67.8743 144.753 69.2565 146.177C70.6386 147.601 72.5132 148.401 74.4678 148.401H143.468C145.422 148.401 147.297 147.601 148.679 146.177C150.061 144.753 150.838 142.822 150.838 140.808C150.838 138.794 150.061 136.862 148.679 135.438C147.297 134.014 145.422 133.214 143.468 133.214Z" fill="white"/>
<path d="M104.341 139.694V138.949C104.341 137.673 103.482 136.814 102.194 136.814C100.906 136.814 100.047 137.673 100.047 138.949V143.773C100.047 145.049 100.906 145.908 102.194 145.908C103.482 145.908 104.341 145.049 104.341 143.773V140.944H102.194V142.207H103.002V143.773C103.002 144.329 102.686 144.645 102.194 144.645C101.701 144.645 101.386 144.329 101.386 143.773V138.949C101.386 138.393 101.701 138.077 102.194 138.077C102.686 138.077 103.002 138.393 103.002 138.949V139.694H104.341ZM108.555 145.781H109.919L108.453 136.94H106.66L105.195 145.781H106.534L106.824 143.824H108.264L108.555 145.781ZM107.001 142.535L107.544 138.835L108.087 142.535H107.001ZM110.953 145.781H112.266V140.123L114.034 145.781H115.449V136.94H114.135V142.876L112.43 136.94H110.953V145.781ZM116.91 145.781H118.249V136.94H116.91V145.781ZM121.693 145.908C122.943 145.908 123.789 145.049 123.789 143.811V142.548H122.476V143.811C122.476 144.329 122.16 144.645 121.705 144.645C121.251 144.645 120.935 144.329 120.935 143.811V138.911C120.935 138.393 121.251 138.077 121.705 138.077C122.16 138.077 122.476 138.393 122.476 138.911V139.946H123.789V138.911C123.789 137.673 122.943 136.814 121.693 136.814C120.442 136.814 119.596 137.673 119.596 138.911V143.811C119.596 145.049 120.442 145.908 121.693 145.908Z" fill="#672E2E"/>
<path d="M116.548 64.9747C115.628 56.8041 109.488 49.2104 109.488 49.2104C109.488 49.2104 103.368 56.5259 102.428 64.9747C101.708 71.4246 105.098 74.0005 108.738 74.3096L109.488 57.2265L110.238 74.3096C113.908 74.0108 117.308 71.4349 116.548 64.9747Z" fill="white"/>
<path d="M127.488 71.2392C130.098 67.0251 130.038 61.0079 130.038 61.0079C130.038 61.0079 124.418 62.0383 120.828 65.6548C118.088 68.4058 118.728 70.9713 120.328 72.5478L127.048 64.7893L121.048 73.1454C122.858 74.4436 125.428 74.5672 127.488 71.2392Z" fill="white"/>
<path d="M90.8679 71.2392C88.2579 67.0251 88.3179 61.0079 88.3179 61.0079C88.3179 61.0079 93.9379 62.0383 97.5279 65.6548C100.268 68.4058 99.6279 70.9713 98.0279 72.5478L91.3079 64.7893L97.3079 73.1454C95.4879 74.4436 92.9279 74.5672 90.8679 71.2392Z" fill="white"/>
<path d="M116.548 162.497C115.668 170.667 109.548 178.312 109.548 178.312C109.548 178.312 103.428 170.997 102.488 162.548C101.768 156.098 105.158 153.522 108.798 153.213L109.548 170.296L110.298 153.213C113.908 153.471 117.308 156.047 116.548 162.497Z" fill="white"/>
<path d="M127.488 156.242C130.098 160.456 130.038 166.474 130.038 166.474C130.038 166.474 124.418 165.443 120.828 161.827C118.088 159.076 118.728 156.51 120.328 154.934L127.048 162.692L121.048 154.336C122.858 153.038 125.428 152.914 127.488 156.242Z" fill="white"/>
<path d="M90.8679 156.242C88.2579 160.456 88.3179 166.474 88.3179 166.474C88.3179 166.474 93.9379 165.443 97.5279 161.827C100.268 159.076 99.6279 156.51 98.0279 154.934L91.3079 162.692L97.3079 154.336C95.4879 153.038 92.9279 152.914 90.8679 156.242Z" fill="white"/>
</svg>
