<svg width="66" height="66" viewBox="0 0 66 66" fill="none" xmlns="http://www.w3.org/2000/svg">
<path d="M55.7605 0.701172C55.459 0.66056 55.1523 0.685205 54.8612 0.77344C54.5701 0.861675 54.3013 1.01144 54.0731 1.21259C53.8392 1.41642 53.6517 1.66794 53.5231 1.95025C53.3945 2.23256 53.3278 2.53912 53.3275 2.84934V29.9415C52.2233 28.8349 50.9047 27.9654 49.4526 27.3863C48.0005 26.8073 46.4454 26.5309 44.8826 26.5742C40.2518 26.5742 36.5748 29.7538 34.9855 31.3949C33.3963 29.7538 29.7192 26.5742 25.0884 26.5742C23.5257 26.5309 21.9706 26.8073 20.5185 27.3863C19.0663 27.9654 17.7478 28.8349 16.6435 29.9415V25.4952C18.6459 25.4929 20.5656 24.6965 21.9815 23.2806C23.3974 21.8647 24.1938 19.945 24.1961 17.9426V3.91641C24.1996 3.49292 24.1177 3.07307 23.9553 2.68193C23.7929 2.29079 23.5534 1.93638 23.251 1.63985C22.8578 1.23819 22.366 0.946995 21.8247 0.795493C21.2835 0.64399 20.7119 0.637509 20.1674 0.776698C19.4548 0.969719 18.8272 1.39532 18.3842 1.98587C17.9413 2.57643 17.7084 3.29808 17.7225 4.03618V12.5479C17.7228 12.6917 17.6937 12.8341 17.6369 12.9662C17.5801 13.0983 17.4969 13.2174 17.3923 13.3161C17.2811 13.4258 17.1474 13.5098 17.0003 13.5623C16.8533 13.6149 16.6965 13.6347 16.541 13.6204C16.2629 13.5738 16.0111 13.4277 15.8325 13.2094C15.6539 12.9912 15.5606 12.7155 15.57 12.4336V3.91641C15.5734 3.49292 15.4915 3.07307 15.3291 2.68193C15.1668 2.29079 14.9272 1.93638 14.6249 1.63985C14.2317 1.23819 13.7398 0.946995 13.1986 0.795493C12.6574 0.64399 12.0858 0.637509 11.5412 0.776698C10.8277 0.968705 10.1989 1.39387 9.75485 1.98452C9.31084 2.57517 9.07714 3.29737 9.09097 4.03618V12.5479C9.09131 12.6917 9.06219 12.8341 9.00541 12.9662C8.94862 13.0983 8.86538 13.2174 8.76081 13.3161C8.64962 13.4258 8.51583 13.5098 8.3688 13.5623C8.22176 13.6149 8.06502 13.6347 7.90953 13.6204C7.62981 13.5749 7.3763 13.4289 7.19654 13.2098C7.01678 12.9907 6.92311 12.7136 6.93309 12.4303V3.91641C6.93639 3.4931 6.8544 3.07346 6.69202 2.68251C6.52963 2.29157 6.29018 1.93733 5.98794 1.64093C5.59479 1.23927 5.10292 0.948074 4.56168 0.796572C4.02044 0.645069 3.44887 0.638588 2.90433 0.777777C2.19196 0.970753 1.56449 1.39619 1.12154 1.98653C0.678588 2.57687 0.445557 3.29827 0.459449 4.03618V17.9426C0.461734 19.945 1.25818 21.8647 2.67407 23.2806C4.08996 24.6965 6.00966 25.4929 8.01203 25.4952V61.1002C8.01202 61.6689 8.1244 62.232 8.3427 62.7571C8.561 63.2821 8.88093 63.7589 9.28409 64.16C9.68724 64.561 10.1657 64.8784 10.6919 65.094C11.2181 65.3095 11.7818 65.419 12.3504 65.416C12.4206 65.416 12.4907 65.416 12.5608 65.4106C13.6855 65.3254 14.7349 64.8132 15.494 63.9791C16.2531 63.1449 16.6644 62.052 16.6435 60.9244V48.7097C21.7318 57.3412 31.2794 63.5602 33.7372 65.0653C34.113 65.2964 34.5455 65.4187 34.9866 65.4187C35.4277 65.4187 35.8602 65.2964 36.236 65.0653C38.6928 63.5602 48.2392 57.3412 53.3275 48.7097V61.1002C53.3275 61.6689 53.4399 62.232 53.6582 62.7571C53.8765 63.2821 54.1964 63.7589 54.5996 64.16C55.0027 64.561 55.4812 64.8784 56.0074 65.094C56.5336 65.3095 57.0973 65.419 57.6659 65.416C57.7361 65.416 57.8062 65.416 57.8817 65.4106C59.0054 65.3241 60.0535 64.8113 60.8115 63.9773C61.5694 63.1433 61.98 62.0512 61.959 60.9244V39.3822C62.8851 39.1431 63.7055 38.6032 64.2913 37.8472C64.8772 37.0913 65.1954 36.1621 65.1959 35.2057V11.4043C65.1915 8.77858 64.2314 6.24429 62.4951 4.27467C60.7588 2.30506 58.3649 1.03482 55.7605 0.701172ZM14.4857 24.4163V33.0791C13.782 34.5903 13.4139 36.236 13.4067 37.903C13.4201 40.0109 13.7847 42.1017 14.4857 44.0897V60.9211C14.5014 61.4947 14.301 62.0533 13.9244 62.4861C13.5477 62.9189 13.0221 63.1945 12.4519 63.2581C12.1556 63.2735 11.8593 63.2283 11.581 63.1253C11.3028 63.0224 11.0484 62.8638 10.8335 62.6593C10.6225 62.4583 10.4549 62.2163 10.3408 61.9483C10.2267 61.6802 10.1685 61.3916 10.1699 61.1002V24.4163C10.1699 24.1301 10.0562 23.8557 9.85389 23.6533C9.65155 23.451 9.37712 23.3373 9.09097 23.3373H8.01203C6.58127 23.3373 5.2091 22.769 4.1974 21.7573C3.1857 20.7456 2.61733 19.3734 2.61733 17.9426V4.03618C2.60688 3.78103 2.67992 3.52943 2.82536 3.31954C2.97081 3.10964 3.18073 2.9529 3.4233 2.87308C3.60751 2.82197 3.80225 2.82263 3.98612 2.87497C4.16999 2.92731 4.33587 3.02932 4.46555 3.16979C4.56463 3.26709 4.6431 3.38334 4.6963 3.51161C4.7495 3.63988 4.77634 3.77755 4.77521 3.91641V12.4293C4.76384 13.2545 5.0604 14.0545 5.60701 14.6729C6.15362 15.2913 6.91106 15.6839 7.7315 15.774C8.1783 15.8112 8.62797 15.7555 9.05219 15.6104C9.47641 15.4654 9.866 15.234 10.1964 14.931C10.5268 14.6279 10.7909 14.2597 10.972 13.8496C11.1532 13.4395 11.2474 12.9963 11.2488 12.5479V4.03618C11.2384 3.78103 11.3114 3.52943 11.4569 3.31954C11.6023 3.10964 11.8123 2.9529 12.0548 2.87308C12.2142 2.83355 12.3805 2.83056 12.5412 2.86433C12.7019 2.8981 12.8529 2.96775 12.9829 3.06808C13.1129 3.16841 13.2185 3.29682 13.2919 3.44372C13.3653 3.59062 13.4046 3.75221 13.4067 3.91641V12.4293C13.3954 13.2545 13.6919 14.0545 14.2385 14.6729C14.7851 15.2913 15.5426 15.6839 16.363 15.774C16.8098 15.8112 17.2595 15.7555 17.6837 15.6104C18.1079 15.4654 18.4975 15.234 18.8279 14.931C19.1583 14.6279 19.4224 14.2597 19.6036 13.8496C19.7847 13.4395 19.8789 12.9963 19.8804 12.5479V4.03618C19.8699 3.78103 19.943 3.52943 20.0884 3.31954C20.2338 3.10964 20.4438 2.9529 20.6863 2.87308C20.8706 2.82197 21.0653 2.82263 21.2492 2.87497C21.433 2.92731 21.5989 3.02932 21.7286 3.16979C21.8277 3.26709 21.9061 3.38334 21.9593 3.51161C22.0125 3.63988 22.0394 3.77755 22.0382 3.91641V17.9426C22.0382 19.3734 21.4699 20.7456 20.4582 21.7573C19.4465 22.769 18.0743 23.3373 16.6435 23.3373H15.5646C15.2785 23.3373 15.004 23.451 14.8017 23.6533C14.5993 23.8557 14.4857 24.1301 14.4857 24.4163ZM35.1107 63.2236C35.0731 63.2458 35.0303 63.2575 34.9866 63.2575C34.943 63.2575 34.9001 63.2458 34.8625 63.2236C31.6408 61.2524 15.5646 50.7607 15.5646 37.903C15.5607 36.6675 15.807 35.444 16.2887 34.3063C16.7705 33.1686 17.4776 32.1402 18.3676 31.2832C19.2576 30.4263 20.3119 29.7584 21.4669 29.3199C22.622 28.8815 23.8539 28.6815 25.0884 28.732C30.1411 28.732 34.1019 33.6326 34.1407 33.6822C34.2457 33.8032 34.3755 33.9002 34.5213 33.9666C34.667 34.0331 34.8253 34.0675 34.9855 34.0675C35.1457 34.0675 35.304 34.0331 35.4498 33.9666C35.5955 33.9002 35.7253 33.8032 35.8303 33.6822C35.8692 33.6326 39.83 28.732 44.8826 28.732C46.1171 28.6815 47.349 28.8815 48.5041 29.3199C49.6592 29.7584 50.7135 30.4263 51.6035 31.2832C52.4934 32.1402 53.2006 33.1686 53.6823 34.3063C54.1641 35.444 54.4104 36.6675 54.4065 37.903C54.4065 50.7607 38.3302 61.2524 35.1107 63.2236ZM63.038 35.2057C63.038 35.778 62.8106 36.3268 62.4059 36.7315C62.0013 37.1362 61.4524 37.3636 60.8801 37.3636C60.5939 37.3636 60.3195 37.4772 60.1172 37.6796C59.9148 37.8819 59.8012 38.1563 59.8012 38.4425V60.9244C59.816 61.4974 59.6153 62.0552 59.2387 62.4873C58.8621 62.9195 58.337 63.1945 57.7674 63.2581C57.4711 63.2735 57.1747 63.2284 56.8965 63.1254C56.6182 63.0225 56.3638 62.8639 56.1489 62.6593C55.938 62.4583 55.7704 62.2163 55.6563 61.9483C55.5422 61.6802 55.484 61.3916 55.4854 61.1002V44.0897C56.1863 42.1017 56.551 40.0109 56.5643 37.903C56.5573 36.2356 56.1893 34.5896 55.4854 33.078V2.83747C57.5701 3.10431 59.4864 4.12094 60.8762 5.69746C62.2661 7.27398 63.0345 9.30255 63.038 11.4043V35.2057Z" fill="white"/>
<path d="M47.9328 44.9162H43.6171C43.4395 44.9162 43.2646 44.96 43.108 45.0437C42.9514 45.1275 42.8179 45.2486 42.7194 45.3963L41.6663 46.9759L39.2139 41.2575C39.1317 41.064 38.9948 40.8988 38.82 40.7821C38.6452 40.6653 38.4401 40.6022 38.2299 40.6004H38.2223C38.0136 40.6004 37.8093 40.6609 37.6343 40.7747C37.4592 40.8884 37.321 41.0505 37.2362 41.2413L34.1073 48.2911L31.7066 40.2908C31.6424 40.0757 31.5127 39.8859 31.3355 39.7481C31.1584 39.6102 30.9426 39.531 30.7183 39.5215C30.4932 39.5041 30.2686 39.561 30.0788 39.6834C29.889 39.8057 29.7445 39.9868 29.6674 40.1991L27.7814 44.9162H24.1961C23.91 44.9162 23.6355 45.0299 23.4332 45.2322C23.2309 45.4345 23.1172 45.709 23.1172 45.9951C23.1172 46.2813 23.2309 46.5557 23.4332 46.7581C23.6355 46.9604 23.91 47.0741 24.1961 47.0741H28.5119C28.7277 47.0741 28.9385 47.0095 29.1172 46.8885C29.2959 46.7676 29.4342 46.5958 29.5142 46.3954L30.5241 43.8696L32.873 51.6995C32.9363 51.9107 33.0627 52.0975 33.2354 52.2346C33.408 52.3718 33.6186 52.4527 33.8386 52.4666L33.9066 52.4688C34.1153 52.4688 34.3196 52.4083 34.4947 52.2945C34.6697 52.1807 34.808 52.0187 34.8927 51.8279L38.204 44.3767L40.4698 49.6571C40.5463 49.8357 40.6697 49.9903 40.8269 50.1046C40.984 50.2189 41.1692 50.2886 41.3627 50.3064C41.5562 50.3242 41.7509 50.2894 41.9263 50.2057C42.1017 50.1219 42.2512 49.9924 42.359 49.8308L44.1943 47.0741H47.9328C48.219 47.0741 48.4934 46.9604 48.6957 46.7581C48.8981 46.5557 49.0118 46.2813 49.0118 45.9951C49.0118 45.709 48.8981 45.4345 48.6957 45.2322C48.4934 45.0299 48.219 44.9162 47.9328 44.9162Z" fill="white"/>
</svg>
