<svg width="1456" height="186" viewBox="0 0 1456 186" fill="none" xmlns="http://www.w3.org/2000/svg">
<path d="M187.765 93.3301C144.282 62.9835 44.4706 32.3071 0 20.7622V0H1456V68.591C1355.86 -33.004 1135 65 1108.5 113C1059.5 87 814.745 120.818 708.235 154.353C579.106 193.936 401.5 73.3417 312.941 68.591C246 65 206.431 93.3301 187.765 93.3301Z" fill="#FFE9C0"/>
<path d="M173.407 84.2902C113.549 47.9005 32.8614 25.4735 0 18.8088V43.8017C50.5559 46.201 136.67 93.4543 173.407 116.781C257.532 74.393 340.579 92.7878 371.586 107.284C604.144 210.454 732.05 189.231 758.339 170.236C923.152 127.748 1049.71 132.277 1101.61 142.774C1267.84 9.61143 1406.47 49.1335 1455 89.7886V61.2671C1353.89 -46.2321 1161.27 42.7723 1101.61 105.284C1025.17 78.4918 839.229 96.7569 754.295 127.748C656.418 180.933 483.652 127.111 407.481 91.788C303.538 37.8033 208.122 64.2958 173.407 84.2902Z" fill="#FFE9C0" fill-opacity="0.5"/>
</svg>
