<svg width="30" height="28" viewBox="0 0 30 28" fill="none" xmlns="http://www.w3.org/2000/svg">
<path d="M29.5575 2.40343C29.4173 2.26313 29.2508 2.15184 29.0675 2.07591C28.8843 1.99999 28.6879 1.96092 28.4895 1.96094C28.2911 1.96096 28.0947 2.00006 27.9115 2.07602C27.7282 2.15198 27.5617 2.26331 27.4215 2.40363L13.8664 15.9609L7.62219 9.71649C7.33895 9.43323 6.9548 9.27408 6.55423 9.27404C6.15366 9.27401 5.76948 9.43308 5.48619 9.71629C5.34589 9.8565 5.23459 10.023 5.15864 10.2062C5.0827 10.3895 5.0436 10.5859 5.04358 10.7842C5.04356 10.9826 5.08262 11.179 5.15853 11.3623C5.23444 11.5455 5.34571 11.712 5.48599 11.8523L12.7984 19.1651C12.9387 19.3054 13.1052 19.4167 13.2885 19.4927C13.4718 19.5686 13.6683 19.6077 13.8666 19.6077C14.065 19.6077 14.2615 19.5686 14.4448 19.4927C14.628 19.4167 14.7946 19.3054 14.9348 19.1651L29.5579 4.53943C29.8411 4.25609 30.0001 3.8719 30 3.47135C29.9999 3.07079 29.8408 2.68667 29.5575 2.40343Z" fill="black"/>
<path d="M26.2962 12.0837C25.8956 12.0837 25.5114 12.2428 25.2281 12.5261C24.9448 12.8094 24.7857 13.1936 24.7857 13.5942V24.7857H3.02093V3.02093H20.2543C21.0887 3.02093 21.7648 2.34484 21.7648 1.51046C21.7648 1.10986 21.6056 0.725671 21.3224 0.442404C21.0391 0.159138 20.6549 0 20.2543 0H1.51046C1.10986 0 0.725671 0.159138 0.442404 0.442404C0.159138 0.725671 0 1.10986 0 1.51046L0 26.2962C0 26.6968 0.159138 27.0809 0.442404 27.3642C0.725671 27.6475 1.10986 27.8066 1.51046 27.8066H26.2962C27.1305 27.8066 27.8066 27.1305 27.8066 26.2962V13.5942C27.8066 13.1936 27.6475 12.8094 27.3642 12.5261C27.0809 12.2428 26.6968 12.0837 26.2962 12.0837Z" fill="black"/>
</svg>
