<svg width="549" height="409" viewBox="0 0 549 409" fill="none" xmlns="http://www.w3.org/2000/svg">
<g clip-path="url(#clip0_112_65)">
<path d="M331.58 408.46C290.22 408.46 254.32 405.35 230.51 399.71C203.41 393.29 185.36 382.17 176.86 366.64C169.67 353.51 169.34 337.4 175.86 318.73C176.11 318.03 176.36 317.3 176.63 316.54C181.73 301.76 191.22 274.24 236.38 219.43C269.22 179.58 311.38 157.63 355.05 157.63C371.327 157.66 387.462 160.649 402.67 166.45C441.27 181.05 473.55 204.51 496.01 234.31C514.92 259.38 526.7 288.71 529.19 316.87C531.89 347.3 523.19 372.36 506.6 382.29C476.3 400.34 396.86 408.46 331.58 408.46ZM355.08 158.63C311.7 158.63 269.83 180.45 237.18 220.07C192.18 274.74 182.68 302.14 177.6 316.86C177.34 317.63 177.08 318.36 176.84 319.06C170.4 337.45 170.71 353.29 177.75 366.16C186.11 381.43 203.95 392.39 230.75 398.74C254.49 404.36 290.3 407.46 331.59 407.46C396.74 407.46 475.96 399.41 506.09 381.46C522.38 371.73 530.86 347.03 528.2 316.99C523.89 268.32 488.34 199.99 402.32 167.42C387.237 161.648 371.23 158.669 355.08 158.63Z" fill="black"/>
<mask id="mask0_112_65" style="mask-type:luminance" maskUnits="userSpaceOnUse" x="0" y="62" width="258" height="231">
<path d="M5.4 156.21C0.4 178.21 -6.16 239.38 16.27 262.9C38.7 286.42 55.72 289.68 94.07 290.4C132.42 291.12 151.61 293.29 179.83 291.49C208.05 289.69 252.2 288.68 256.91 224.91C265.4 109.71 178.91 56.5599 109.4 62.7099C39.89 68.8599 14.9 114.71 5.4 156.21Z" fill="white"/>
</mask>
<g mask="url(#mask0_112_65)">
<path d="M135.14 117.44C137.14 120.7 138.76 126.49 139.66 132.82C140.3 137.25 141.47 137.7 145.82 139.69C150.17 141.68 151.15 145.48 148.82 147.69C145.47 150.79 145.48 149.1 145.02 152.58C144.72 154.9 145.35 156.76 142.22 155.76C141 155.36 138.46 153.85 138.1 154.13C137.02 154.97 137.35 158.13 141.48 160.5C142.98 161.37 144.22 161.26 142.9 168.14C141.74 174.14 134.48 175.06 127.29 173.7C120.1 172.34 121.59 177.77 118.74 185.51C115.89 193.25 115.49 197.58 119.42 200.84C123.35 204.1 126.48 219.7 126.07 223.5C125.66 227.3 112.07 235.17 100.56 222.42C94.32 213.73 87.26 197.04 87.26 197.04C87.26 197.04 94.59 186.86 94.45 176.96C94.31 167.06 90.11 129.74 103.82 119.15C117.53 108.56 133.78 114.82 135.14 117.44Z" fill="white"/>
<path d="M114.7 229.86C111.02 229.86 105.52 228.62 100.17 222.71C93.93 214.04 86.85 197.36 86.78 197.19C86.7445 197.112 86.7312 197.026 86.7418 196.942C86.7524 196.857 86.7864 196.777 86.84 196.71C86.91 196.61 94.06 186.55 93.93 176.92C93.93 175.56 93.81 173.62 93.7 171.37C92.98 157.29 91.48 127.99 103.49 118.72C108.563 114.802 114.8 112.69 121.21 112.72C128.56 112.72 134.63 115.4 135.59 117.25C137.53 120.43 139.2 126.1 140.16 132.79C140.74 136.86 141.71 137.3 145.77 139.16L146.02 139.28C148.54 140.43 150.17 142.28 150.49 144.28C150.605 144.976 150.541 145.69 150.305 146.354C150.069 147.019 149.668 147.612 149.14 148.08C148.368 148.82 147.531 149.489 146.64 150.08C145.78 150.64 145.76 150.65 145.5 152.7C145.44 153.13 145.42 153.53 145.4 153.91C145.31 155.49 145.16 157.29 142.05 156.29C141.393 156.051 140.752 155.77 140.13 155.45C139.54 155.146 138.928 154.885 138.3 154.67C138.097 154.961 138.011 155.318 138.06 155.67C138.14 156.86 139.14 158.67 141.7 160.13L142.09 160.34C143.72 161.2 144.58 161.99 143.37 168.29C142.56 172.49 138.78 174.81 132.72 174.81C130.86 174.796 129.005 174.608 127.18 174.25C126.561 174.127 125.931 174.06 125.3 174.05C122.35 174.05 121.8 175.88 120.82 180.05C120.398 181.993 119.854 183.906 119.19 185.78C116.19 193.99 116.3 197.72 119.72 200.55C123.82 203.95 126.98 219.64 126.55 223.65C126.27 226.07 121.18 229.86 114.7 229.86ZM87.81 197.06C88.73 199.19 95.23 214.13 100.95 222.06C106.01 227.66 111.22 228.84 114.7 228.84C120.7 228.84 125.35 225.3 125.55 223.39C125.95 219.72 122.8 204.24 119.08 201.17C114.78 197.6 115.47 192.83 118.25 185.27C118.904 183.437 119.439 181.563 119.85 179.66C120.77 175.76 121.44 172.93 125.3 172.93C125.992 172.937 126.682 173.01 127.36 173.15C129.126 173.496 130.92 173.677 132.72 173.69C136.63 173.69 141.47 172.69 142.39 167.98C143.52 162.1 142.77 161.71 141.63 161.11L141.21 160.88C138.74 159.46 137.21 157.49 137.06 155.62C137.001 155.254 137.035 154.879 137.159 154.529C137.283 154.18 137.493 153.867 137.77 153.62C138.21 153.29 138.96 153.62 140.56 154.38C141.144 154.678 141.745 154.942 142.36 155.17C142.762 155.315 143.183 155.399 143.61 155.42C144.2 155.42 144.32 155.18 144.4 153.68C144.4 153.28 144.45 152.85 144.51 152.4C144.81 150.09 144.93 149.84 146.1 149.07C146.941 148.526 147.731 147.907 148.46 147.22C148.859 146.859 149.161 146.403 149.335 145.894C149.51 145.385 149.553 144.84 149.46 144.31C149.2 142.66 147.74 141.07 145.57 140.08L145.31 139.96C141.18 138.07 139.79 137.43 139.13 132.82C138.19 126.26 136.57 120.73 134.67 117.63C134.04 116.41 128.67 113.63 121.17 113.63C114.977 113.629 108.961 115.699 104.08 119.51C92.49 128.51 93.97 157.41 94.68 171.32C94.79 173.57 94.89 175.52 94.91 176.91C95.08 186.16 88.93 195.45 87.81 197.06Z" fill="black"/>
<path d="M94.08 290.4C96.62 291.49 120.5 292.76 120.5 292.76C120.5 292.76 130.99 259.29 126.65 220.93C117.97 228.53 108.19 226.72 98.43 218.76C104.57 237.57 101.67 276.34 94.08 290.4Z" fill="black"/>
<path d="M130.82 141.91C131.34 143.6 132.56 144.73 133.52 144.43C134.48 144.13 134.84 142.51 134.31 140.82C133.78 139.13 132.57 138 131.61 138.3C130.65 138.6 130.29 140.22 130.82 141.91Z" fill="black"/>
<path d="M132.44 139.11C132.394 139.12 132.346 139.12 132.3 139.11C132.237 139.092 132.178 139.061 132.127 139.02C132.076 138.979 132.033 138.928 132.002 138.87C131.97 138.813 131.95 138.75 131.943 138.684C131.936 138.619 131.942 138.553 131.96 138.49L132.87 135.41C132.909 135.284 132.996 135.179 133.112 135.118C133.228 135.056 133.364 135.042 133.49 135.08C133.553 135.098 133.612 135.129 133.663 135.17C133.714 135.211 133.757 135.262 133.788 135.319C133.82 135.377 133.84 135.44 133.847 135.506C133.854 135.571 133.848 135.637 133.83 135.7L132.92 138.77C132.888 138.871 132.823 138.959 132.737 139.02C132.65 139.081 132.546 139.113 132.44 139.11Z" fill="black"/>
<path d="M108.37 241.19C105.57 220.59 96.37 206.96 88.22 194.34C86.97 192.4 85.81 192.68 85.28 192.78C81.38 193.55 77.04 195.38 78.15 197.78C78.4438 198.348 78.7956 198.884 79.2 199.38C77.51 199.72 75.49 200.14 73.08 200.67C65.3276 202.189 58.2459 206.099 52.83 211.85C47.22 217.46 18.54 252.23 10.58 261.1C21.08 281.34 39.08 284.34 39.08 284.34C39.08 284.34 55.54 267.79 65.85 255.12C65.48 257.65 64.22 281.18 60.6 290.4C66.99 294.11 84.76 293.93 94.6 293.51C96.22 295 102.54 293.66 102.54 293.66C102.54 293.66 111.26 262.54 108.37 241.19Z" fill="#70BADB"/>
<path d="M77.88 123.05C73.13 124.81 67.88 129.15 64.99 147.74C63.61 156.74 60.27 166.38 60.9 175.55C61.49 184.13 68.9 186.47 76.5 187.99C83.17 189.32 109.11 195.51 110.75 184.34C112.66 171.34 92.12 164.77 95.06 152.67C95.66 150.22 98.13 147.16 100.67 146.59C103.92 145.87 104.88 148.64 107.4 150.34C110.48 152.41 112.32 151.2 114.16 148.09C115.91 145.15 115.25 140.44 114.98 137.14C114.62 132.82 114.1 131.26 117.85 130.02C122.93 128.35 127.27 124.91 122.39 119.11C128.9 126.85 132.16 125.63 137.45 122.23C142.74 118.83 143.01 115.72 140.98 109.88C138.95 104.04 132.7 95.09 121.71 96.45C110.72 97.81 111.8 100.79 98.64 103.51C85.48 106.23 77.08 110.16 77.88 123.05Z" fill="black"/>
<path d="M127 133.18C126.944 133.189 126.886 133.189 126.83 133.18C126.705 133.135 126.604 133.042 126.548 132.922C126.491 132.802 126.485 132.665 126.53 132.54C126.88 131.54 128.89 126.54 133.53 125.54C133.66 125.516 133.794 125.543 133.904 125.616C134.014 125.689 134.091 125.801 134.12 125.93C134.133 125.994 134.133 126.061 134.121 126.125C134.109 126.19 134.083 126.251 134.047 126.306C134.011 126.361 133.964 126.408 133.91 126.444C133.855 126.481 133.794 126.507 133.73 126.52C129.6 127.38 127.73 131.94 127.45 132.85C127.416 132.943 127.355 133.025 127.275 133.084C127.195 133.142 127.099 133.176 127 133.18Z" fill="black"/>
<path d="M94.25 293.07C94.1843 293.066 94.12 293.049 94.0608 293.021C94.0016 292.992 93.9486 292.952 93.905 292.903C93.8613 292.853 93.8278 292.796 93.8064 292.734C93.7849 292.671 93.776 292.606 93.78 292.54C93.78 292.11 93.9 290.92 94.04 289.2C94.82 279.14 96.9 252.42 96.14 246.32C95.34 239.93 97.07 238.32 99.69 235.91C100.02 235.6 100.36 235.29 100.69 234.91C99.4 234.09 96.01 231.91 93.45 230.37C90.89 228.83 90.18 226.51 88.61 220.57C88.14 218.8 87.61 216.79 86.9 214.34C85.5549 209.302 83.0788 204.637 79.66 200.7C79.16 200.1 78.74 199.58 78.38 199.08C78.3041 198.972 78.2731 198.838 78.2936 198.708C78.3141 198.577 78.3845 198.46 78.49 198.38C78.5438 198.342 78.6046 198.314 78.6689 198.299C78.7333 198.285 78.7999 198.283 78.865 198.294C78.9301 198.305 78.9923 198.329 79.0481 198.364C79.1039 198.4 79.1521 198.446 79.19 198.5C79.53 198.97 79.95 199.5 80.43 200.07C83.9397 204.11 86.4808 208.899 87.86 214.07C88.57 216.54 89.13 218.64 89.57 220.33C91.07 225.98 91.63 228.1 93.97 229.53C97.19 231.53 101.71 234.39 101.76 234.42C101.823 234.459 101.876 234.511 101.916 234.574C101.956 234.636 101.981 234.706 101.99 234.78C101.997 234.855 101.987 234.931 101.961 235.002C101.935 235.073 101.894 235.137 101.84 235.19C101.31 235.72 100.84 236.19 100.34 236.62C97.78 238.99 96.34 240.3 97.1 246.17C97.88 252.38 95.79 279.17 95 289.26C94.87 290.97 94.78 292.15 94.75 292.59C94.7487 292.654 94.7348 292.718 94.7089 292.777C94.6831 292.836 94.6459 292.889 94.5995 292.934C94.553 292.978 94.4983 293.013 94.4383 293.036C94.3784 293.06 94.3144 293.071 94.25 293.07Z" fill="white"/>
<path d="M164.08 227.62L160.28 238.84C160.28 238.84 151.23 222.38 145.44 215.14C140.08 208.34 132.26 204.14 126.08 201.84C121.92 194.96 116.08 193.97 116.08 193.97C115.817 195.21 115.953 196.502 116.47 197.66C117.33 199.72 126.65 215.86 124.47 241.55C122.29 267.24 114.88 292.76 114.88 292.76H120.49C120.49 292.76 120.49 292.61 120.61 292.35C124.83 292.89 133.42 293.76 133.69 291.85C134.06 289.32 138.94 269.05 141.84 262.72C150.52 278.82 158.58 282.11 170.24 277.21C178.57 273.71 185.44 245.72 186.34 234.68C186.52 234.5 164.08 227.62 164.08 227.62Z" fill="#70BADB"/>
<path d="M120.49 293.26C120.44 293.269 120.39 293.269 120.34 293.26C120.215 293.221 120.11 293.134 120.048 293.018C119.986 292.902 119.972 292.766 120.01 292.64C120.12 292.27 131.24 255.85 132.85 248.89C134.5 241.73 134.44 240.89 133.37 238.77C132.01 236.12 130.85 233.77 130.85 233.77C130.797 233.657 130.787 233.529 130.822 233.409C130.857 233.289 130.934 233.186 131.04 233.12C132.26 232.37 135.31 229.97 134.79 227.93C133.64 223.39 129.24 208.38 126.02 202.67L125.92 202.49C125.886 202.434 125.864 202.371 125.855 202.306C125.845 202.241 125.849 202.175 125.866 202.112C125.883 202.048 125.912 201.989 125.952 201.937C125.993 201.885 126.043 201.842 126.1 201.81C126.216 201.744 126.353 201.726 126.482 201.759C126.611 201.793 126.721 201.876 126.79 201.99L126.89 202.18C130.16 207.98 134.6 223.11 135.76 227.68C136.44 230.36 133.11 232.92 131.95 233.68C132.33 234.46 133.24 236.26 134.26 238.24C135.52 240.7 135.47 241.91 133.82 249.04C132.17 256.17 121.08 292.53 120.97 292.9C120.938 293.003 120.875 293.093 120.789 293.158C120.702 293.223 120.598 293.258 120.49 293.26Z" fill="white"/>
<path d="M141.84 263.22C141.755 263.224 141.67 263.205 141.593 263.166C141.517 263.127 141.453 263.069 141.406 262.997C141.36 262.925 141.333 262.842 141.328 262.757C141.324 262.672 141.342 262.586 141.38 262.51C149.51 244.71 146.48 238.3 144.67 234.51C144.375 233.924 144.117 233.319 143.9 232.7C143.88 232.638 143.872 232.573 143.876 232.508C143.881 232.443 143.899 232.38 143.928 232.322C143.957 232.264 143.998 232.212 144.047 232.17C144.096 232.128 144.153 232.095 144.215 232.075C144.277 232.055 144.342 232.047 144.407 232.051C144.471 232.056 144.535 232.074 144.593 232.103C144.651 232.132 144.702 232.173 144.745 232.222C144.787 232.271 144.82 232.328 144.84 232.39C145.051 232.971 145.298 233.539 145.58 234.09C147.46 238.09 150.58 244.74 142.29 262.97C142.246 263.049 142.18 263.115 142.1 263.159C142.021 263.203 141.931 263.224 141.84 263.22Z" fill="black"/>
<path d="M163.23 246.12C163.136 246.12 163.044 246.094 162.965 246.045C162.885 245.995 162.821 245.924 162.78 245.84C162.78 245.84 160.78 241.62 158.97 237.31C158.944 237.25 158.93 237.185 158.93 237.119C158.929 237.054 158.942 236.988 158.967 236.928C158.993 236.867 159.03 236.812 159.076 236.766C159.123 236.72 159.179 236.684 159.24 236.66C159.362 236.61 159.499 236.611 159.621 236.661C159.742 236.712 159.839 236.808 159.89 236.93C161.68 241.21 163.66 245.37 163.68 245.41C163.709 245.468 163.726 245.532 163.73 245.597C163.734 245.662 163.725 245.727 163.703 245.788C163.682 245.85 163.649 245.906 163.605 245.955C163.562 246.003 163.509 246.042 163.45 246.07C163.382 246.106 163.306 246.123 163.23 246.12Z" fill="black"/>
<path d="M165.54 223.34C167.54 216.97 170.54 199.73 171.24 193.34C171.94 186.95 168.12 178 172.59 172.34C177.06 166.68 179.92 163.79 181.14 160.95C182.36 158.11 185.21 157.69 186.7 160.54C188.19 163.39 185.89 168.41 182.5 171.94C190.78 166.64 191.45 168.54 194.03 164.47C196.61 160.4 201.63 149.95 204.89 150.23C207.6 146.56 210.72 148.6 211.27 153.62C212.89 153.48 214.39 157.28 213.27 162.98C217.21 165.29 216.8 173.7 211.27 180.08C205.74 186.46 195.08 190.22 192.81 195.34C190.54 200.46 186.7 230.76 186.7 230.76L165.54 223.34Z" fill="white"/>
<path d="M186.7 231.34C186.647 231.349 186.593 231.349 186.54 231.34L165.37 223.88C165.247 223.835 165.147 223.744 165.089 223.627C165.032 223.51 165.021 223.375 165.06 223.25C167.06 216.83 170.06 199.5 170.74 193.36C170.872 190.96 170.745 188.553 170.36 186.18C169.76 181.18 169.14 175.97 172.2 172.07C173.58 170.32 174.79 168.85 175.87 167.54C178.27 164.63 179.87 162.7 180.68 160.79C180.914 160.062 181.36 159.42 181.96 158.947C182.56 158.473 183.288 158.189 184.05 158.13C184.722 158.176 185.368 158.408 185.915 158.8C186.462 159.192 186.89 159.729 187.15 160.35C188.48 162.89 187.15 166.75 184.79 170C186.313 169.123 187.886 168.335 189.5 167.64C191.263 167.096 192.74 165.877 193.61 164.25C194.16 163.38 194.84 162.18 195.61 160.92C199.04 154.92 202.09 149.92 204.69 149.76C205.027 149.224 205.487 148.776 206.031 148.453C206.575 148.13 207.188 147.94 207.82 147.9C209.82 147.9 211.31 149.96 211.76 153.2C212.199 153.318 212.585 153.578 212.86 153.94C213.86 155.15 214.71 158.18 213.86 162.78C214.535 163.292 215.098 163.936 215.514 164.674C215.931 165.412 216.191 166.227 216.28 167.07C216.95 171.2 215.14 176.45 211.65 180.45C209.03 183.45 205.4 185.84 201.9 188.14C198.07 190.65 194.46 193.02 193.28 195.66C191.03 200.66 187.28 230.66 187.21 230.93C187.201 231.003 187.176 231.074 187.136 231.136C187.096 231.199 187.043 231.251 186.98 231.29C186.893 231.333 186.796 231.351 186.7 231.34ZM166.16 223.06L186.29 230.16C186.85 225.71 190.2 200.03 192.35 195.22C193.65 192.32 197.35 189.87 201.35 187.22C204.8 184.96 208.35 182.62 210.9 179.71C214.19 175.93 215.9 171 215.29 167.15C215.229 166.39 214.999 165.654 214.617 164.995C214.234 164.335 213.709 163.77 213.08 163.34C212.992 163.288 212.921 163.211 212.878 163.118C212.835 163.025 212.822 162.921 212.84 162.82C213.63 158.65 213.02 155.62 212.07 154.47C211.992 154.354 211.89 154.256 211.771 154.182C211.652 154.108 211.519 154.059 211.38 154.04C211.247 154.046 211.117 154.005 211.011 153.925C210.905 153.844 210.83 153.729 210.8 153.6C210.49 150.72 209.28 148.79 207.8 148.79C207.287 148.857 206.796 149.042 206.366 149.329C205.935 149.617 205.578 150.001 205.32 150.45C205.271 150.519 205.204 150.574 205.127 150.609C205.05 150.644 204.964 150.658 204.88 150.65C202.53 150.65 198.88 157.06 196.46 161.3C195.73 162.58 195.05 163.78 194.46 164.67C193.488 166.47 191.857 167.824 189.91 168.45C187.425 169.517 185.039 170.802 182.78 172.29C182.675 172.354 182.551 172.378 182.429 172.358C182.308 172.338 182.198 172.275 182.12 172.18C182.038 172.09 181.992 171.972 181.992 171.85C181.992 171.728 182.038 171.61 182.12 171.52C185.19 168.32 187.68 163.45 186.24 160.7C186.064 160.242 185.764 159.843 185.374 159.546C184.983 159.249 184.518 159.067 184.03 159.02C183.472 159.082 182.944 159.303 182.51 159.658C182.075 160.013 181.752 160.486 181.58 161.02C180.71 163.02 179.08 165.02 176.58 168.02C175.51 169.32 174.3 170.79 172.93 172.53C170.12 176.1 170.72 181.08 171.3 185.9C171.688 188.35 171.812 190.834 171.67 193.31C171.08 199.41 168.22 216.2 166.16 223.01V223.06Z" fill="black"/>
<path d="M187.38 181.22C187.268 181.218 187.16 181.179 187.072 181.108C186.985 181.037 186.925 180.939 186.9 180.83C186.21 177.95 183.63 173.25 182.22 172.31C182.11 172.237 182.034 172.123 182.008 171.994C181.982 171.865 182.008 171.73 182.08 171.62C182.155 171.51 182.271 171.433 182.401 171.407C182.532 171.381 182.668 171.407 182.78 171.48C184.53 172.65 187.18 177.69 187.87 180.6C187.9 180.729 187.878 180.864 187.809 180.976C187.739 181.089 187.628 181.169 187.5 181.2L187.38 181.22Z" fill="black"/>
<path d="M203.94 178.5C203.848 178.5 203.757 178.475 203.678 178.427C203.598 178.38 203.534 178.311 203.49 178.23C202.99 177.23 196.98 170.01 194.69 169.23C194.566 169.187 194.463 169.097 194.403 168.979C194.344 168.862 194.332 168.726 194.37 168.6C194.411 168.474 194.501 168.37 194.619 168.31C194.737 168.25 194.874 168.239 195 168.28C197.63 169.16 203.84 176.66 204.39 177.76C204.419 177.819 204.436 177.883 204.44 177.949C204.444 178.015 204.435 178.08 204.414 178.143C204.393 178.205 204.359 178.262 204.316 178.312C204.272 178.361 204.219 178.401 204.16 178.43C204.094 178.472 204.018 178.497 203.94 178.5Z" fill="black"/>
<path d="M202.72 179.18C202.624 179.179 202.53 179.151 202.449 179.1C202.368 179.049 202.302 178.976 202.26 178.89C202.206 178.769 202.202 178.632 202.249 178.508C202.296 178.385 202.39 178.285 202.51 178.23C204.08 177.5 207.51 173.07 208.51 168.01C208.99 165.41 209.78 163.8 210.95 163.08C211.417 162.829 211.933 162.68 212.462 162.644C212.992 162.607 213.523 162.685 214.02 162.87C214.084 162.887 214.143 162.917 214.195 162.958C214.247 162.999 214.29 163.05 214.322 163.108C214.354 163.165 214.374 163.229 214.38 163.295C214.387 163.361 214.38 163.427 214.36 163.49C214.323 163.615 214.238 163.721 214.124 163.784C214.01 163.848 213.876 163.864 213.75 163.83C213.386 163.679 212.993 163.609 212.599 163.626C212.205 163.644 211.82 163.747 211.47 163.93C210.58 164.48 209.91 165.93 209.47 168.19C208.47 173.4 204.91 178.19 202.95 179.19C202.874 179.204 202.795 179.201 202.72 179.18Z" fill="black"/>
<path d="M200.95 174.7C200.879 174.703 200.809 174.689 200.745 174.659C200.68 174.63 200.624 174.585 200.58 174.53C200.533 174.484 200.496 174.43 200.471 174.37C200.446 174.31 200.433 174.245 200.433 174.18C200.433 174.115 200.446 174.05 200.471 173.99C200.496 173.93 200.533 173.875 200.58 173.83C203.58 171.25 204.76 167.5 205.85 161.9C206.85 156.73 208.85 153.9 211.68 153.36C211.746 153.348 211.813 153.349 211.878 153.363C211.943 153.378 212.005 153.405 212.06 153.443C212.115 153.481 212.161 153.529 212.198 153.585C212.234 153.641 212.258 153.704 212.27 153.77C212.282 153.835 212.281 153.903 212.266 153.968C212.252 154.033 212.225 154.095 212.187 154.15C212.149 154.205 212.101 154.251 212.044 154.287C211.988 154.323 211.926 154.348 211.86 154.36C209.44 154.79 207.75 157.36 206.86 162.11C205.73 167.93 204.45 171.84 201.27 174.6C201.178 174.669 201.065 174.704 200.95 174.7Z" fill="black"/>
<path d="M197.83 171.18C197.725 171.181 197.622 171.146 197.54 171.08C197.434 171.004 197.361 170.889 197.339 170.76C197.317 170.63 197.346 170.498 197.42 170.39C198.9 168.3 200.74 162.31 202.23 157.51C202.967 154.784 203.889 152.111 204.99 149.51C205.054 149.393 205.161 149.307 205.289 149.269C205.416 149.232 205.553 149.246 205.67 149.31C205.787 149.374 205.873 149.481 205.911 149.609C205.948 149.736 205.934 149.873 205.87 149.99C204.805 152.522 203.906 155.121 203.18 157.77C201.6 162.9 199.8 168.71 198.24 170.93C198.198 171.003 198.139 171.064 198.067 171.107C197.995 171.151 197.914 171.176 197.83 171.18Z" fill="black"/>
<path d="M64.76 256.71C64.6424 256.71 64.5289 256.667 64.44 256.59C64.3393 256.503 64.2767 256.38 64.2655 256.247C64.2543 256.114 64.2954 255.983 64.38 255.88C67.38 252.3 73.56 245.8 73.63 245.73C73.6757 245.683 73.7301 245.646 73.7902 245.621C73.8503 245.596 73.9148 245.583 73.98 245.583C74.0452 245.583 74.1098 245.596 74.1699 245.621C74.23 245.646 74.2844 245.683 74.33 245.73C74.3769 245.776 74.4141 245.832 74.4395 245.893C74.4649 245.953 74.4779 246.019 74.4779 246.085C74.4779 246.151 74.4649 246.216 74.4395 246.277C74.4141 246.338 74.3769 246.393 74.33 246.44C74.27 246.51 68.16 252.98 65.12 256.55C65.0744 256.6 65.0188 256.64 64.9568 256.668C64.8949 256.695 64.8278 256.71 64.76 256.71Z" fill="black"/>
<path d="M164.65 221.71C162.65 225.46 161.5 231.54 161.9 232.09C162.3 232.64 177.15 233.84 187.28 241.09C189.58 242.17 190.28 231.48 189.96 230.25C189.01 226.99 165.87 220.34 164.65 221.71Z" fill="black"/>
<path d="M108.18 240.79C108.121 240.79 108.062 240.779 108.007 240.757C107.952 240.735 107.902 240.702 107.86 240.66C107.81 240.66 103.25 236.66 101.13 235.25C101.069 235.217 101.015 235.172 100.972 235.117C100.929 235.062 100.899 234.999 100.882 234.931C100.865 234.864 100.862 234.794 100.874 234.725C100.885 234.656 100.911 234.591 100.95 234.533C100.988 234.475 101.038 234.426 101.097 234.388C101.155 234.351 101.221 234.326 101.29 234.315C101.359 234.305 101.429 234.308 101.496 234.326C101.563 234.344 101.626 234.376 101.68 234.42C103.86 235.87 108.32 239.75 108.51 239.91C108.602 240.005 108.654 240.132 108.654 240.265C108.654 240.397 108.602 240.525 108.51 240.62C108.425 240.715 108.307 240.776 108.18 240.79Z" fill="white"/>
<path d="M124.66 238.75C124.53 238.747 124.406 238.697 124.31 238.61C124.218 238.515 124.166 238.387 124.166 238.255C124.166 238.122 124.218 237.995 124.31 237.9C126.128 236.214 128.142 234.753 130.31 233.55L131.31 232.94C131.42 232.868 131.555 232.842 131.684 232.868C131.813 232.894 131.927 232.97 132 233.08C132.072 233.193 132.097 233.33 132.068 233.461C132.04 233.592 131.962 233.706 131.85 233.78L130.85 234.41C128.766 235.575 126.829 236.985 125.08 238.61C125.024 238.662 124.957 238.701 124.885 238.725C124.813 238.749 124.736 238.758 124.66 238.75Z" fill="white"/>
<path d="M110.13 167.69C109.6 162.75 105.71 157.69 101.13 160.69C97.13 163.25 95.89 170.15 99.56 173.43C100.417 174.135 101.417 174.646 102.491 174.927C103.565 175.209 104.687 175.254 105.78 175.06C109.3 174.34 110.49 171.03 110.13 167.69Z" fill="#F2AC30"/>
</g>
<path d="M157.54 292.69C147.79 292.69 138.23 292.33 127.17 291.91C117.67 291.55 106.9 291.14 94.07 290.91C56.61 290.21 39.07 287.51 15.92 263.26C-5.72001 240.56 -0.830014 181.26 4.91999 156.11C18.04 98.79 53.18 67.2 109.36 62.22C112.96 61.9 116.65 61.74 120.36 61.74C157.52 61.74 194.84 78.04 220.19 105.33C239.66 126.33 261.94 164.06 257.44 224.95C252.83 287.45 210.33 290.1 182.21 291.85L179.9 292C172.37 292.46 165.27 292.69 157.54 292.69ZM120.32 62.69C116.68 62.69 113.02 62.85 109.45 63.17C53.75 68.1 18.91 99.43 5.88999 156.28C0.169987 181.28 -4.73001 240.12 16.64 262.52C39.51 286.52 56.92 289.16 94.08 289.86C106.91 290.11 117.69 290.51 127.2 290.86C138.2 291.28 147.8 291.64 157.53 291.64C165.24 291.64 172.32 291.42 179.79 290.94L182.1 290.79C209.87 289.06 251.85 286.45 256.4 224.79C259.93 176.88 247.14 135.79 219.4 105.92C194.25 78.91 157.2 62.73 120.32 62.73V62.69Z" fill="black"/>
<path d="M171.43 86.7701C178.21 85.0001 199.87 80.8801 211.21 78.5201C222.55 76.1601 234.94 74.5201 236.56 75.2801C238.18 76.0401 220.2 98.7101 211.8 107.69C209 109.61 205.17 106.07 205.17 106.07C197.22 114.32 188.23 117.42 186.76 117.71C185.29 118 184.54 108.87 184.4 103.42C184.26 97.9701 185.22 96.9101 180.71 94.7301C166.72 87.9501 171.43 86.7701 171.43 86.7701Z" fill="#70BADB"/>
<path d="M186.76 118.21C186.694 118.219 186.627 118.215 186.563 118.199C186.499 118.182 186.439 118.153 186.386 118.113C186.279 118.033 186.209 117.913 186.19 117.78C186.171 117.647 186.206 117.513 186.287 117.406C186.368 117.299 186.487 117.229 186.62 117.21C187.36 116.94 190.05 112.59 192.02 109.41C194.12 105.99 196.12 102.76 197.31 101.57C199.54 99.3401 220.15 85.3401 228.9 79.3401L186.08 96.3401C185.957 96.3892 185.819 96.3872 185.697 96.3347C185.575 96.2822 185.479 96.1834 185.43 96.0601C185.381 95.9368 185.383 95.799 185.435 95.6771C185.488 95.5552 185.587 95.4592 185.71 95.4101L232.86 76.7001C232.98 76.6528 233.113 76.6534 233.232 76.7018C233.351 76.7502 233.447 76.8427 233.5 76.9601C233.552 77.0785 233.556 77.2122 233.511 77.3334C233.466 77.4546 233.376 77.5537 233.26 77.6101C231.81 78.3801 200.37 99.9301 198.03 102.27C196.93 103.37 194.87 106.7 192.89 109.92C189.47 115.45 187.89 117.92 186.89 118.16C186.851 118.186 186.806 118.203 186.76 118.21Z" fill="black"/>
<path d="M206.08 107.16C205.973 107.161 205.869 107.13 205.78 107.07L205.57 106.91C202.57 104.7 198.78 101.91 197.9 102.39C197.842 102.421 197.778 102.44 197.712 102.445C197.647 102.451 197.581 102.443 197.518 102.422C197.456 102.402 197.398 102.369 197.348 102.326C197.299 102.282 197.259 102.229 197.23 102.17C197.201 102.111 197.184 102.047 197.18 101.981C197.176 101.915 197.185 101.85 197.206 101.787C197.227 101.725 197.261 101.668 197.304 101.618C197.348 101.569 197.401 101.529 197.46 101.5C198.82 100.82 201.51 102.71 206.16 106.1L206.37 106.26C206.453 106.323 206.515 106.409 206.547 106.509C206.578 106.608 206.578 106.714 206.546 106.814C206.514 106.913 206.452 106.999 206.369 107.061C206.285 107.124 206.184 107.158 206.08 107.16Z" fill="black"/>
<path d="M244.51 187.79C238.84 188.31 235.62 191.79 236.19 201.85C236.76 211.91 234.49 222.21 238.46 226.08C242.43 229.95 252.46 229.96 261.71 230.08C270.96 230.2 282.97 229.97 286.52 229.92C294.88 229.8 297.86 228.35 298.99 221.8C299.66 217.95 298.06 196.22 297.99 193.93C297.85 188.24 294.16 187.51 286.08 187.15C278.34 186.84 249.8 187.34 244.51 187.79Z" fill="#F2AC30"/>
<path d="M267.26 214.34H267.15C263.15 214.28 259.92 210.93 257.54 208.01C253.15 202.62 243.26 191.57 240.85 189.51C240.749 189.424 240.687 189.301 240.677 189.169C240.666 189.037 240.709 188.906 240.795 188.805C240.881 188.704 241.004 188.642 241.136 188.631C241.268 188.621 241.399 188.664 241.5 188.75C243.94 190.83 253.9 201.96 258.32 207.38C260.56 210.13 263.59 213.29 267.16 213.38C269.72 213.38 272.39 211.85 275.11 208.71C282.6 200.07 293.71 189.19 293.82 189.08C293.867 189.034 293.923 188.998 293.984 188.973C294.046 188.949 294.111 188.937 294.177 188.938C294.243 188.939 294.308 188.953 294.369 188.979C294.429 189.005 294.484 189.043 294.53 189.09C294.576 189.137 294.612 189.193 294.637 189.254C294.661 189.316 294.673 189.381 294.672 189.447C294.671 189.513 294.657 189.578 294.631 189.639C294.605 189.699 294.567 189.754 294.52 189.8C294.41 189.91 283.33 200.8 275.87 209.36C272.94 212.67 270.13 214.34 267.26 214.34Z" fill="black"/>
<path d="M238.46 226.58C238.347 226.58 238.237 226.542 238.148 226.472C238.059 226.402 237.996 226.303 237.971 226.193C237.945 226.082 237.958 225.966 238.007 225.864C238.056 225.762 238.138 225.679 238.24 225.63C239.54 224.99 246.17 218.73 251.01 214.16C255.01 210.38 257.31 208.22 257.86 207.89C257.915 207.855 257.976 207.832 258.04 207.821C258.105 207.81 258.17 207.813 258.234 207.827C258.297 207.842 258.357 207.87 258.409 207.908C258.462 207.946 258.506 207.994 258.54 208.05C258.575 208.106 258.598 208.168 258.609 208.233C258.62 208.298 258.618 208.364 258.603 208.428C258.588 208.492 258.561 208.553 258.523 208.606C258.484 208.66 258.436 208.705 258.38 208.74C257.9 209.03 254.88 211.88 251.69 214.89C245.13 221.08 240.01 225.89 238.69 226.53C238.62 226.568 238.54 226.586 238.46 226.58Z" fill="black"/>
<path d="M294.98 228.2C294.893 228.2 294.807 228.176 294.732 228.132C294.656 228.089 294.594 228.026 294.55 227.95C294.23 227.41 290.5 223.38 286.9 219.47C282.15 214.32 277.23 209 276.49 207.82C276.45 207.765 276.422 207.702 276.408 207.636C276.393 207.57 276.392 207.501 276.404 207.435C276.417 207.368 276.443 207.304 276.481 207.248C276.519 207.192 276.568 207.144 276.625 207.107C276.682 207.071 276.746 207.046 276.813 207.035C276.88 207.023 276.949 207.026 277.015 207.042C277.081 207.058 277.143 207.088 277.197 207.129C277.251 207.17 277.296 207.221 277.33 207.28C278.03 208.39 283.13 213.92 287.64 218.8C292.15 223.68 295.05 226.8 295.41 227.45C295.476 227.564 295.493 227.7 295.46 227.827C295.426 227.954 295.344 228.063 295.23 228.13C295.155 228.177 295.068 228.202 294.98 228.2Z" fill="black"/>
<mask id="mask1_112_65" style="mask-type:luminance" maskUnits="userSpaceOnUse" x="292" y="0" width="257" height="224">
<path d="M380 7.15004C345.08 14.51 290.38 29.71 292.89 96.34C295.4 162.97 321.08 197.34 363.82 210.68C406.56 224.02 511.58 237.68 533.82 193.39C556.06 149.1 548.76 85.82 537.25 59.52C525.74 33.22 497.92 -17.66 380 7.15004Z" fill="white"/>
</mask>
<g mask="url(#mask1_112_65)">
<path d="M474.5 61.5101C471.75 49.8401 446.41 34.8401 435.58 39.0101C424.75 43.1801 438.58 48.0101 438.58 48.0101C421.91 45.0101 413.91 47.0101 412.25 51.1701C410.59 55.3301 417.58 57.0101 417.58 57.0101C406.25 57.3401 393.58 66.1701 395.41 72.3401C397.24 78.5101 404.75 76.2601 404.75 76.2601C394.08 84.8401 395.82 93.5701 406.95 92.5401C395.25 101.34 393.58 117.54 398.08 123.34C402.58 129.14 406.95 120.34 406.95 120.34C402.25 133.34 409.25 141.84 415.95 131.01C414.45 145.84 427.62 147.84 431.79 140.51C435.79 154.67 445.29 152.51 446.95 145.51C452.12 152.01 462.29 149.84 464.29 142.84C469.95 149.51 474.95 143.42 474.45 138.26C480.29 145.09 489.45 145.92 491.29 133.51C499.62 139.67 503.79 139.51 501.54 124.76C515.45 129.84 522.79 114.34 506.79 101.01C517.45 103.84 516.29 92.8401 501.04 86.2601C511.79 86.0101 513.12 78.6701 507.79 73.2601C502.46 67.8501 493.41 57.3401 474.5 61.5101Z" fill="black"/>
<path d="M421.53 89.9802C419.9 99.7502 422.79 102.64 425.69 109.52C428.59 116.4 424.53 123.64 432.25 132.22C439.44 140.22 450.25 139.73 450.25 139.73L453.33 152.22L479.96 145.34L474.18 120.28C474.18 120.28 479.6 117.28 477.97 106.62C476.34 95.9602 476.17 69.5302 450.29 73.5102C424.41 77.4902 423.88 82.2002 421.53 89.9802Z" fill="white"/>
<path d="M453.37 152.72C453.278 152.718 453.188 152.69 453.11 152.64C453.053 152.607 453.003 152.562 452.963 152.509C452.924 152.455 452.895 152.395 452.88 152.33L449.88 140.24C447.99 140.24 438.41 139.85 431.88 132.56C426.93 127.04 426.71 121.94 426.51 117.44C426.556 114.808 426.125 112.189 425.24 109.71C424.67 108.38 424.12 107.21 423.58 106.08C421.42 101.52 419.71 97.9102 421.04 89.8902L421.29 89.0602C423.55 81.4802 424.91 76.9102 450.23 73.0602C451.911 72.7963 453.609 72.6592 455.31 72.6501C474.31 72.6501 476.64 91.5701 478 102.88C478.16 104.25 478.31 105.5 478.48 106.59C479.93 116.08 475.95 119.69 474.75 120.59L480.46 145.31C480.488 145.436 480.465 145.567 480.398 145.677C480.331 145.787 480.224 145.867 480.1 145.9L453.5 152.78L453.37 152.72ZM450.29 139.23C450.402 139.231 450.511 139.268 450.599 139.337C450.688 139.406 450.751 139.502 450.78 139.61L453.73 151.61L479.37 144.99L473.69 120.4C473.667 120.295 473.677 120.185 473.721 120.086C473.764 119.987 473.837 119.905 473.93 119.85C473.93 119.85 479.03 116.85 477.48 106.71C477.31 105.61 477.16 104.35 477 102.97C475.67 91.9702 473.46 73.6201 455.3 73.6201C453.649 73.6261 452.001 73.7598 450.37 74.0201C425.68 77.8101 424.37 82.1601 422.24 89.3501L422 90.1301C420.73 97.7801 422.3 101.08 424.48 105.66C425.02 106.8 425.58 107.98 426.15 109.33C427.089 111.915 427.547 114.65 427.5 117.4C427.7 121.95 427.9 126.65 432.62 131.9C438.9 138.9 448.13 139.25 449.91 139.25C450.4 139.24 450.28 139.23 450.29 139.23Z" fill="black"/>
<path d="M484.08 97.5C483.17 92.05 482.08 86.89 479.25 82.04C477.51 79.04 475.94 75.96 473 73.96C464.75 68.35 453.64 68.69 444.24 70.64C436.79 72.19 428.48 74.83 422.7 79.97C420.78 81.68 413 89.43 418.04 91.67C421.04 92.99 424.24 90.2 426.47 88.32C426.592 88.6534 426.756 88.9694 426.96 89.26C428.46 91.51 432.21 91.76 434.71 91.26C441.21 90.26 447.46 86.01 452.21 81.26C451.21 82.76 449.96 84.76 450.46 86.76C451.46 89.01 453.71 89.26 455.71 89.26C459.96 89.01 463.96 85.51 466.96 82.76C464.46 87.51 461.71 92.26 461.46 97.76C461.158 100.304 461.501 102.884 462.46 105.26C463.71 108.26 466.46 108.26 468.96 106.51C467.71 110.51 466.96 114.26 468.71 118.26C469.71 120.64 473.04 124.67 477.62 123.84C481.28 123.18 481.96 114.59 483.29 111.59C485.81 106 485.08 103.59 484.08 97.5Z" fill="black"/>
<path d="M416.51 93.4701C414.27 93.4701 412.11 92.6701 411.51 90.4001C411.215 89.0749 411.273 87.6955 411.68 86.4001C412.539 83.9405 413.964 81.7173 415.84 79.9101C415.888 79.8615 415.945 79.8231 416.008 79.7973C416.071 79.7716 416.139 79.759 416.207 79.7604C416.275 79.7617 416.342 79.777 416.404 79.8052C416.466 79.8335 416.522 79.8741 416.568 79.9247C416.613 79.9752 416.648 80.0345 416.67 80.099C416.692 80.1636 416.701 80.2319 416.695 80.2998C416.69 80.3678 416.671 80.4339 416.639 80.4941C416.607 80.5543 416.563 80.6074 416.51 80.6501C414.778 82.3296 413.451 84.3815 412.63 86.6501C412.288 87.7651 412.233 88.9482 412.47 90.0901C413.22 92.9101 417.21 92.4201 418 92.2901C419.929 92.0473 421.801 91.4686 423.53 90.5801C423.587 90.5436 423.651 90.5191 423.719 90.5082C423.786 90.4972 423.854 90.5001 423.92 90.5166C423.986 90.5331 424.048 90.5629 424.102 90.6041C424.156 90.6453 424.201 90.6971 424.235 90.7563C424.268 90.8155 424.289 90.8809 424.296 90.9485C424.303 91.0161 424.297 91.0844 424.277 91.1494C424.256 91.2143 424.223 91.2744 424.179 91.3262C424.135 91.3779 424.081 91.42 424.02 91.4501C422.188 92.3948 420.205 93.0108 418.16 93.2701C417.616 93.3819 417.065 93.4488 416.51 93.4701Z" fill="white"/>
<path d="M442.9 122.84C439.61 122.66 437.56 121.89 436.62 120.51C435.45 118.79 436.2 116.51 436.92 114.38C437.06 113.96 437.2 113.54 437.32 113.13C438.43 109.43 435.9 104.97 433.07 102.39C432.163 101.53 431.058 100.907 429.853 100.576C428.647 100.244 427.379 100.215 426.16 100.49C425.725 100.571 425.318 100.761 424.977 101.043C424.636 101.325 424.372 101.688 424.21 102.1C424.192 102.163 424.161 102.222 424.12 102.273C424.079 102.324 424.028 102.367 423.97 102.398C423.913 102.43 423.85 102.45 423.784 102.457C423.719 102.464 423.653 102.458 423.59 102.44C423.527 102.423 423.469 102.393 423.418 102.353C423.367 102.313 423.324 102.263 423.292 102.206C423.261 102.149 423.241 102.087 423.233 102.022C423.226 101.958 423.232 101.892 423.25 101.83C423.454 101.251 423.804 100.735 424.267 100.332C424.729 99.9288 425.289 99.6525 425.89 99.53C427.272 99.2093 428.712 99.2351 430.081 99.6049C431.451 99.9748 432.707 100.677 433.74 101.65C436.9 104.53 439.52 109.28 438.28 113.41C438.16 113.84 438.01 114.27 437.87 114.7C437.22 116.64 436.56 118.64 437.45 119.95C438.19 121.04 440.04 121.68 442.96 121.84C443.026 121.842 443.091 121.858 443.151 121.887C443.211 121.915 443.264 121.955 443.308 122.005C443.352 122.054 443.386 122.112 443.407 122.175C443.427 122.238 443.435 122.304 443.43 122.37C443.426 122.436 443.409 122.5 443.381 122.559C443.352 122.618 443.312 122.671 443.263 122.715C443.213 122.759 443.156 122.792 443.094 122.814C443.032 122.835 442.966 122.844 442.9 122.84Z" fill="black"/>
<path d="M441.37 100.74C441.257 100.739 441.148 100.7 441.06 100.63C440.957 100.548 440.891 100.428 440.876 100.297C440.861 100.165 440.898 100.034 440.98 99.9301C442.73 97.7201 447.78 93.1601 456.98 98.4001C457.095 98.4664 457.18 98.5758 457.214 98.7043C457.249 98.8327 457.231 98.9697 457.165 99.0851C457.099 99.2004 456.989 99.2848 456.861 99.3194C456.732 99.3541 456.595 99.3364 456.48 99.2701C448.25 94.5901 443.72 98.0601 441.74 100.55C441.695 100.606 441.639 100.652 441.575 100.685C441.511 100.717 441.442 100.736 441.37 100.74Z" fill="black"/>
<path d="M453.08 108.46C453.92 110.03 453.88 111.68 452.99 112.16C452.1 112.64 450.69 111.76 449.85 110.16C449.01 108.56 449.06 106.94 449.95 106.46C450.84 105.98 452.28 106.9 453.08 108.46Z" fill="black"/>
<path d="M450.6 107.25C450.516 107.249 450.434 107.229 450.36 107.19L447.53 105.68C447.472 105.65 447.422 105.608 447.38 105.558C447.339 105.507 447.308 105.449 447.289 105.387C447.271 105.325 447.265 105.259 447.272 105.194C447.279 105.13 447.299 105.067 447.33 105.01C447.36 104.952 447.4 104.9 447.45 104.857C447.5 104.815 447.558 104.783 447.621 104.764C447.683 104.744 447.749 104.737 447.814 104.743C447.879 104.75 447.942 104.769 448 104.8L450.83 106.31C450.888 106.34 450.94 106.381 450.983 106.43C451.025 106.48 451.057 106.538 451.076 106.601C451.096 106.663 451.103 106.729 451.097 106.794C451.09 106.859 451.071 106.922 451.04 106.98C450.998 107.061 450.935 107.129 450.858 107.176C450.78 107.224 450.691 107.249 450.6 107.25Z" fill="black"/>
<path d="M434.26 110.09C435.09 111.66 435.05 113.31 434.16 113.79C433.27 114.27 431.87 113.39 431.03 111.79C430.19 110.19 430.24 108.58 431.12 108.1C432 107.62 433.42 108.53 434.26 110.09Z" fill="black"/>
<path d="M431.74 108.88C431.656 108.879 431.574 108.859 431.5 108.82L428.67 107.34C428.612 107.309 428.561 107.266 428.52 107.215C428.478 107.164 428.447 107.105 428.429 107.042C428.41 106.978 428.404 106.912 428.411 106.847C428.418 106.781 428.438 106.718 428.47 106.66C428.5 106.602 428.542 106.551 428.592 106.51C428.643 106.469 428.701 106.438 428.763 106.419C428.825 106.401 428.891 106.395 428.956 106.402C429.02 106.409 429.083 106.428 429.14 106.46L431.97 107.96C432.073 108.01 432.156 108.093 432.204 108.196C432.253 108.3 432.265 108.417 432.238 108.528C432.211 108.639 432.147 108.737 432.057 108.807C431.966 108.876 431.854 108.913 431.74 108.91V108.88Z" fill="black"/>
<path d="M446.26 131.34C443.88 131.34 441.53 129.13 439.66 125.11C439.616 125.034 439.593 124.948 439.593 124.86C439.593 124.772 439.616 124.686 439.66 124.61C439.71 124.536 439.779 124.477 439.86 124.44C439.941 124.403 440.031 124.389 440.12 124.4C440.63 124.45 441.12 124.5 441.68 124.5C443.61 124.5 445.89 123.74 451.87 119.86C451.95 119.812 452.042 119.786 452.135 119.786C452.228 119.786 452.32 119.812 452.4 119.86C452.481 119.909 452.547 119.98 452.59 120.065C452.632 120.15 452.65 120.246 452.64 120.34C452.08 127.12 449.6 131.34 446.26 131.34ZM440.96 125.47C442.55 128.58 444.46 130.34 446.26 130.34C448.84 130.34 450.88 126.82 451.58 121.27C445.31 125.26 443.22 125.63 440.96 125.47Z" fill="black"/>
<path d="M444.87 130.96H444.73C444.603 130.925 444.495 130.841 444.43 130.727C444.364 130.613 444.346 130.477 444.38 130.35C445.26 127.12 448.85 124.7 451.21 124.84C451.276 124.844 451.34 124.861 451.399 124.889C451.458 124.918 451.511 124.958 451.555 125.007C451.599 125.057 451.632 125.114 451.654 125.176C451.675 125.238 451.684 125.304 451.68 125.37C451.679 125.437 451.664 125.502 451.636 125.563C451.608 125.623 451.568 125.678 451.519 125.722C451.469 125.766 451.41 125.799 451.347 125.82C451.283 125.84 451.216 125.847 451.15 125.84C449.15 125.71 446.09 127.89 445.35 130.61C445.317 130.711 445.252 130.799 445.166 130.862C445.08 130.925 444.977 130.959 444.87 130.96Z" fill="black"/>
<path d="M384.75 215.94C389.5 211.33 412.16 181.34 420.98 170.62C429.8 159.9 439.98 159.62 453.82 159.5C450.41 145.84 451.32 145.5 452 145.67C456.595 146.459 461.3 146.335 465.847 145.306C470.394 144.276 474.693 142.361 478.5 139.67C481.91 138.76 481.77 152.44 485.03 154.2C488.29 155.96 510.03 151.49 520.72 162.2C531.41 172.91 538.9 198.34 538.9 198.34C533.07 207.71 493.44 237.15 443.64 223.58C442.69 219.38 435.91 212.86 433.87 204.58C425.46 215.58 419.49 223.71 419.49 223.71C419.49 223.71 392.76 221.92 384.75 215.94Z" fill="#F2AC30"/>
<path d="M464.2 163.61C458.75 163.61 454.95 161.4 453.46 159.84C453.413 159.794 453.376 159.738 453.351 159.677C453.325 159.616 453.312 159.551 453.312 159.485C453.312 159.419 453.325 159.354 453.351 159.293C453.376 159.232 453.413 159.177 453.46 159.13C453.506 159.083 453.56 159.046 453.62 159.021C453.68 158.996 453.745 158.983 453.81 158.983C453.875 158.983 453.94 158.996 454 159.021C454.06 159.046 454.114 159.083 454.16 159.13C456.97 162.06 468.47 167.33 484 153.54C484.049 153.493 484.106 153.457 484.169 153.433C484.233 153.409 484.3 153.398 484.367 153.401C484.435 153.404 484.501 153.42 484.562 153.449C484.623 153.479 484.677 153.52 484.722 153.57C484.766 153.621 484.8 153.68 484.821 153.744C484.842 153.808 484.85 153.876 484.845 153.943C484.839 154.011 484.819 154.076 484.788 154.136C484.756 154.195 484.713 154.248 484.66 154.29C476.66 161.44 469.62 163.61 464.2 163.61Z" fill="black"/>
<path d="M461.33 163.48C461.223 163.479 461.12 163.445 461.034 163.382C460.948 163.319 460.883 163.231 460.85 163.13C460.67 162.53 456.41 148.52 455.96 146.54C455.93 146.412 455.952 146.276 456.021 146.164C456.091 146.051 456.202 145.971 456.33 145.94C456.394 145.925 456.461 145.924 456.526 145.935C456.591 145.946 456.653 145.97 456.709 146.005C456.765 146.04 456.813 146.086 456.851 146.141C456.889 146.195 456.916 146.256 456.93 146.32C457.37 148.26 461.76 162.69 461.81 162.84C461.848 162.966 461.834 163.102 461.772 163.218C461.71 163.334 461.605 163.421 461.48 163.46L461.33 163.48Z" fill="black"/>
<path d="M467.21 163.39C467.103 163.389 467 163.355 466.914 163.292C466.828 163.229 466.763 163.141 466.73 163.04L461.49 146.34C461.47 146.278 461.462 146.213 461.467 146.149C461.473 146.084 461.491 146.021 461.52 145.963C461.55 145.906 461.591 145.854 461.641 145.813C461.69 145.771 461.748 145.739 461.81 145.72C461.936 145.679 462.073 145.69 462.191 145.75C462.309 145.81 462.399 145.914 462.44 146.04L467.69 162.78C467.728 162.907 467.715 163.044 467.653 163.162C467.591 163.28 467.486 163.369 467.36 163.41L467.21 163.39Z" fill="black"/>
<path d="M473.36 161.58C473.256 161.581 473.154 161.548 473.069 161.487C472.985 161.426 472.922 161.339 472.89 161.24L467.64 145.24C467.599 145.114 467.61 144.977 467.67 144.859C467.73 144.741 467.834 144.651 467.96 144.61C468.086 144.572 468.222 144.584 468.339 144.643C468.457 144.703 468.547 144.806 468.59 144.93L473.84 160.93C473.879 161.057 473.867 161.195 473.808 161.314C473.748 161.433 473.645 161.525 473.52 161.57L473.36 161.58Z" fill="black"/>
<path d="M478.97 158.69C478.862 158.69 478.757 158.655 478.67 158.59C478.583 158.525 478.52 158.434 478.49 158.33L474.08 143.34C474.043 143.208 474.06 143.066 474.127 142.946C474.195 142.826 474.307 142.737 474.44 142.7C474.573 142.663 474.715 142.68 474.835 142.748C474.955 142.815 475.043 142.928 475.08 143.06L479.51 158.06C479.53 158.124 479.537 158.191 479.53 158.257C479.524 158.324 479.504 158.388 479.473 158.447C479.441 158.506 479.398 158.557 479.346 158.599C479.294 158.641 479.234 158.672 479.17 158.69H478.97Z" fill="black"/>
<path d="M450.44 140.34H450.28C450.214 140.339 450.15 140.325 450.089 140.298C450.029 140.272 449.975 140.234 449.929 140.187C449.884 140.139 449.848 140.083 449.824 140.022C449.8 139.961 449.789 139.896 449.79 139.83C449.79 139.764 449.803 139.699 449.829 139.638C449.855 139.577 449.893 139.522 449.941 139.476C449.988 139.431 450.045 139.395 450.106 139.372C450.168 139.348 450.234 139.337 450.3 139.34C453.85 139.47 463.37 136.34 469.44 128.85C469.527 128.75 469.649 128.687 469.781 128.674C469.913 128.661 470.045 128.699 470.15 128.78C470.201 128.821 470.244 128.872 470.276 128.929C470.307 128.987 470.327 129.05 470.333 129.115C470.34 129.181 470.333 129.247 470.314 129.309C470.294 129.372 470.262 129.43 470.22 129.48C464.02 137.12 454.25 140.34 450.44 140.34Z" fill="black"/>
<path d="M435.77 210.07C435.674 210.07 435.58 210.041 435.5 209.988C435.42 209.934 435.357 209.859 435.32 209.77C433.017 204.339 431.804 198.509 431.75 192.61C431.75 192.477 431.803 192.35 431.896 192.257C431.99 192.163 432.117 192.11 432.25 192.11C432.383 192.11 432.51 192.163 432.604 192.257C432.697 192.35 432.75 192.477 432.75 192.61C432.826 198.358 434.008 204.038 436.23 209.34C436.256 209.4 436.271 209.465 436.272 209.531C436.273 209.597 436.261 209.663 436.237 209.724C436.213 209.786 436.177 209.841 436.131 209.889C436.085 209.936 436.031 209.974 435.97 210C435.908 210.034 435.84 210.058 435.77 210.07Z" fill="black"/>
<path d="M508.64 219.57C508.532 219.568 508.428 219.533 508.341 219.468C508.255 219.403 508.192 219.313 508.16 219.21C508.16 219.05 503.66 203.81 501.79 198.05C501.754 197.926 501.769 197.792 501.829 197.678C501.89 197.564 501.993 197.478 502.116 197.438C502.239 197.397 502.372 197.406 502.489 197.463C502.605 197.519 502.695 197.619 502.74 197.74C504.62 203.52 509.08 218.74 509.12 218.92C509.14 218.984 509.147 219.051 509.14 219.117C509.134 219.184 509.114 219.248 509.083 219.307C509.051 219.365 509.008 219.417 508.956 219.459C508.904 219.501 508.844 219.532 508.78 219.55L508.64 219.57Z" fill="black"/>
<path d="M475.86 124.72C474.011 124.636 472.209 124.115 470.6 123.2C470.542 123.171 470.49 123.13 470.447 123.08C470.405 123.03 470.373 122.972 470.354 122.909C470.334 122.847 470.327 122.781 470.333 122.716C470.34 122.651 470.359 122.588 470.39 122.53C470.422 122.472 470.466 122.42 470.518 122.379C470.571 122.338 470.631 122.307 470.695 122.29C470.759 122.272 470.826 122.267 470.893 122.276C470.959 122.285 471.022 122.306 471.08 122.34C473.36 123.54 475.41 123.99 476.99 123.63C480.71 122.79 482.26 116.27 482.26 112.97C482.258 112.866 482.289 112.763 482.348 112.677C482.407 112.591 482.492 112.526 482.59 112.49C482.689 112.458 482.797 112.456 482.897 112.487C482.997 112.517 483.085 112.578 483.15 112.66C483.849 113.681 484.79 114.513 485.89 115.08C486.99 115.647 488.213 115.933 489.45 115.91C491.98 115.74 494.45 112.91 494.74 110.73C494.76 110.598 494.831 110.479 494.937 110.399C495.044 110.318 495.178 110.283 495.31 110.3C495.44 110.322 495.557 110.394 495.635 110.5C495.713 110.607 495.747 110.739 495.73 110.87C495.36 113.49 492.55 116.7 489.48 116.87C488.305 116.896 487.137 116.673 486.055 116.214C484.972 115.756 483.999 115.073 483.2 114.21C482.86 118.3 480.93 123.72 477.2 124.57C476.76 124.667 476.311 124.718 475.86 124.72Z" fill="white"/>
</g>
<path d="M453.26 224.17C417.96 224.17 382.94 217.17 363.68 211.17C318.08 196.96 294.77 159.42 292.39 96.34C291.29 67.04 301.28 44.41 322.1 29.08C339.34 16.39 360.99 10.6 379.89 6.61996C400.89 2.19996 420.15 -0.0400391 437.23 -0.0400391C468.04 -0.0400391 492.7 7.22997 510.53 21.57C525.2 33.36 532.79 47.92 537.76 59.28C544.09 73.76 548.31 96.89 548.76 119.65C549.15 139.5 546.97 168.43 534.31 193.58C521.65 218.73 483.22 224.17 453.26 224.17ZM437.26 0.999962C420.26 0.999962 401.03 3.22996 380.13 7.63996C335.95 16.95 291.13 34.77 293.42 96.34C295.78 158.9 318.87 196.15 363.99 210.21C384.71 216.66 420.35 223.21 453.28 223.21C482.96 223.21 520.97 218.01 533.44 193.21C546 168.21 548.17 139.48 547.78 119.76C547.33 97.11 543.15 74.13 536.87 59.76C529.82 43.66 511.16 0.999962 437.23 0.999962H437.26Z" fill="black"/>
<path d="M337.08 51.79H297.91C291.1 51.79 285.91 57.65 286.31 64.79L287.37 82.79C287.556 85.9153 288.929 88.8514 291.208 90.9983C293.486 93.1451 296.499 94.3405 299.63 94.34L327.99 93.91C329.47 98.32 330.55 102.6 333.39 102.39C335.39 102.19 336.29 97.9 336.87 93.75C339.83 93.5051 342.596 92.1772 344.639 90.0204C346.681 87.8635 347.857 85.0293 347.94 82.06L348.58 64.43C348.83 57.52 343.71 51.79 337.08 51.79Z" fill="white"/>
<path d="M333.19 102.92C330.41 102.92 329.27 99.4299 327.95 95.3999C327.84 95.0799 327.74 94.7599 327.63 94.3999L299.45 94.8199C296.209 94.7883 293.102 93.5205 290.764 91.2754C288.426 89.0303 287.033 85.9772 286.87 82.7399L285.81 64.7399C285.694 62.9681 285.939 61.1911 286.53 59.5168C287.122 57.8425 288.047 56.3058 289.25 54.9999C290.366 53.8294 291.71 52.9006 293.2 52.271C294.69 51.6414 296.293 51.3245 297.91 51.3399H337.08C338.647 51.3401 340.198 51.6585 341.638 52.2755C343.079 52.8926 344.379 53.7956 345.46 54.9299C346.666 56.2088 347.604 57.7162 348.219 59.3631C348.834 61.0101 349.113 62.7634 349.04 64.5199L348.4 82.1499C348.306 85.1709 347.131 88.0579 345.088 90.2858C343.046 92.5137 340.272 93.9345 337.27 94.2899C336.63 98.7099 335.7 102.73 333.4 102.96L333.19 102.92ZM327.99 93.4299C328.094 93.4321 328.194 93.4658 328.278 93.5266C328.362 93.5873 328.425 93.6722 328.46 93.7699L328.9 95.0899C330.13 98.8399 331.22 102.09 333.35 101.91C335.25 101.72 336.07 95.9099 336.35 93.6999C336.37 93.5862 336.426 93.4823 336.511 93.4045C336.597 93.3267 336.705 93.2793 336.82 93.2699C339.655 93.0326 342.303 91.7593 344.258 89.6933C346.213 87.6273 347.339 84.9133 347.42 82.0699L348.08 64.4399C348.152 62.8173 347.896 61.1969 347.33 59.6748C346.763 58.1528 345.896 56.7603 344.78 55.5799C343.784 54.545 342.588 53.724 341.264 53.1669C339.94 52.6099 338.516 52.3285 337.08 52.3399H297.91C296.423 52.335 294.952 52.6371 293.587 53.2273C292.223 53.8176 290.995 54.6831 289.98 55.7699C288.868 56.9759 288.013 58.3959 287.468 59.9433C286.923 61.4908 286.699 63.133 286.81 64.7699L287.87 82.7699C288.052 85.7403 289.344 88.534 291.488 90.5972C293.633 92.6605 296.475 93.8428 299.45 93.9099H299.62L327.98 93.4799L327.99 93.4299Z" fill="black"/>
<path d="M305.47 73.6299C305.452 74.3873 305.212 75.1226 304.778 75.7438C304.344 76.365 303.737 76.8444 303.032 77.1221C302.327 77.3997 301.556 77.4632 300.815 77.3047C300.074 77.1461 299.397 76.7725 298.867 76.2307C298.338 75.6888 297.98 75.0028 297.839 74.2586C297.697 73.5143 297.779 72.7448 298.072 72.0466C298.366 71.3483 298.86 70.7523 299.491 70.3331C300.122 69.9139 300.862 69.6901 301.62 69.6899C302.132 69.6952 302.637 69.8013 303.108 70.0023C303.579 70.2032 304.005 70.4951 304.363 70.8611C304.72 71.2271 305.002 71.66 305.192 72.1352C305.382 72.6103 305.477 73.1183 305.47 73.6299Z" fill="#70BADB"/>
<path d="M320.66 73.63C320.642 74.3878 320.401 75.1235 319.967 75.7448C319.533 76.3662 318.925 76.8456 318.22 77.123C317.514 77.4003 316.743 77.4633 316.002 77.3039C315.26 77.1445 314.583 76.7699 314.054 76.2271C313.525 75.6843 313.168 74.9973 313.028 74.2524C312.887 73.5075 312.97 72.7377 313.265 72.0397C313.561 71.3416 314.056 70.7462 314.688 70.3282C315.32 69.9102 316.062 69.6882 316.82 69.69C317.331 69.6965 317.835 69.8036 318.305 70.0051C318.774 70.2067 319.2 70.4987 319.556 70.8646C319.913 71.2304 320.194 71.663 320.383 72.1375C320.572 72.6119 320.667 73.1191 320.66 73.63Z" fill="#70BADB"/>
<path d="M335.85 73.63C335.832 74.3878 335.591 75.1235 335.157 75.7448C334.723 76.3662 334.115 76.8456 333.41 77.123C332.704 77.4003 331.933 77.4633 331.192 77.3039C330.45 77.1445 329.773 76.7699 329.244 76.2271C328.715 75.6843 328.358 74.9973 328.218 74.2524C328.077 73.5075 328.16 72.7377 328.455 72.0397C328.751 71.3416 329.246 70.7462 329.878 70.3282C330.51 69.9102 331.252 69.6882 332.01 69.69C332.521 69.6965 333.025 69.8036 333.495 70.0051C333.964 70.2067 334.39 70.4987 334.746 70.8646C335.103 71.2304 335.384 71.663 335.573 72.1375C335.762 72.6119 335.857 73.1191 335.85 73.63Z" fill="#70BADB"/>
<path d="M463.19 390.46H424.27C424.137 390.46 424.01 390.407 423.916 390.314C423.823 390.22 423.77 390.093 423.77 389.96C423.77 389.827 423.823 389.7 423.916 389.606C424.01 389.513 424.137 389.46 424.27 389.46H463.19C463.323 389.46 463.45 389.513 463.544 389.606C463.637 389.7 463.69 389.827 463.69 389.96C463.69 390.093 463.637 390.22 463.544 390.314C463.45 390.407 463.323 390.46 463.19 390.46Z" fill="black"/>
<path d="M348.16 248.79C336.63 243.22 334.46 230.74 351.28 225.99C339.48 211.47 351.42 203.06 359.42 201.43C367.42 199.8 383.31 203.87 398.64 217.03C413.97 230.19 420.64 230.87 425.24 241.19C429.84 251.51 427.68 259.51 423.06 269.95C418.44 280.39 417.91 283.66 426.86 292.07C435.81 300.48 443.15 308.9 436.91 324.77C430.67 340.64 356.03 334.82 352.5 323.96C348.97 313.1 357.39 273.34 357.39 273.34L348.16 248.79Z" fill="black"/>
<path d="M339.61 313.78C337.85 306.05 339.9 288.29 355.35 279.45C366.63 273.01 372.59 282.03 372.59 282.03L374.35 311.75C374.35 311.75 343.41 313.92 339.61 313.78Z" fill="black"/>
<path d="M252.77 269.14C251.41 267.24 249.38 264.64 247.48 266C245.58 267.36 248.61 278.37 257.11 277C255.505 274.47 254.056 271.846 252.77 269.14Z" fill="white"/>
<path d="M255.69 277.63C250.93 277.63 247.99 273.73 246.92 270.4C246.37 268.67 246.11 266.4 247.2 265.59C247.606 265.29 248.095 265.126 248.6 265.12C250.29 265.12 251.8 266.91 253.19 268.85C254.478 271.563 255.93 274.195 257.54 276.73C257.579 276.804 257.6 276.886 257.6 276.97C257.6 277.054 257.579 277.136 257.54 277.21C257.507 277.287 257.455 277.355 257.389 277.406C257.322 277.457 257.243 277.489 257.16 277.5C256.675 277.585 256.183 277.629 255.69 277.63ZM248.59 266.12C248.292 266.124 248.004 266.226 247.77 266.41C247.4 266.67 247.22 268.1 247.86 270.09C248.86 273.25 251.46 276.63 255.69 276.63H256.25C254.812 274.282 253.5 271.858 252.32 269.37C251.65 268.44 250 266.12 248.59 266.12Z" fill="black"/>
<path d="M276.79 270.34C272.17 268.85 269.19 265.19 270.68 262.2C272.17 259.21 277.06 263.15 280.45 265.86C282.373 267.456 284.644 268.58 287.08 269.14C283.873 270.653 280.259 271.075 276.79 270.34Z" fill="white"/>
<path d="M280.01 271.26C278.881 271.263 277.755 271.125 276.66 270.85C273.57 269.85 271.1 267.85 270.18 265.69C269.908 265.113 269.766 264.483 269.766 263.845C269.766 263.207 269.908 262.577 270.18 262C270.367 261.587 270.672 261.239 271.056 260.999C271.44 260.759 271.887 260.637 272.34 260.65C274.66 260.65 277.98 263.31 280.65 265.44C282.537 266.991 284.753 268.089 287.13 268.65C287.233 268.666 287.328 268.714 287.402 268.788C287.476 268.862 287.524 268.957 287.54 269.06C287.559 269.163 287.545 269.27 287.498 269.364C287.451 269.458 287.374 269.534 287.28 269.58C285.006 270.659 282.526 271.232 280.01 271.26ZM272.39 261.65C272.124 261.636 271.86 261.704 271.635 261.845C271.409 261.987 271.233 262.194 271.13 262.44C270.918 262.887 270.807 263.375 270.807 263.87C270.807 264.365 270.918 264.853 271.13 265.3C271.94 267.23 274.18 268.98 276.97 269.89C277.974 270.139 279.005 270.263 280.04 270.26C281.93 270.243 283.803 269.905 285.58 269.26C283.612 268.59 281.78 267.574 280.17 266.26C277.66 264.34 274.36 261.65 272.39 261.65Z" fill="black"/>
<path d="M281.63 312.02C281.27 304.02 280.36 288.14 279.09 283.07C277.82 278 269.87 279.45 269.32 279.27C268.77 279.09 258.87 282.84 253.99 272.94C249.11 263.04 253.08 259.34 255.75 260.34C256.7 257.08 259.42 258.03 260.91 259.66C262.27 256.81 266.2 259.8 267.15 263.46C268.1 267.12 269.05 270.38 276.65 269.46C284.25 268.54 293.65 266.34 297.28 277.33C300.91 288.32 303.93 305.34 303.93 305.34C303.93 305.34 302.48 316.23 281.63 312.02Z" fill="white"/>
<path d="M290.32 313.49C287.364 313.446 284.42 313.111 281.53 312.49C281.42 312.468 281.321 312.409 281.249 312.324C281.176 312.239 281.134 312.132 281.13 312.02C280.88 306.64 279.98 288.65 278.61 283.17C278.03 280.86 275.74 279.69 271.81 279.69C271.17 279.69 270.61 279.69 270.18 279.74C269.867 279.77 269.553 279.77 269.24 279.74C269.051 279.762 268.864 279.795 268.68 279.84C267.366 280.126 266.025 280.277 264.68 280.29C259.68 280.29 255.83 277.82 253.52 273.13C250.12 266.24 251.11 262.8 252 261.37C252.332 260.779 252.836 260.301 253.445 260.002C254.053 259.702 254.738 259.593 255.41 259.69C255.561 259.106 255.898 258.588 256.371 258.214C256.845 257.84 257.427 257.632 258.03 257.62C259.066 257.681 260.047 258.106 260.8 258.82C260.998 258.557 261.254 258.343 261.55 258.197C261.845 258.051 262.171 257.977 262.5 257.98C264.5 257.98 266.88 260.46 267.62 263.28C268.42 266.38 269.11 269.05 274.18 269.05C274.979 269.042 275.777 268.988 276.57 268.89L278.27 268.66C280.521 268.307 282.792 268.103 285.07 268.05C289.21 268.05 295.07 268.99 297.73 277.05C301.36 287.95 304.37 305.05 304.4 305.21C304.41 305.263 304.41 305.317 304.4 305.37C304.41 305.52 303.2 313.49 290.32 313.49ZM282.08 311.61C284.783 312.161 287.532 312.455 290.29 312.49C301.67 312.49 303.29 306.1 303.39 305.37C303.15 304.05 300.25 287.87 296.77 277.44C294.3 270.03 289.22 269.08 285.06 269.08C282.826 269.136 280.598 269.336 278.39 269.68L276.68 269.91C275.847 270.017 275.009 270.074 274.17 270.08C268.33 270.08 267.43 266.62 266.64 263.57C265.97 261 263.86 259.01 262.49 259.01C262.232 259.014 261.982 259.097 261.774 259.25C261.566 259.402 261.411 259.615 261.33 259.86C261.296 259.934 261.242 259.998 261.176 260.046C261.109 260.093 261.031 260.122 260.95 260.13C260.87 260.144 260.788 260.137 260.711 260.111C260.634 260.084 260.565 260.04 260.51 259.98C259.888 259.226 258.993 258.748 258.02 258.65C257.16 258.65 256.55 259.26 256.2 260.46C256.182 260.525 256.151 260.586 256.108 260.637C256.064 260.689 256.011 260.731 255.95 260.76C255.889 260.789 255.822 260.805 255.755 260.805C255.687 260.805 255.621 260.789 255.56 260.76C255.045 260.609 254.493 260.64 253.998 260.848C253.503 261.055 253.094 261.427 252.84 261.9C252.21 262.9 251.1 265.99 254.41 272.69C256.57 277.07 260.02 279.29 264.67 279.29C265.944 279.273 267.214 279.129 268.46 278.86C268.716 278.794 268.977 278.75 269.24 278.73C269.31 278.721 269.38 278.721 269.45 278.73H270.1C270.54 278.73 271.1 278.68 271.78 278.68C276.23 278.68 278.85 280.11 279.55 282.92C280.94 288.39 281.84 305.77 282.08 311.61Z" fill="black"/>
<path d="M257.85 278.25C257.741 278.247 257.635 278.209 257.55 278.14C254.48 275.77 252.44 272.22 251.49 267.6C251.463 267.468 251.491 267.33 251.566 267.217C251.641 267.105 251.757 267.027 251.89 267C252.023 266.974 252.16 267.001 252.273 267.076C252.385 267.151 252.463 267.268 252.49 267.4C253.39 271.78 255.3 275.13 258.18 277.35C258.285 277.431 258.353 277.55 258.37 277.682C258.386 277.813 258.351 277.945 258.27 278.05C258.221 278.114 258.157 278.166 258.084 278.201C258.011 278.236 257.931 278.252 257.85 278.25Z" fill="black"/>
<path d="M270.68 276.42C269.34 276.383 268.026 276.045 266.835 275.43C265.644 274.816 264.606 273.94 263.8 272.87C260.41 268.59 260.03 261.7 260.44 259.55C260.464 259.417 260.539 259.3 260.65 259.223C260.761 259.146 260.897 259.116 261.03 259.14C261.163 259.164 261.28 259.239 261.357 259.35C261.434 259.461 261.464 259.597 261.44 259.73C261.07 261.73 261.44 268.28 264.6 272.25C265.321 273.204 266.248 273.983 267.31 274.532C268.373 275.081 269.545 275.384 270.74 275.42C270.874 275.428 270.999 275.488 271.088 275.587C271.178 275.686 271.225 275.816 271.22 275.95C271.218 276.017 271.201 276.083 271.173 276.143C271.144 276.204 271.103 276.258 271.052 276.302C271.001 276.346 270.942 276.379 270.878 276.4C270.814 276.42 270.747 276.427 270.68 276.42Z" fill="black"/>
<path d="M265.39 280.09C264.113 279.988 262.873 279.612 261.755 278.987C260.637 278.362 259.666 277.504 258.91 276.47C254.91 271.3 254.91 262.31 255.3 260.23C255.311 260.165 255.335 260.103 255.37 260.048C255.405 259.992 255.451 259.944 255.505 259.907C255.559 259.87 255.62 259.844 255.685 259.83C255.749 259.817 255.816 259.817 255.88 259.83C255.945 259.841 256.007 259.865 256.063 259.9C256.119 259.935 256.168 259.981 256.206 260.034C256.244 260.088 256.271 260.149 256.285 260.214C256.3 260.278 256.301 260.345 256.29 260.41C255.94 262.41 255.91 270.95 259.7 275.86C260.372 276.783 261.235 277.549 262.231 278.107C263.227 278.664 264.332 279 265.47 279.09C265.603 279.09 265.73 279.143 265.824 279.236C265.917 279.33 265.97 279.457 265.97 279.59C265.97 279.723 265.917 279.85 265.824 279.943C265.73 280.037 265.603 280.09 265.47 280.09H265.39Z" fill="black"/>
<path d="M359.42 320.97C363.9 322.97 376.93 327.62 400.54 321.65C399.73 337.94 398.1 372.27 398.1 372.27C398.1 372.27 378.42 383.39 365.26 378.78C361.6 372.54 359.42 320.97 359.42 320.97Z" fill="black"/>
<path d="M363.46 308.09C367.39 307.55 371.64 306.09 371.23 299.54C370.82 292.99 369.74 284.47 369.74 284.47C359.56 284.34 349.52 279.05 344.91 268.6C340.3 258.15 346.4 252.72 349.79 241.87C353.18 231.02 359.56 222.05 373.79 223C388.02 223.95 395.63 230.74 395.63 230.74C393.19 243.49 390.75 261.54 396.04 262.63C401.33 263.72 402.69 254.35 402.69 254.35C410.69 250.41 419.08 255.2 415.85 262.22C411.92 270.77 402.56 266.43 402.56 266.43C400.66 271.31 392.65 276.74 392.65 276.74C393.87 286.74 395.09 303.39 402.65 304.34C399.53 320.22 397.91 326 397.91 326C397.91 326 370.64 332.64 360.73 322.88C361.19 319.48 363.46 308.09 363.46 308.09Z" fill="white"/>
<path d="M379.32 328.71C370.47 328.71 364.11 326.86 360.43 323.23C360.377 323.177 360.337 323.112 360.312 323.041C360.288 322.97 360.28 322.894 360.29 322.82C360.69 319.44 362.87 308.46 362.96 307.99C362.983 307.888 363.036 307.795 363.113 307.723C363.19 307.652 363.286 307.606 363.39 307.59C367.23 307.06 371.11 305.7 370.73 299.59C370.38 293.99 369.52 286.8 369.29 284.98C358.22 284.68 348.73 278.52 344.45 268.82C341.05 261.13 343.28 256.16 346.1 249.82C347.334 247.185 348.406 244.476 349.31 241.71C353.61 227.94 361.62 221.71 373.84 222.5C388.1 223.45 395.67 230.07 395.99 230.36C396.054 230.416 396.103 230.488 396.131 230.569C396.159 230.649 396.166 230.736 396.15 230.82C392.48 249.96 392.49 261.37 396.15 262.13C396.393 262.181 396.641 262.207 396.89 262.21C401.01 262.21 402.19 254.35 402.21 254.27C402.218 254.189 402.247 254.111 402.295 254.044C402.342 253.977 402.406 253.924 402.48 253.89C404.369 252.946 406.448 252.443 408.56 252.42C411.87 252.42 414.71 253.75 416.13 255.98C416.714 256.946 417.038 258.047 417.072 259.175C417.105 260.303 416.846 261.421 416.32 262.42C415.645 264.112 414.467 265.556 412.945 266.558C411.424 267.559 409.631 268.07 407.81 268.02C406.1 268.002 404.407 267.68 402.81 267.07C400.81 271.46 394.53 276.01 393.17 276.97C393.26 277.73 393.36 278.54 393.45 279.36C394.6 289.36 396.17 303.01 402.74 303.83C402.808 303.84 402.873 303.863 402.932 303.899C402.99 303.936 403.041 303.983 403.08 304.04C403.16 304.153 403.192 304.293 403.17 304.43C400.08 320.14 398.43 326.06 398.41 326.12C398.387 326.205 398.342 326.283 398.278 326.345C398.215 326.406 398.136 326.449 398.05 326.47C391.902 327.866 385.624 328.617 379.32 328.71ZM361.32 322.71C364.84 326.04 370.89 327.71 379.32 327.71C385.457 327.626 391.569 326.913 397.56 325.58C397.91 324.25 399.47 318.17 402.12 304.75C395.22 303.23 393.65 289.55 392.49 279.49C392.38 278.55 392.28 277.65 392.17 276.8C392.159 276.707 392.174 276.614 392.213 276.529C392.252 276.445 392.313 276.372 392.39 276.32C392.47 276.27 400.29 270.93 402.11 266.24C402.136 266.177 402.174 266.12 402.222 266.072C402.27 266.024 402.327 265.986 402.39 265.96C402.519 265.91 402.661 265.91 402.79 265.96C404.373 266.631 406.071 266.991 407.79 267.02C409.419 267.076 411.024 266.625 412.386 265.729C413.747 264.834 414.797 263.538 415.39 262.02C415.852 261.176 416.084 260.226 416.063 259.264C416.042 258.302 415.768 257.363 415.27 256.54C414.03 254.6 411.51 253.44 408.54 253.44C406.666 253.461 404.82 253.891 403.13 254.7C402.87 256.19 401.41 263.23 396.87 263.23C396.554 263.226 396.24 263.192 395.93 263.13C391.47 262.21 391.19 251.38 395.08 230.94C393.76 229.88 386.35 224.35 373.74 223.51C361.91 222.73 354.44 228.58 350.24 242.02C349.315 244.825 348.227 247.573 346.98 250.25C344.26 256.33 342.12 261.13 345.33 268.4C349.51 277.87 358.85 283.84 369.71 283.98C369.83 283.984 369.946 284.03 370.036 284.11C370.125 284.191 370.183 284.3 370.2 284.42C370.2 284.51 371.3 293.06 371.7 299.51C372.13 306.36 367.53 307.98 363.85 308.51C363.5 310.42 361.73 319.45 361.31 322.69L361.32 322.71Z" fill="black"/>
<path d="M360.24 262.58C360.153 262.58 360.067 262.56 359.99 262.52C357.13 260.89 355.63 259.29 355.4 257.63C355.12 255.57 356.79 253.9 358.4 252.28C358.71 251.97 359.03 251.65 359.32 251.34C361.96 248.53 361.68 243.4 360.32 239.83C360.113 239.15 359.724 238.539 359.195 238.063C358.667 237.587 358.018 237.265 357.32 237.13C356.467 237.011 355.598 237.092 354.782 237.368C353.966 237.644 353.225 238.107 352.62 238.72C352.574 238.767 352.518 238.804 352.457 238.829C352.396 238.855 352.331 238.868 352.265 238.868C352.199 238.868 352.134 238.855 352.073 238.829C352.012 238.804 351.956 238.767 351.91 238.72C351.863 238.674 351.826 238.62 351.801 238.56C351.776 238.5 351.763 238.435 351.763 238.37C351.763 238.305 351.776 238.24 351.801 238.18C351.826 238.12 351.863 238.066 351.91 238.02C352.631 237.28 353.517 236.722 354.496 236.391C355.475 236.061 356.518 235.968 357.54 236.12C358.4 236.287 359.199 236.684 359.852 237.269C360.505 237.853 360.988 238.604 361.25 239.44C362.78 243.44 363.01 248.85 360.06 251.99C359.76 252.31 359.44 252.64 359.06 252.99C357.62 254.44 356.13 255.93 356.34 257.5C356.52 258.81 357.9 260.2 360.44 261.65C360.534 261.706 360.607 261.791 360.648 261.892C360.689 261.993 360.696 262.104 360.668 262.21C360.639 262.315 360.577 262.408 360.491 262.475C360.405 262.542 360.299 262.579 360.19 262.58H360.24Z" fill="black"/>
<path d="M384.75 245.67C384.669 245.669 384.589 245.649 384.518 245.611C384.446 245.572 384.385 245.517 384.34 245.45C379.06 237.58 373.46 238.66 370.58 240.01C370.464 240.049 370.337 240.043 370.225 239.994C370.112 239.946 370.022 239.858 369.97 239.747C369.918 239.636 369.909 239.51 369.944 239.392C369.979 239.275 370.056 239.174 370.16 239.11C372.71 237.91 379.27 236.11 385.16 244.89C385.232 245 385.258 245.135 385.232 245.264C385.206 245.393 385.13 245.507 385.02 245.58C384.941 245.637 384.847 245.669 384.75 245.67Z" fill="black"/>
<path d="M376.7 252.78C376.17 254.47 374.96 255.6 373.99 255.3C373.02 255 372.68 253.39 373.2 251.69C373.72 249.99 374.94 248.87 375.91 249.17C376.88 249.47 377.23 251.09 376.7 252.78Z" fill="black"/>
<path d="M376.16 250.28C376.051 250.282 375.945 250.247 375.858 250.182C375.772 250.117 375.709 250.025 375.68 249.92L374.78 246.85C374.752 246.785 374.737 246.715 374.738 246.645C374.739 246.574 374.754 246.505 374.784 246.441C374.813 246.377 374.856 246.32 374.909 246.273C374.962 246.227 375.025 246.192 375.092 246.171C375.16 246.151 375.231 246.145 375.301 246.154C375.371 246.162 375.438 246.186 375.498 246.223C375.558 246.259 375.61 246.308 375.65 246.367C375.69 246.425 375.717 246.491 375.73 246.56L376.64 249.64C376.66 249.703 376.667 249.769 376.66 249.835C376.654 249.901 376.634 249.965 376.602 250.022C376.57 250.08 376.527 250.131 376.475 250.172C376.423 250.213 376.364 250.243 376.3 250.26L376.16 250.28Z" fill="black"/>
<path d="M356.93 249.07C356.4 250.77 355.19 251.89 354.23 251.59C353.27 251.29 352.91 249.68 353.44 247.98C353.97 246.28 355.18 245.16 356.14 245.46C357.1 245.76 357.46 247.34 356.93 249.07Z" fill="black"/>
<path d="M356.39 246.57C356.282 246.569 356.178 246.533 356.091 246.468C356.005 246.403 355.942 246.313 355.91 246.21L355.01 243.14C354.99 243.077 354.983 243.011 354.99 242.945C354.996 242.879 355.016 242.816 355.048 242.758C355.08 242.7 355.123 242.649 355.175 242.608C355.227 242.567 355.286 242.537 355.35 242.52C355.476 242.483 355.612 242.496 355.728 242.558C355.844 242.62 355.931 242.725 355.97 242.85L356.87 245.93C356.908 246.056 356.894 246.192 356.832 246.308C356.77 246.424 356.665 246.511 356.54 246.55C356.492 246.566 356.441 246.573 356.39 246.57Z" fill="black"/>
<path d="M360.08 272.62C359.591 272.633 359.104 272.544 358.651 272.358C358.198 272.172 357.789 271.893 357.45 271.54C356.24 270.27 355.7 267.92 355.84 264.54C355.844 264.445 355.876 264.353 355.931 264.275C355.986 264.197 356.062 264.136 356.15 264.1C356.238 264.064 356.334 264.054 356.428 264.069C356.521 264.085 356.609 264.127 356.68 264.19C357.4 264.85 359.5 265.61 363.07 265.61C365.46 265.589 367.84 265.287 370.16 264.71C370.263 264.685 370.371 264.694 370.468 264.735C370.566 264.777 370.647 264.848 370.7 264.94C370.756 265.031 370.781 265.137 370.772 265.243C370.763 265.349 370.72 265.45 370.65 265.53C366.65 270.04 362.8 272.62 360.08 272.62ZM356.82 265.5C356.82 268.07 357.28 269.91 358.18 270.85C360.08 272.85 364.32 270.85 368.84 266.03C363.96 266.98 359.08 266.7 356.78 265.5H356.82Z" fill="black"/>
<path d="M357.93 271.72C357.842 271.721 357.755 271.696 357.68 271.65C357.623 271.618 357.573 271.575 357.532 271.523C357.492 271.471 357.463 271.411 357.446 271.348C357.429 271.285 357.425 271.218 357.435 271.153C357.444 271.089 357.466 271.026 357.5 270.97C358.67 268.97 363.45 267.65 366.3 268.62C366.369 268.635 366.434 268.664 366.491 268.706C366.548 268.747 366.596 268.801 366.631 268.862C366.666 268.923 366.687 268.992 366.694 269.062C366.7 269.132 366.692 269.203 366.669 269.27C366.647 269.337 366.61 269.398 366.562 269.45C366.513 269.502 366.455 269.542 366.39 269.57C366.325 269.597 366.254 269.611 366.184 269.609C366.113 269.607 366.044 269.59 365.98 269.56C363.4 268.69 359.24 269.95 358.37 271.47C358.325 271.546 358.26 271.609 358.183 271.653C358.106 271.697 358.019 271.72 357.93 271.72Z" fill="black"/>
<path d="M369.52 285.02C369.381 285.025 369.246 284.976 369.143 284.882C369.04 284.789 368.978 284.659 368.97 284.52C368.97 284.387 369.023 284.26 369.116 284.166C369.21 284.073 369.337 284.02 369.47 284.02H369.53C374.59 284.02 382.76 281.1 388.23 278.2C388.288 278.169 388.351 278.15 388.416 278.143C388.481 278.137 388.547 278.144 388.609 278.164C388.672 278.183 388.73 278.215 388.78 278.257C388.829 278.3 388.87 278.352 388.9 278.41C388.931 278.467 388.951 278.53 388.958 278.594C388.965 278.659 388.959 278.725 388.941 278.787C388.922 278.849 388.891 278.907 388.85 278.958C388.808 279.008 388.758 279.049 388.7 279.08C383.08 282.04 374.75 285.02 369.52 285.02Z" fill="black"/>
<path d="M281.26 309.71C283.57 310.53 294.83 310.53 303.93 305.37C305.42 313.65 310.93 338.37 310.93 338.37C318.67 329.96 329.39 320.06 334.27 315.85C339.15 311.64 346.62 307.57 353.95 307.85C357.656 308.042 361.37 307.998 365.07 307.72C365.07 307.72 359.24 318.03 362.22 346.66C365.2 375.29 366.16 379.09 366.16 379.09L356.16 378.14C356.16 378.14 358.16 371.76 352.09 364.44C346.02 357.12 344.22 352.5 343.4 347.07C336.89 353.72 319.52 372.17 305 372.31C290.48 372.45 285.33 359.34 283.3 343.09C282.019 332.008 281.338 320.865 281.26 309.71Z" fill="#70BADB"/>
<path d="M393.08 372.09C389.01 373.31 371.5 378.51 363.5 377.97C355.5 377.43 347.21 373.49 340.7 375.12C334.19 376.75 323.01 384.96 323.8 388.21C324.41 390.72 327.4 389.37 327.4 389.37C327.523 389.672 327.711 389.944 327.949 390.167C328.188 390.389 328.472 390.558 328.781 390.661C329.091 390.763 329.419 390.798 329.744 390.761C330.068 390.725 330.381 390.619 330.66 390.45C331.74 392.76 336.76 391.4 339.75 388.82C342.74 386.24 346.4 384.89 351.01 386.52C357.503 388.943 364.315 390.405 371.23 390.86C379.64 391.26 399.46 390.34 399.46 390.34C399.46 390.34 402.44 378.6 393.08 372.09Z" fill="white"/>
<path d="M333.08 392.13C332.594 392.18 332.103 392.11 331.65 391.927C331.197 391.744 330.795 391.453 330.48 391.08C330.133 391.204 329.768 391.268 329.4 391.27C328.95 391.276 328.507 391.16 328.118 390.935C327.729 390.709 327.408 390.383 327.19 389.99C326.728 390.139 326.246 390.22 325.76 390.23C325.194 390.266 324.634 390.092 324.188 389.741C323.741 389.391 323.44 388.889 323.34 388.33C322.39 384.44 334.34 376.2 340.6 374.63C341.769 374.348 342.968 374.21 344.17 374.22C347.551 374.385 350.904 374.918 354.17 375.81C357.238 376.607 360.365 377.162 363.52 377.47C370.52 377.95 385.16 373.94 392.93 371.61C393.002 371.589 393.078 371.585 393.153 371.597C393.227 371.609 393.298 371.637 393.36 371.68C402.89 378.31 399.96 390.34 399.93 390.46C399.906 390.565 399.848 390.659 399.764 390.728C399.681 390.797 399.578 390.836 399.47 390.84C399.33 390.84 386.04 391.46 376.7 391.46C374.48 391.46 372.62 391.46 371.19 391.36C364.229 390.909 357.372 389.436 350.84 386.99C346.91 385.6 343.4 386.32 340.07 389.2C338.118 390.906 335.665 391.934 333.08 392.13ZM330.68 389.95H330.83C330.896 389.969 330.956 390.003 331.008 390.047C331.06 390.092 331.101 390.148 331.13 390.21C331.341 390.537 331.642 390.795 331.997 390.953C332.353 391.111 332.746 391.162 333.13 391.1C335.486 390.918 337.719 389.974 339.49 388.41C343.11 385.29 346.98 384.51 351.25 386.01C357.667 388.43 364.407 389.889 371.25 390.34C372.67 390.41 374.5 390.44 376.71 390.44C385.14 390.44 396.79 389.94 399.05 389.84C399.43 387.84 400.83 378.25 392.99 372.62C385.1 374.98 370.6 378.93 363.46 378.45C360.254 378.139 357.078 377.578 353.96 376.77C350.758 375.888 347.468 375.361 344.15 375.2C343.029 375.19 341.91 375.318 340.82 375.58C334.27 377.22 323.61 385.27 324.29 388.07C324.337 388.411 324.515 388.72 324.785 388.932C325.056 389.145 325.398 389.244 325.74 389.21C326.239 389.192 326.73 389.084 327.19 388.89C327.31 388.838 327.445 388.834 327.568 388.878C327.691 388.923 327.792 389.013 327.85 389.13C327.959 389.451 328.164 389.731 328.438 389.932C328.712 390.132 329.041 390.243 329.38 390.25C329.729 390.241 330.071 390.152 330.38 389.99C330.468 389.952 330.565 389.938 330.66 389.95H330.68Z" fill="black"/>
<path d="M454.55 362.5C448.55 346.5 443.42 329.12 438.55 321.25C433.68 313.38 427.83 306.05 416.98 304.96C409.11 304.42 402.05 304.15 402.05 304.15C399.47 310.93 391.2 343.77 395.54 371.32C394.368 371.337 393.23 371.714 392.28 372.4C396.62 375.93 399.07 382.31 397.98 390.86C416.84 392.35 436.79 389.37 443.3 387.74C449.81 386.11 460.52 378.51 454.55 362.5ZM416.28 367.5L417.23 356.1L420.35 366.68L416.28 367.5Z" fill="#70BADB"/>
<path d="M273.98 270C273.853 269.998 273.732 269.948 273.639 269.862C273.547 269.775 273.49 269.656 273.48 269.53C273.476 269.464 273.485 269.398 273.506 269.336C273.528 269.274 273.561 269.217 273.605 269.167C273.649 269.118 273.702 269.078 273.761 269.049C273.82 269.02 273.884 269.004 273.95 269C274.88 268.94 276 268.84 277.23 268.72C281.33 268.33 286.43 267.85 289.48 268.64C289.544 268.656 289.604 268.685 289.656 268.724C289.709 268.764 289.753 268.813 289.787 268.87C289.82 268.927 289.842 268.99 289.851 269.055C289.86 269.12 289.857 269.186 289.84 269.25C289.805 269.377 289.721 269.486 289.608 269.553C289.494 269.62 289.358 269.641 289.23 269.61C286.34 268.86 281.34 269.34 277.32 269.72C276.09 269.83 274.95 269.94 274.01 270H273.98Z" fill="black"/>
<path d="M343.82 349.84C343.703 349.84 343.59 349.798 343.501 349.724C343.411 349.649 343.351 349.545 343.33 349.43C342.42 344.89 343.44 339.07 344.84 335.32C344.862 335.257 344.897 335.2 344.942 335.151C344.987 335.102 345.042 335.062 345.103 335.035C345.163 335.008 345.229 334.994 345.296 334.993C345.362 334.992 345.428 335.005 345.49 335.03C345.552 335.052 345.608 335.087 345.656 335.131C345.704 335.175 345.743 335.229 345.77 335.289C345.797 335.348 345.812 335.413 345.814 335.478C345.815 335.544 345.804 335.609 345.78 335.67C344.78 338.37 343.32 344.27 344.31 349.24C344.334 349.37 344.307 349.504 344.234 349.614C344.161 349.724 344.049 349.801 343.92 349.83L343.82 349.84Z" fill="black"/>
<path d="M392.56 372.54C392.427 372.556 392.294 372.518 392.189 372.436C392.084 372.353 392.016 372.233 392 372.1C391.984 371.967 392.021 371.834 392.104 371.729C392.187 371.624 392.307 371.556 392.44 371.54C396.83 370.37 424.32 364.98 434.01 364.15C434.143 364.138 434.275 364.179 434.377 364.265C434.479 364.35 434.543 364.472 434.555 364.605C434.567 364.738 434.526 364.87 434.44 364.972C434.355 365.074 434.233 365.138 434.1 365.15C424.45 365.97 397.1 371.35 392.69 372.5C392.651 372.524 392.606 372.538 392.56 372.54Z" fill="black"/>
<path d="M417.91 358.34C417.804 358.341 417.701 358.309 417.615 358.248C417.528 358.187 417.464 358.1 417.43 358C416.43 354.93 414.04 345.25 412.88 340.59L412.54 339.24C412.523 339.176 412.52 339.11 412.529 339.045C412.538 338.98 412.56 338.917 412.593 338.86C412.627 338.804 412.671 338.754 412.724 338.715C412.776 338.675 412.836 338.646 412.9 338.63C413.03 338.6 413.166 338.621 413.28 338.691C413.394 338.76 413.477 338.871 413.51 339L413.85 340.35C415 344.99 417.41 354.65 418.38 357.69C418.421 357.816 418.41 357.953 418.35 358.071C418.29 358.189 418.186 358.279 418.06 358.32C418.012 358.336 417.961 358.343 417.91 358.34Z" fill="black"/>
<path d="M330.66 390.95H330.61C330.479 390.937 330.358 390.874 330.274 390.772C330.19 390.671 330.149 390.541 330.16 390.41C330.32 388.59 337.63 382.49 344.22 380.61C344.286 380.592 344.354 380.586 344.422 380.595C344.49 380.603 344.555 380.624 344.615 380.657C344.674 380.691 344.726 380.736 344.768 380.789C344.81 380.843 344.842 380.904 344.86 380.97C344.878 381.036 344.884 381.104 344.875 381.172C344.867 381.24 344.846 381.305 344.813 381.365C344.779 381.424 344.734 381.476 344.681 381.518C344.627 381.561 344.566 381.592 344.5 381.61C337.87 383.5 331.26 389.36 331.16 390.54C331.137 390.656 331.074 390.76 330.983 390.834C330.892 390.909 330.778 390.95 330.66 390.95Z" fill="black"/>
<path d="M327.4 389.87C327.267 389.87 327.14 389.817 327.046 389.723C326.953 389.63 326.9 389.503 326.9 389.37C326.9 386.76 332.38 381.26 340.96 378.57C341.026 378.551 341.094 378.545 341.162 378.552C341.23 378.56 341.296 378.581 341.356 378.614C341.416 378.647 341.469 378.691 341.511 378.745C341.554 378.798 341.586 378.859 341.605 378.925C341.624 378.991 341.63 379.059 341.622 379.127C341.615 379.195 341.594 379.261 341.561 379.321C341.528 379.381 341.484 379.434 341.43 379.476C341.377 379.519 341.316 379.551 341.25 379.57C332.44 382.32 327.9 387.71 327.9 389.41C327.89 389.535 327.833 389.653 327.74 389.738C327.647 389.823 327.526 389.87 327.4 389.87Z" fill="black"/>
<path d="M362.81 388.97H319.96L302.72 338.61C301.823 336.343 300.291 334.382 298.308 332.963C296.325 331.544 293.975 330.727 291.54 330.61H218.36C213.72 330.61 211.15 334.2 212.66 338.61L230.42 390.49C232.36 395.49 232.59 399.67 237.64 399.67H362.81C364.229 399.67 365.59 399.106 366.593 398.103C367.596 397.1 368.16 395.739 368.16 394.32C368.16 392.901 367.596 391.54 366.593 390.537C365.59 389.534 364.229 388.97 362.81 388.97Z" fill="#F2AC30"/>
<path d="M316.18 390.4H231.08C230.947 390.4 230.82 390.347 230.726 390.253C230.633 390.16 230.58 390.033 230.58 389.9C230.583 389.768 230.636 389.642 230.729 389.549C230.823 389.456 230.948 389.402 231.08 389.4H316.18C316.313 389.4 316.44 389.453 316.534 389.546C316.627 389.64 316.68 389.767 316.68 389.9C316.68 390.033 316.627 390.16 316.534 390.253C316.44 390.347 316.313 390.4 316.18 390.4Z" fill="black"/>
<path d="M265.08 372.44C261.38 372.44 257.31 368.77 256.01 364.26C255.26 361.68 255.53 359.26 256.75 357.65C257.193 357.061 257.769 356.587 258.432 356.265C259.094 355.943 259.824 355.784 260.56 355.8C264.26 355.8 268.32 359.47 269.62 363.98C270.37 366.56 270.1 368.98 268.88 370.59C268.439 371.178 267.865 371.653 267.204 371.975C266.543 372.297 265.815 372.456 265.08 372.44ZM260.56 356.8C259.98 356.782 259.404 356.905 258.882 357.157C258.36 357.409 257.906 357.784 257.56 358.25C256.56 359.61 256.32 361.7 256.98 363.98C258.17 368.09 261.8 371.44 265.09 371.44C265.67 371.458 266.246 371.335 266.768 371.083C267.29 370.83 267.744 370.455 268.09 369.99C269.09 368.63 269.33 366.54 268.67 364.26C267.51 360.15 263.87 356.8 260.59 356.8H260.56Z" fill="black"/>
</g>
<defs>
<clipPath id="clip0_112_65">
<rect width="548.8" height="408.46" fill="white"/>
</clipPath>
</defs>
</svg>
