<svg width="81" height="81" viewBox="0 0 81 81" fill="none" xmlns="http://www.w3.org/2000/svg">
<mask id="mask0_41_1534" style="mask-type:luminance" maskUnits="userSpaceOnUse" x="0" y="0" width="81" height="81">
<path d="M80.36 0H0V80.36H80.36V0Z" fill="white"/>
</mask>
<g mask="url(#mask0_41_1534)">
<path d="M35.059 63.3212C35.059 63.6542 34.9267 63.9736 34.6912 64.209C34.4557 64.4445 34.1364 64.5768 33.8033 64.5768C33.4703 64.5768 33.151 64.4445 32.9155 64.209C32.68 63.9736 32.5477 63.6542 32.5477 63.3212C32.5477 62.9882 32.68 62.6688 32.9155 62.4333C33.151 62.1978 33.4703 62.0656 33.8033 62.0656C34.1364 62.0656 34.4557 62.1978 34.6912 62.4333C34.9267 62.6688 35.059 62.9882 35.059 63.3212Z" fill="black"/>
<path d="M47.4316 63.3212C47.4316 63.6507 47.3022 63.967 47.0711 64.2019C46.84 64.4368 46.5258 64.5715 46.1964 64.5768C45.8652 64.5793 45.5465 64.451 45.3096 64.2196C45.0727 63.9883 44.9367 63.6727 44.9313 63.3416V63.3212C44.9367 62.9901 45.0727 62.6745 45.3096 62.4432C45.5465 62.2118 45.8652 62.0834 46.1964 62.086C46.5223 62.0912 46.8335 62.2231 47.064 62.4536C47.2945 62.6841 47.4263 62.9952 47.4316 63.3212Z" fill="black"/>
<path d="M24.2794 36.9829C24.7806 36.9827 25.277 37.0812 25.7401 37.2729C26.2032 37.4646 26.624 37.7456 26.9784 38.0999C27.3329 38.4542 27.6141 38.8749 27.8059 39.3379C27.9978 39.801 28.0965 40.2972 28.0965 40.7984" stroke="black" stroke-width="2.3543" stroke-linecap="round" stroke-linejoin="round"/>
<path d="M55.7109 36.9829C55.2098 36.9827 54.7135 37.0813 54.2505 37.2729C53.7875 37.4646 53.3668 37.7456 53.0124 38.1C52.6581 38.4543 52.377 38.875 52.1854 39.3381C51.9937 39.8011 51.8951 40.2973 51.8953 40.7984" stroke="black" stroke-width="2.3543" stroke-linecap="round" stroke-linejoin="round"/>
<path d="M46.0567 56.9301C42.1608 58.4589 37.8311 58.4589 33.9352 56.9301C33.24 56.657 32.4956 56.5314 31.7492 56.5613C31.0029 56.5912 30.2709 56.7759 29.5997 57.1037C28.9285 57.4314 28.3328 57.8951 27.8503 58.4653C27.3678 59.0356 27.0091 59.6998 26.797 60.416L24.7676 67.2686C24.5906 67.8635 24.5712 68.4943 24.7114 69.0989C24.8515 69.7036 25.1463 70.2616 25.5668 70.7181C25.9874 71.1746 26.5194 71.514 27.1106 71.7031C27.7018 71.8921 28.332 71.9244 28.9394 71.7967C36.2308 70.2648 43.7611 70.2648 51.0525 71.7967C51.6594 71.924 52.289 71.8917 52.8797 71.7028C53.4704 71.5139 54.0019 71.175 54.4223 70.7191C54.8428 70.2632 55.1377 69.7061 55.2783 69.1021C55.4188 68.4981 55.4003 67.868 55.2243 67.2733L53.1949 60.4207C52.9833 59.7041 52.625 59.0393 52.1427 58.4686C51.6605 57.8979 51.0648 57.4336 50.3936 57.1054C49.7223 56.7772 48.9901 56.5921 48.2436 56.5619C47.497 56.5317 46.7522 56.6571 46.0567 56.9301Z" stroke="black" stroke-width="2.3543" stroke-linecap="round" stroke-linejoin="round"/>
<path d="M57.2506 49.3853L59.8544 41.1359C60.7797 38.2042 60.9714 35.0902 60.4126 32.0672C59.8538 29.0442 58.5616 26.2045 56.6495 23.7973L53.2467 19.514C52.3943 18.4382 51.3099 17.5688 50.0744 16.9709C48.8388 16.373 47.4842 16.062 46.1116 16.061H33.8803C32.5076 16.0614 31.1528 16.3722 29.9172 16.9701C28.6816 17.5681 27.5972 18.4377 26.7452 19.514L23.3424 23.7973C21.4303 26.2045 20.1381 29.0442 19.5793 32.0672C19.0205 35.0902 19.2122 38.2042 20.1375 41.1359L26.5192 61.353" stroke="black" stroke-width="2.3543" stroke-linecap="round" stroke-linejoin="round"/>
<path d="M53.4727 61.353L55.5759 54.6888" stroke="black" stroke-width="2.3543" stroke-linecap="round" stroke-linejoin="round"/>
<path d="M30.5639 71.4828C31.65 74.388 35.4608 76.5335 39.9952 76.5335C44.5295 76.5335 48.3419 74.388 49.4265 71.4828" stroke="black" stroke-width="2.3543" stroke-linecap="round" stroke-linejoin="round"/>
<path d="M78.3984 29.9749L72.6885 22.7425C72.2193 22.1482 71.5768 21.7145 70.8502 21.5016C70.1235 21.2887 69.3486 21.3072 68.6328 21.5544L63.5585 23.306C61.4451 24.0355 59.2099 24.3468 56.9775 24.2226C59.4274 27.4964 60.7427 31.4798 60.724 35.5687C62.7558 36.6983 65.0317 37.3171 67.3557 37.3718C69.6798 37.4265 71.9823 36.9154 74.065 35.8827L77.4473 34.2033C77.8197 34.0192 78.1463 33.7542 78.4032 33.4277C78.66 33.1012 78.8406 32.7214 78.9318 32.316C79.023 31.9107 79.0224 31.4902 78.9301 31.0851C78.8378 30.6801 78.6562 30.3008 78.3984 29.9749Z" stroke="black" stroke-width="2.3543" stroke-linecap="round" stroke-linejoin="round"/>
<path d="M23.0144 24.2226C20.782 24.347 18.5468 24.0357 16.4334 23.306L11.3591 21.5544C10.6444 21.309 9.87113 21.2915 9.14606 21.5043C8.421 21.7171 7.77989 22.1498 7.31124 22.7425L1.60129 29.9749C1.34411 30.3001 1.16268 30.6785 1.07022 31.0826C0.977758 31.4867 0.976595 31.9063 1.06681 32.3109C1.15702 32.7155 1.33634 33.0949 1.59171 33.4215C1.84708 33.748 2.17207 34.0135 2.54301 34.1986L5.92377 35.878C8.00652 36.9105 10.309 37.4214 12.633 37.3667C14.957 37.312 17.2329 36.6934 19.2648 35.564" stroke="black" stroke-width="2.3543" stroke-linecap="round" stroke-linejoin="round"/>
<path d="M1.09278 32.4375L7.12448 27.1435C10.5618 24.0782 14.2596 27.0054 20.8406 27.9581" stroke="black" stroke-width="2.3543" stroke-linecap="round" stroke-linejoin="round"/>
<path d="M59.1513 27.9581C65.7323 27.0054 69.4286 24.0782 72.8674 27.1435L78.8991 32.4375" stroke="black" stroke-width="2.3543" stroke-linecap="round" stroke-linejoin="round"/>
<path d="M20.1107 10.9585C19.4411 10.4266 18.8013 9.85806 18.1943 9.25557C16.1006 7.17751 14.608 5.53264 13.5517 4.25504C12.8046 3.34628 11.3292 4.02432 11.5489 5.1842C12.4907 10.3888 15.2169 18.7842 23.0065 24.2305" stroke="black" stroke-width="2.3543" stroke-linecap="round" stroke-linejoin="round"/>
<path d="M33.8771 16.0784C30.7385 15.9353 27.6578 15.1825 24.8068 13.8622" stroke="black" stroke-width="2.3543" stroke-linecap="round" stroke-linejoin="round"/>
<path d="M56.9822 24.2305C64.7749 18.7842 67.498 10.3888 68.4492 5.1842C68.661 4.02432 67.1935 3.34628 66.4386 4.25504C65.3839 5.53264 63.8944 7.17751 61.7975 9.25557C55.8804 15.1178 48.819 15.97 46.1132 16.0705" stroke="black" stroke-width="2.3543" stroke-linecap="round" stroke-linejoin="round"/>
</g>
</svg>
