<svg width="15" height="15" viewBox="0 0 15 15" fill="none" xmlns="http://www.w3.org/2000/svg">
<path d="M10.3577 10.9897C10.235 10.9897 10.1172 10.9398 10.0304 10.8509C9.94365 10.7621 9.8949 10.6416 9.8949 10.516C9.89648 9.93326 9.7064 9.36693 9.35528 8.90819C9.00416 8.44945 8.51243 8.12499 7.95924 7.98706C7.86485 7.96339 7.78014 7.90992 7.71711 7.83422C7.65408 7.75852 7.61593 7.66443 7.60807 7.5653C7.60021 7.46616 7.62304 7.36701 7.67332 7.2819C7.7236 7.19679 7.79878 7.13003 7.8882 7.0911C8.18362 6.96382 8.4269 6.73584 8.57678 6.44585C8.72665 6.15586 8.77387 5.82173 8.71044 5.50016C8.647 5.17859 8.47681 4.88939 8.22875 4.68164C7.98068 4.47389 7.67003 4.36038 7.34951 4.36038C7.02898 4.36038 6.71833 4.47389 6.47026 4.68164C6.2222 4.88939 6.05201 5.17859 5.98857 5.50016C5.92514 5.82173 5.97236 6.15586 6.12223 6.44585C6.27211 6.73584 6.51539 6.96382 6.81081 7.0911C6.90023 7.13003 6.97541 7.19679 7.02569 7.2819C7.07598 7.36701 7.0988 7.46616 7.09094 7.5653C7.08308 7.66443 7.04493 7.75852 6.9819 7.83422C6.91887 7.90992 6.83416 7.96339 6.73977 7.98706C6.18658 8.12499 5.69485 8.44945 5.34373 8.90819C4.99261 9.36693 4.80253 9.93326 4.80412 10.516C4.80412 10.6416 4.75536 10.7621 4.66856 10.8509C4.58177 10.9398 4.46406 10.9897 4.34132 10.9897C4.21858 10.9897 4.10086 10.9398 4.01407 10.8509C3.92728 10.7621 3.87852 10.6416 3.87852 10.516C3.87708 9.88128 4.04233 9.25782 4.35696 8.71085C4.67159 8.16388 5.12405 7.71349 5.667 7.40681C5.35668 7.07043 5.14941 6.64839 5.07079 6.19281C4.99217 5.73723 5.04563 5.26805 5.22458 4.84322C5.40353 4.41838 5.70013 4.05649 6.07775 3.80223C6.45538 3.54797 6.89749 3.41248 7.34951 3.41248C7.80152 3.41248 8.24363 3.54797 8.62126 3.80223C8.99888 4.05649 9.29548 4.41838 9.47443 4.84322C9.65338 5.26805 9.70684 5.73723 9.62822 6.19281C9.5496 6.64839 9.34233 7.07043 9.03201 7.40681C9.57496 7.71349 10.0274 8.16388 10.3421 8.71085C10.6567 9.25782 10.8219 9.88128 10.8205 10.516C10.8205 10.6416 10.7717 10.7621 10.6849 10.8509C10.5981 10.9398 10.4804 10.9897 10.3577 10.9897Z" fill="black"/>
<path d="M7.34951 14.7791C6.34268 14.7783 5.34807 14.5534 4.43467 14.1199C3.52126 13.6863 2.71092 13.0547 2.05984 12.2686C1.40876 11.4826 0.932521 10.561 0.66416 9.56782C0.395799 8.57461 0.341735 7.53354 0.505718 6.51681C0.669701 5.50008 1.04781 4.53202 1.61381 3.67978C2.17981 2.82754 2.92017 2.11151 3.78353 1.58135C4.64689 1.05119 5.6126 0.719585 6.61367 0.609539C7.61474 0.499493 8.62722 0.613638 9.58089 0.944057C9.63941 0.963243 9.69362 0.994166 9.74034 1.03502C9.78706 1.07588 9.82536 1.12585 9.85302 1.18202C9.88067 1.23819 9.89711 1.29943 9.90139 1.36218C9.90567 1.42492 9.8977 1.48791 9.87794 1.54747C9.85818 1.60702 9.82703 1.66195 9.7863 1.70906C9.74558 1.75616 9.6961 1.79449 9.64074 1.82181C9.58539 1.84913 9.52528 1.86489 9.46391 1.86818C9.40254 1.87147 9.34115 1.86222 9.28331 1.84096C7.99882 1.39596 6.60504 1.40872 5.32853 1.87715C4.05203 2.34559 2.96785 3.24216 2.25226 4.42113C1.53666 5.60009 1.23171 6.99212 1.38698 8.37094C1.54226 9.74975 2.14863 11.0343 3.10751 12.0157C4.0664 12.9971 5.32144 13.6177 6.66859 13.7767C8.01575 13.9356 9.37582 13.6235 10.5277 12.8911C11.6796 12.1586 12.5556 11.049 13.0133 9.74248C13.4709 8.43598 13.4834 7.00944 13.0486 5.69477C13.0279 5.63558 13.0188 5.57274 13.022 5.50993C13.0252 5.44712 13.0407 5.38559 13.0673 5.32894C13.094 5.27228 13.1315 5.22164 13.1775 5.17996C13.2235 5.13828 13.2772 5.10639 13.3354 5.08617C13.3936 5.06595 13.4551 5.05778 13.5164 5.06216C13.5777 5.06654 13.6376 5.08337 13.6924 5.11168C13.7473 5.13998 13.7961 5.17918 13.8361 5.227C13.876 5.27482 13.9062 5.3303 13.9249 5.3902C14.2785 6.45954 14.3782 7.59968 14.2158 8.71629C14.0533 9.83289 13.6335 10.8939 12.9909 11.8114C12.3483 12.7289 11.5015 13.4767 10.5205 13.9928C9.53946 14.5088 8.4525 14.7784 7.34951 14.7791Z" fill="black"/>
<path d="M11.9775 4.83195C11.8547 4.83195 11.737 4.78204 11.6502 4.69321C11.5635 4.60438 11.5147 4.4839 11.5147 4.35828V3.64776C11.5147 3.52214 11.5635 3.40166 11.6502 3.31283C11.737 3.224 11.8547 3.17409 11.9775 3.17409C12.1148 3.17409 12.249 3.13242 12.3632 3.05435C12.4773 2.97628 12.5663 2.86531 12.6188 2.73548C12.6714 2.60565 12.6851 2.46279 12.6583 2.32497C12.6316 2.18714 12.5654 2.06054 12.4684 1.96117C12.3713 1.86181 12.2476 1.79414 12.1129 1.76672C11.9783 1.73931 11.8387 1.75338 11.7118 1.80715C11.585 1.86093 11.4766 1.952 11.4003 2.06884C11.324 2.18568 11.2833 2.32305 11.2833 2.46358C11.2833 2.58921 11.2345 2.70969 11.1477 2.79852C11.061 2.88735 10.9432 2.93725 10.8205 2.93725C10.6978 2.93725 10.58 2.88735 10.4932 2.79852C10.4065 2.70969 10.3577 2.58921 10.3577 2.46358C10.3577 2.15612 10.4413 1.85473 10.5991 1.59309C10.7568 1.33145 10.9826 1.11986 11.2511 0.981976C11.5196 0.844091 11.8202 0.785341 12.1195 0.81229C12.4187 0.839239 12.7047 0.950825 12.9456 1.13458C13.1864 1.31833 13.3726 1.56702 13.4833 1.85284C13.594 2.13866 13.6249 2.45035 13.5724 2.75309C13.52 3.05583 13.3864 3.33768 13.1864 3.56715C12.9865 3.79663 12.7282 3.96467 12.4403 4.05252V4.35828C12.4403 4.4839 12.3915 4.60438 12.3047 4.69321C12.2179 4.78204 12.1002 4.83195 11.9775 4.83195ZM11.9775 6.25297C11.8547 6.25297 11.737 6.20307 11.6502 6.11424C11.5635 6.0254 11.5147 5.90492 11.5147 5.7793V5.54246C11.5147 5.41683 11.5635 5.29635 11.6502 5.20752C11.737 5.11869 11.8547 5.06879 11.9775 5.06879C12.1002 5.06879 12.2179 5.11869 12.3047 5.20752C12.3915 5.29635 12.4403 5.41683 12.4403 5.54246V5.7793C12.4403 5.90492 12.3915 6.0254 12.3047 6.11424C12.2179 6.20307 12.1002 6.25297 11.9775 6.25297Z" fill="black"/>
</svg>
