<svg width="155" height="80" viewBox="0 0 155 80" fill="none" xmlns="http://www.w3.org/2000/svg">
<g clip-path="url(#clip0_12_73)">
<mask id="mask0_12_73" style="mask-type:luminance" maskUnits="userSpaceOnUse" x="-16" y="-166" width="129" height="416">
<path d="M112.735 -165.978H-15.752V249.262H112.735V-165.978Z" fill="white"/>
</mask>
<g mask="url(#mask0_12_73)">
<path fill-rule="evenodd" clip-rule="evenodd" d="M71.9652 58.8454C72.0369 58.9675 72.1376 59.0684 72.2577 59.1384C72.3777 59.2084 72.5131 59.2452 72.6509 59.2452C72.7886 59.2452 72.924 59.2084 73.0441 59.1384C73.1641 59.0684 73.2649 58.9675 73.3365 58.8454L75.3256 56.2797V60.8852C75.3151 60.9953 75.3272 61.1065 75.3611 61.2114C75.3951 61.3163 75.4501 61.4126 75.5224 61.4938C75.5948 61.5751 75.683 61.6394 75.7811 61.6827C75.8792 61.7259 75.985 61.747 76.0916 61.7447C76.1946 61.7419 76.2959 61.7168 76.389 61.671C76.4821 61.6253 76.565 61.5599 76.6324 61.479C76.6999 61.3981 76.7503 61.3036 76.7806 61.2013C76.8108 61.0991 76.8202 60.9914 76.8082 60.8852V53.8294C76.8112 53.6626 76.7646 53.499 76.6746 53.3609C76.5846 53.2228 76.4556 53.117 76.3054 53.0579C76.1552 52.9989 75.9911 52.9896 75.8356 53.0312C75.6801 53.0729 75.5408 53.1635 75.4368 53.2906L72.7065 57.1392L70.0749 53.4317C69.9913 53.3015 69.8797 53.1932 69.7489 53.1153C69.6181 53.0374 69.4718 52.992 69.3213 52.9827C69.1182 53.0023 68.9301 53.1026 68.7966 53.2628C68.6631 53.423 68.5943 53.6306 68.6048 53.8422V60.8467C68.5927 60.9529 68.6021 61.0606 68.6324 61.1628C68.6626 61.2651 68.7131 61.3597 68.7805 61.4405C68.8479 61.5214 68.9308 61.5868 69.0239 61.6325C69.1171 61.6783 69.2183 61.7034 69.3213 61.7062C69.4331 61.7114 69.5447 61.693 69.6495 61.6522C69.7542 61.6113 69.8499 61.5488 69.9307 61.4685C70.0116 61.3881 70.0759 61.2916 70.1198 61.1847C70.1637 61.0779 70.1862 60.9629 70.1861 60.8467V56.1898L71.9652 58.8454ZM54.3229 54.5863H56.6332C56.9609 54.5863 57.2751 54.7214 57.5068 54.962C57.7385 55.2026 57.8687 55.5289 57.8687 55.8691C57.8687 56.2094 57.7385 56.5357 57.5068 56.7763C57.2751 57.0168 56.9609 57.152 56.6332 57.152H54.3229V54.5863ZM54.3229 58.6273H56.2008L58.0169 61.3213C58.0698 61.427 58.1435 61.52 58.2334 61.594C58.3232 61.6681 58.427 61.7217 58.5382 61.7513C58.6493 61.7808 58.7651 61.7857 58.8782 61.7656C58.9913 61.7455 59.099 61.7008 59.1943 61.6346C59.2896 61.5683 59.3703 61.4819 59.4313 61.381C59.4922 61.2801 59.532 61.167 59.548 61.049C59.564 60.9311 59.5558 60.8109 59.524 60.6965C59.4922 60.5821 59.4376 60.4759 59.3636 60.3848L57.7698 58.3707C58.334 58.1151 58.7952 57.6639 59.0746 57.0943C59.3539 56.5247 59.434 55.872 59.3013 55.2479C59.1685 54.6237 58.8311 54.0668 58.3467 53.6723C57.8623 53.2779 57.261 53.0704 56.6456 53.0853H53.4334C53.3382 53.0853 53.244 53.1049 53.1563 53.1431C53.0685 53.1813 52.989 53.2373 52.9223 53.3077C52.8556 53.3782 52.8031 53.4617 52.7678 53.5535C52.7325 53.6453 52.7152 53.7434 52.7168 53.8422V60.9108C52.7411 61.1125 52.8354 61.2981 52.9822 61.4327C53.1289 61.5672 53.3179 61.6415 53.5137 61.6415C53.7094 61.6415 53.8985 61.5672 54.0452 61.4327C54.192 61.2981 54.2863 61.1125 54.3106 60.9108V58.6273H54.3229ZM38.3361 58.5247L39.8434 55.4586L41.19 58.5247H38.3361ZM37.1007 61.27L37.6196 60.1796H42.0425L42.5737 61.27C43.0062 62.245 44.4516 61.4753 43.9575 60.5003L40.5847 53.5215C40.5196 53.3741 40.4152 53.2492 40.2838 53.1616C40.1524 53.0741 39.9995 53.0275 39.8434 53.0275C39.6873 53.0275 39.5344 53.0741 39.403 53.1616C39.2716 53.2492 39.1672 53.3741 39.1021 53.5215L35.6428 60.5003C35.5903 60.6043 35.5585 60.7182 35.5494 60.8353C35.5403 60.9523 35.554 61.0701 35.5898 61.1815C35.6255 61.2929 35.6826 61.3957 35.7575 61.4836C35.8325 61.5716 35.9237 61.6429 36.0258 61.6934C36.2154 61.7665 36.4234 61.7695 36.6148 61.7017C36.8061 61.6339 36.969 61.4995 37.076 61.3213L37.1007 61.27ZM26.3399 54.7017C26.4486 54.7034 26.5566 54.6829 26.6576 54.6412C26.7587 54.5996 26.8508 54.5377 26.9288 54.4591C27.0069 54.3804 27.0692 54.2866 27.1123 54.183C27.1554 54.0793 27.1784 53.9679 27.18 53.855C27.1809 53.7447 27.159 53.6354 27.1158 53.5347C27.0725 53.4339 27.0089 53.344 26.9292 53.271C26.8495 53.198 26.7557 53.1436 26.654 53.1116C26.5523 53.0795 26.4452 53.0706 26.3399 53.0853H22.1023C21.9964 53.0707 21.8887 53.0797 21.7864 53.1117C21.6841 53.1436 21.5895 53.1978 21.5089 53.2706C21.4283 53.3434 21.3635 53.4331 21.3188 53.5339C21.2742 53.6346 21.2506 53.7441 21.2498 53.855V60.9237C21.2526 61.0339 21.2774 61.1424 21.3227 61.2422C21.368 61.342 21.4327 61.4309 21.5129 61.5033C21.5931 61.5757 21.6869 61.63 21.7884 61.6627C21.8898 61.6954 21.9967 61.7059 22.1023 61.6934C22.199 61.6953 22.2951 61.6765 22.3845 61.6381C22.4739 61.5998 22.5547 61.5427 22.6219 61.4705C22.6892 61.3983 22.7413 61.3124 22.7752 61.2184C22.8091 61.1243 22.8239 61.024 22.8188 60.9237V58.3579H25.8704C26.0783 58.3695 26.2827 58.2994 26.4429 58.1615C26.6032 58.0236 26.7076 57.8281 26.7352 57.6138C26.7178 57.3829 26.6208 57.1662 26.4619 57.0036C26.3031 56.841 26.093 56.7434 25.8704 56.7287H22.8188V54.7017H26.3399Z" fill="#121B3B"/>
</g>
<mask id="mask1_12_73" style="mask-type:luminance" maskUnits="userSpaceOnUse" x="-16" y="-166" width="129" height="416">
<path d="M112.735 -165.978H-15.752V249.262H112.735V-165.978Z" fill="white"/>
</mask>
<g mask="url(#mask1_12_73)">
<path fill-rule="evenodd" clip-rule="evenodd" d="M97.9097 14.4965C97.9506 14.2925 97.9467 14.0816 97.8982 13.8793C97.8498 13.6771 97.758 13.4889 97.6298 13.3286C97.5015 13.1683 97.3401 13.0401 97.1576 12.9536C96.975 12.8671 96.776 12.8244 96.5754 12.8288C96.1241 12.8544 95.6928 13.0305 95.3456 13.331C94.9984 13.6314 94.7538 14.0402 94.6481 14.4965C94.6047 14.7008 94.6068 14.9127 94.6543 15.1159C94.7018 15.3192 94.7934 15.5086 94.9221 15.6695C95.0509 15.8304 95.2133 15.9586 95.3971 16.0444C95.5808 16.1301 95.781 16.1711 95.9824 16.1642C96.4405 16.1632 96.8839 15.996 97.2358 15.6915C97.5878 15.3869 97.8261 14.9642 97.9097 14.4965ZM94.2033 34.9455L95.9082 24.798C96.1183 22.8352 95.4388 21.5523 93.8203 21.5523C92.6715 21.6971 91.613 22.2718 90.8429 23.1687V24.3105C91.3303 23.7609 91.9686 23.3803 92.6714 23.22C93.2767 23.22 93.3632 24.0796 93.1779 25.2213L91.4359 35.3304C91.1147 37.2419 91.8065 38.6658 93.4126 38.6658C94.5661 38.466 95.6179 37.8587 96.3901 36.9468V35.8435C95.8837 36.3666 95.2458 36.7312 94.5493 36.8955C93.9562 36.9468 93.8698 36.036 94.0921 34.9455H94.2033ZM84.6409 16.4208L81.4287 35.2791C81.1569 37.1905 81.7994 38.6145 83.4055 38.6145C84.5672 38.4306 85.6343 37.8426 86.4323 36.9468V35.8435C85.9116 36.3464 85.2793 36.7078 84.5915 36.8955C83.9491 36.8955 83.8996 36.036 84.085 34.9455L88.4955 8.58246L83.0842 9.77553L82.9483 10.7762C85.1845 10.789 85.4687 11.5972 84.6409 16.4208ZM75.9927 22.6684C75.6404 22.2593 75.2079 21.9332 74.7242 21.7119C74.2405 21.4906 73.7168 21.3794 73.1883 21.3855C70.3961 21.3855 67.5422 24.2848 67.011 27.864C66.7635 28.8671 66.7858 29.9215 67.0755 30.9123C67.3652 31.903 67.9113 32.7923 68.6542 33.483C66.4921 34.1116 64.7131 35.5869 64.3918 37.3317C63.9224 40.0513 66.3562 41.2829 69.8525 41.7191C73.3489 42.1553 75.4986 43.002 75.0909 45.4779C74.6832 47.9539 71.7428 49.1469 69.0866 49.1469C66.4303 49.1469 63.7618 48.0052 64.1447 45.7088C64.4847 44.4562 65.231 43.364 66.2574 42.6171L65.4667 42.0783C63.2182 43.1687 62.1557 44.5542 61.9333 45.9269C61.4762 48.4927 64.0459 50.7377 68.7777 50.7377C73.0029 50.7377 76.8576 48.4542 77.5 44.644C77.9571 41.9243 76.4004 39.0635 70.6185 38.5376C69.1483 38.4349 66.7639 37.9603 66.9986 36.6261C67.2334 35.2919 69.4696 34.3297 71.0756 34.3297C73.9666 34.3297 76.6722 31.238 77.2529 27.9154C77.5897 26.409 77.3599 24.8258 76.6105 23.4895C76.9039 23.2597 77.2566 23.1257 77.6235 23.1046C79.3285 23.1046 77.8953 25.0161 79.6868 25.0161C80.0376 24.9771 80.365 24.8146 80.6145 24.5555C80.864 24.2964 81.0206 23.9564 81.0581 23.5921C81.1006 23.3051 81.0783 23.0118 80.9929 22.7353C80.9076 22.4589 80.7614 22.2068 80.5661 21.999C80.3708 21.7912 80.1317 21.6334 79.8676 21.5381C79.6035 21.4428 79.3216 21.4125 79.0443 21.4497C77.9468 21.5298 76.8933 21.93 76.0051 22.6043L75.9927 22.6684ZM74.7573 27.864C74.3002 30.6351 73.0524 32.8159 71.2733 32.8159C69.4943 32.8159 68.9877 30.5324 69.4943 27.7999C70.0008 25.0674 71.1498 22.8352 72.9782 22.8352C74.8067 22.8352 75.2762 24.9904 74.7696 27.7999L74.7573 27.864ZM54.4835 33.9834C55.8266 31.8213 56.7616 29.4138 57.2386 26.8891C57.8316 23.3098 57.0532 21.3214 55.8672 21.3214C54.6812 21.3214 52.8898 23.5664 52.1608 27.3637C51.618 29.9116 51.7116 32.5612 52.4326 35.061C52.0517 35.606 51.5643 36.0614 51.0023 36.3975C50.4403 36.7335 49.8162 36.9425 49.171 37.0109C47.7997 37.0109 46.7001 35.5869 47.1573 32.4311C47.9356 27.9025 49.6282 23.9513 50.0482 21.2829H49.2205C47.985 22.1424 47.6514 21.4753 46.0454 21.4753C44.8989 21.6279 43.8428 22.2013 43.0679 23.0918V24.2335C43.5662 23.6917 44.206 23.3128 44.9087 23.1431C45.9468 23.2166 46.9539 23.5418 47.8491 24.0924C47.5773 25.9013 45.057 29.7114 44.5505 32.8159C43.908 36.5748 45.4153 38.7685 48.3556 38.7685C49.2457 38.6646 50.1064 38.3746 50.8856 37.916C51.6649 37.4574 52.3466 36.8397 52.8898 36.1001C53.3 36.9075 53.9152 37.583 54.6687 38.0533C55.4222 38.5237 56.2853 38.771 57.1644 38.7685C59.7342 38.7685 62.6251 35.4843 63.5517 29.9936C64.6019 23.7075 63.1811 21.2316 62.131 21.2316C61.863 21.1985 61.5931 21.2751 61.3786 21.4451C61.1641 21.6152 61.0219 21.8653 60.982 22.1424C60.6608 24.0411 63.1934 24.0026 62.2174 30.0064C61.3897 34.7787 59.3759 37.0109 57.6216 37.0109C56.2749 37.0366 55.1259 35.9975 54.4835 33.9834ZM54.2117 32.3669C54.0048 30.4719 54.0798 28.5551 54.4341 26.6838C54.8047 24.4901 55.3977 23.297 55.7684 23.297C56.139 23.297 56.4108 24.4388 56.0031 26.9147C55.6705 28.8145 55.0667 30.6522 54.2117 32.3669ZM37.0389 30.0321C36.347 34.0347 34.568 37.3188 31.8006 37.3188C29.0332 37.3188 28.3537 34.0347 29.0455 30.0321C29.7374 26.0295 31.5658 22.8352 34.3209 22.8352C37.076 22.8352 37.7307 26.0295 37.0389 30.0321ZM39.9793 30.0321C40.807 25.2213 38.3732 21.3086 34.568 21.3086C30.7628 21.3086 26.9452 25.1572 26.0804 30.0321C25.2156 34.907 27.7359 38.807 31.5905 38.807C35.4452 38.807 39.1515 34.8557 39.9793 30.0321ZM13.2194 25.7088C13.2194 23.0404 12.441 21.3214 10.0566 21.3214C8.07987 21.3214 6.01666 22.9891 4.86769 25.17L4.95417 24.7467C5.25068 22.8352 4.58353 21.5523 2.97744 21.5523C1.82795 21.6948 0.768643 22.2699 0 23.1687V24.3105C0.490186 23.758 1.13335 23.377 1.84083 23.22C2.43384 23.22 2.53268 24.0796 2.34736 25.2213L0.148254 38.0501H2.77977L4.01522 30.9429C4.84298 25.8115 7.31388 23.6049 8.83349 23.6049C10.8102 23.6049 10.9955 25.17 10.4025 28.7364L8.83349 38.0757H11.3044L12.5399 30.9686C13.3676 25.8371 15.8879 23.6306 17.3581 23.6306C19.3348 23.6306 19.5572 25.1957 18.9148 28.7621L17.8152 35.3817C17.494 37.2932 18.1859 38.7172 19.792 38.7172C20.9478 38.5008 21.9956 37.8752 22.7571 36.9468V35.8435C22.2537 36.364 21.6205 36.7283 20.9286 36.8955C20.3232 36.8955 20.2367 36.036 20.4715 34.9455L21.5216 28.4157C22.2135 24.3618 21.8428 21.3214 18.6306 21.3214C16.6663 21.3214 14.4177 23.0276 13.2194 25.7088Z" fill="#121B3B"/>
</g>
<mask id="mask2_12_73" style="mask-type:luminance" maskUnits="userSpaceOnUse" x="-16" y="-166" width="129" height="416">
<path d="M112.735 -165.978H-15.752V249.262H112.735V-165.978Z" fill="white"/>
</mask>
<g mask="url(#mask2_12_73)">
<path fill-rule="evenodd" clip-rule="evenodd" d="M100.455 38.5632V35.9205H100.751L101.777 37.5369L102.852 35.9205H103.148V38.5632H102.852V36.4978L101.838 38.0629L100.825 36.4978V38.5632H100.455ZM98.5521 38.5632V36.2284H97.4773V35.9205H99.9482V36.2284H98.8734V38.5632H98.5521Z" fill="#121B3B"/>
</g>
<path fill-rule="evenodd" clip-rule="evenodd" d="M9.48828 75.7921H10.8473L11.1438 74.1501H9.78479L9.48828 75.7921ZM9.90833 73.3932H11.2673L11.5638 71.6613H12.268L11.9715 73.3932H12.6634V74.1501H11.7986L11.5144 75.8435H12.6634V76.549H11.4279L11.1314 78.2809H10.4272L10.7237 76.549H9.36473L9.06822 78.2809H8.36401L8.64817 76.549H7.91925V75.8435H8.77171L9.08058 74.1501H7.94396V73.4445H9.17941L9.46357 71.7126H10.1925L9.90833 73.3932ZM89.0391 71.7896C89.0442 71.9025 89.0271 72.0153 88.9889 72.1212C88.9507 72.2271 88.8921 72.3237 88.8167 72.4054C88.7498 72.4783 88.6693 72.5364 88.5801 72.5761C88.4909 72.6158 88.3949 72.6363 88.2979 72.6363C88.2006 72.6378 88.1041 72.6181 88.0147 72.5783C87.9253 72.5385 87.845 72.4796 87.779 72.4054C87.7018 72.3251 87.642 72.2287 87.6036 72.1225C87.5653 72.0163 87.5492 71.9028 87.5566 71.7896C87.55 71.6765 87.5664 71.5632 87.6047 71.4571C87.643 71.3511 87.7024 71.2545 87.779 71.1738C87.9175 71.0328 88.1038 70.9538 88.2979 70.9538C88.4919 70.9538 88.6782 71.0328 88.8167 71.1738C88.8946 71.2535 88.9548 71.3499 88.9933 71.4563C89.0317 71.5626 89.0473 71.6763 89.0391 71.7896ZM88.928 78.204H87.6925V73.2392H88.928V78.204ZM82.4789 78.204V71.0968L83.7143 70.8659V73.2521L84.0355 73.1623C84.163 73.1506 84.2911 73.1506 84.4185 73.1623C84.7232 73.1497 85.0268 73.2067 85.3081 73.329C85.5295 73.435 85.7241 73.5932 85.8764 73.7909C86.0218 74.0066 86.1228 74.2512 86.1729 74.5093C86.2352 74.8171 86.2642 75.1312 86.2594 75.4458V78.2681H85.0239V75.5741C85.0477 75.2457 84.9969 74.9162 84.8756 74.6119C84.815 74.5152 84.7299 74.4378 84.6296 74.388C84.5294 74.3382 84.4179 74.318 84.3073 74.3297C84.2048 74.3163 84.101 74.3163 83.9985 74.3297H83.739V78.1783L82.4789 78.204ZM79.3779 77.2161C79.5459 77.2257 79.7141 77.1995 79.8721 77.1392C79.9181 77.1072 79.955 77.0629 79.979 77.011C80.0029 76.9591 80.0129 76.9014 80.008 76.8441C80.0053 76.7822 79.9867 76.7222 79.9541 76.6703C79.9215 76.6184 79.8761 76.5765 79.8227 76.549C79.6457 76.4346 79.4597 76.3359 79.2667 76.254C79.0842 76.1812 78.9067 76.0955 78.7355 75.9974C78.5827 75.9158 78.4447 75.8073 78.3278 75.6767C78.2159 75.5493 78.1279 75.4014 78.0683 75.2405C78.0039 75.0424 77.9746 74.8337 77.9818 74.6247C77.9706 74.4148 78.006 74.2049 78.0852 74.0114C78.1645 73.8179 78.2855 73.6459 78.4389 73.5086C78.7917 73.2257 79.229 73.0805 79.6744 73.0981C79.9316 73.0961 80.1883 73.1219 80.4404 73.1751C80.6397 73.2127 80.8344 73.2729 81.021 73.3547L80.7987 74.458L80.3292 74.304C80.1407 74.2766 79.9494 74.2766 79.7609 74.304C79.3655 74.304 79.1802 74.4323 79.1802 74.6761C79.1682 74.7266 79.1682 74.7794 79.1802 74.83C79.1979 74.8833 79.2328 74.9287 79.279 74.9583C79.3394 75.0096 79.4058 75.0527 79.4767 75.0866L79.8103 75.2405C80.045 75.3378 80.2722 75.4536 80.4898 75.5869C80.6493 75.6796 80.7916 75.8013 80.9098 75.9461C81.0105 76.0752 81.086 76.2233 81.1322 76.3823C81.1594 76.5651 81.1594 76.7511 81.1322 76.9339C81.1463 77.148 81.1085 77.3624 81.0222 77.5574C80.9358 77.7524 80.8037 77.9217 80.638 78.05C80.2296 78.3315 79.7437 78.4667 79.2543 78.4349C78.9255 78.4415 78.5973 78.4027 78.2783 78.3194C78.0965 78.2706 77.9188 78.2062 77.7471 78.127L77.9571 76.9852C78.1708 77.0756 78.3894 77.1527 78.6119 77.2161C78.8666 77.2421 79.1232 77.2421 79.3779 77.2161ZM75.6715 75.2277C75.6835 75.1126 75.6835 74.9964 75.6715 74.8813C75.6372 74.7716 75.5872 74.6678 75.5233 74.5734C75.4572 74.4877 75.3779 74.414 75.2885 74.3553C75.1755 74.29 75.0471 74.2589 74.9179 74.2655C74.7944 74.2622 74.6717 74.2886 74.5596 74.3425C74.4648 74.3929 74.3807 74.4628 74.3125 74.5478C74.2439 74.6392 74.1935 74.7438 74.1643 74.8557C74.1282 74.9734 74.0993 75.0934 74.0778 75.2149H75.6715V75.2277ZM72.7435 75.7793C72.7378 75.3829 72.7963 74.9882 72.9165 74.6119C73.0243 74.3073 73.1832 74.025 73.3859 73.778C73.5764 73.5639 73.8078 73.3935 74.0654 73.2777C74.3103 73.1647 74.5758 73.1078 74.8438 73.1109C75.1211 73.0983 75.3977 73.1492 75.6539 73.26C75.9101 73.3709 76.1397 73.539 76.3263 73.7524C76.7335 74.2971 76.9395 74.9751 76.907 75.6639C76.9126 75.7536 76.9126 75.8436 76.907 75.9333C76.9144 76.0186 76.9144 76.1045 76.907 76.1898H74.0284C74.0362 76.3254 74.0722 76.4575 74.1341 76.5772C74.196 76.6968 74.2821 76.801 74.3867 76.8826C74.6356 77.0639 74.9354 77.1541 75.2391 77.1392C75.4611 77.1588 75.6843 77.1588 75.9063 77.1392C76.0943 77.1045 76.2771 77.0441 76.4499 76.9596L76.6228 78.1013L76.351 78.2168L75.9804 78.3194H75.548C75.3917 78.3325 75.2347 78.3325 75.0785 78.3194C74.7224 78.3295 74.3684 78.2595 74.0407 78.1142C73.7603 77.9907 73.5109 77.8019 73.3118 77.5625C73.1131 77.3239 72.9657 77.044 72.8794 76.7415C72.8034 76.4269 72.7661 76.1036 72.7682 75.7793H72.7435ZM71.508 78.0628L71.1251 78.1783L70.6679 78.2681H70.1861H69.7166C69.3835 78.2703 69.0528 78.2094 68.7406 78.0885C68.4661 77.9785 68.2206 77.8027 68.0241 77.5753C67.8216 77.3374 67.67 77.0576 67.5793 76.7543C67.4721 76.406 67.4179 76.0424 67.4187 75.6767C67.4165 75.3043 67.4622 74.9333 67.5546 74.5734C67.6341 74.2743 67.7638 73.992 67.9376 73.7396C68.0987 73.5141 68.3109 73.3335 68.5553 73.2136C68.8196 73.0914 69.1062 73.0301 69.3954 73.034C69.5512 73.0127 69.7091 73.0127 69.8649 73.034L70.2849 73.1879V71.084L71.5204 70.8531V78.0628H71.508ZM68.6912 75.7023C68.675 76.072 68.7653 76.4383 68.9507 76.7543C69.0341 76.8839 69.1486 76.9888 69.2829 77.0585C69.4172 77.1282 69.5667 77.1605 69.7166 77.152H70.0255H70.2602V74.5863C70.1656 74.5216 70.0612 74.4739 69.9514 74.4451C69.8244 74.4256 69.6954 74.4256 69.5684 74.4451C69.0001 74.3297 68.7036 74.7915 68.7036 75.7023H68.6912ZM66.2944 71.7896C66.3026 72.0151 66.2275 72.2354 66.0844 72.4054C66.0161 72.4799 65.9336 72.5389 65.8421 72.5787C65.7507 72.6184 65.6523 72.638 65.5532 72.6363C65.4561 72.6363 65.3601 72.6158 65.2709 72.5761C65.1817 72.5364 65.1012 72.4783 65.0343 72.4054C64.9571 72.3251 64.8973 72.2287 64.8589 72.1225C64.8206 72.0163 64.8045 71.9028 64.8119 71.7896C64.8053 71.6765 64.8217 71.5632 64.86 71.4571C64.8983 71.3511 64.9577 71.2545 65.0343 71.1738C65.1018 71.1026 65.1827 71.0464 65.2719 71.0089C65.3612 70.9714 65.4569 70.9533 65.5532 70.9557C65.6512 70.9538 65.7486 70.9721 65.8398 71.0095C65.931 71.0469 66.0142 71.1028 66.0844 71.1738C66.2319 71.3418 66.3116 71.5623 66.3068 71.7896H66.2944ZM66.1832 78.204H64.9478V73.2392H66.1832V78.204ZM61.2414 78.204C60.9167 77.4801 60.628 76.7393 60.3766 75.9846C60.0801 75.1379 59.8083 74.2142 59.5365 73.2136H60.8461C60.8461 73.4573 60.9696 73.7267 61.0438 74.009C61.1179 74.2912 61.192 74.5862 61.2785 74.8813C61.365 75.1764 61.4391 75.4586 61.5256 75.7408C61.6121 76.0231 61.6862 76.2668 61.7727 76.4977L62.0074 75.7408C62.0939 75.4586 62.1804 75.1764 62.2545 74.8813C62.3286 74.5862 62.4151 74.304 62.4892 74.009C62.5634 73.7139 62.6375 73.4573 62.6869 73.2136H63.9224C63.6629 74.2142 63.3788 75.1379 63.0823 75.9846C62.8308 76.7393 62.5422 77.4801 62.2174 78.204H61.2414ZM57.6463 75.6382C57.6647 75.2814 57.5877 74.9262 57.4239 74.6119C57.3562 74.4953 57.2599 74.3994 57.1449 74.3341C57.0298 74.2687 56.9002 74.2362 56.7691 74.2399C56.6364 74.2365 56.5051 74.2691 56.3881 74.3343C56.2712 74.3995 56.1726 74.4952 56.1019 74.6119C55.9293 74.923 55.8477 75.2797 55.8672 75.6382C55.8475 76.0008 55.929 76.3617 56.1019 76.6773C56.1718 76.794 56.2692 76.8903 56.3848 76.957C56.5005 77.0237 56.6306 77.0588 56.7629 77.0588C56.8952 77.0588 57.0253 77.0237 57.141 76.957C57.2567 76.8903 57.354 76.794 57.4239 76.6773C57.5805 76.387 57.6654 76.0608 57.671 75.728L57.6463 75.6382ZM58.8817 75.6382C58.8863 76.0032 58.8363 76.3667 58.7335 76.7158C58.6423 77.0201 58.4955 77.3032 58.301 77.5497C58.112 77.7752 57.8809 77.9585 57.6215 78.0885C57.3426 78.2209 57.0387 78.2867 56.732 78.2809C56.4256 78.2841 56.1222 78.2185 55.8425 78.0885C55.5813 77.9618 55.3495 77.778 55.163 77.5497C54.9691 77.3008 54.8185 77.0186 54.7182 76.7158C54.6051 76.369 54.5508 76.0043 54.5576 75.6382C54.5588 75.2727 54.6129 74.9094 54.7182 74.5606C54.818 74.2587 54.9732 73.9799 55.1754 73.7396C55.3644 73.514 55.5955 73.3307 55.8549 73.2007C56.1267 73.0748 56.4221 73.0135 56.7197 73.0211C57.0207 73.0198 57.3189 73.0808 57.5968 73.2007C57.8602 73.3237 58.0927 73.5081 58.2763 73.7396C58.4746 73.9806 58.6257 74.2595 58.7211 74.5606C58.8656 74.9317 58.941 75.3278 58.9435 75.728L58.8817 75.6382ZM49.5664 73.3162C49.8334 73.232 50.1059 73.1677 50.3818 73.1238C50.7284 73.0604 51.08 73.0304 51.4319 73.034C51.7486 73.0215 52.0643 73.0783 52.3585 73.2007C52.5889 73.3033 52.7922 73.4617 52.9515 73.6626C53.101 73.8774 53.2062 74.122 53.2604 74.381C53.3607 74.7226 53.4188 75.0761 53.4334 75.4329V78.2553H52.1979V75.5869C52.2249 75.2572 52.1696 74.9258 52.0373 74.6247C51.9727 74.526 51.8832 74.4475 51.7787 74.3977C51.6742 74.348 51.5585 74.3289 51.4443 74.3425H51.1601H50.8883V78.1911H49.6529V73.406L49.5664 73.3162ZM48.2321 71.6998C48.2372 71.8127 48.2201 71.9255 48.1818 72.0314C48.1436 72.1373 48.0851 72.2339 48.0097 72.3156C47.9428 72.3885 47.8623 72.4466 47.7731 72.4863C47.6839 72.526 47.5879 72.5465 47.4908 72.5465C47.387 72.545 47.2845 72.5215 47.1897 72.4776C47.0948 72.4337 47.0096 72.3702 46.9391 72.291C46.8686 72.2118 46.8143 72.1186 46.7796 72.017C46.7449 71.9153 46.7305 71.8074 46.7372 71.6998C46.7306 71.5867 46.747 71.4734 46.7853 71.3673C46.8237 71.2613 46.883 71.1647 46.9596 71.084C47.0285 71.0111 47.1115 70.9541 47.203 70.9165C47.2945 70.8789 47.3925 70.8617 47.4908 70.8659C47.5873 70.8619 47.6834 70.8793 47.7729 70.9169C47.8624 70.9545 47.9431 71.0115 48.0097 71.084C48.1079 71.1695 48.1849 71.2782 48.2343 71.401C48.2837 71.5237 48.3042 71.657 48.2939 71.7896L48.2321 71.6998ZM48.1086 78.1142H46.8731V73.2392H48.1086V78.1142ZM43.7968 77.1007C43.9609 77.1123 44.1255 77.0861 44.2787 77.0237C44.3247 76.9917 44.3616 76.9474 44.3855 76.8955C44.4095 76.8436 44.4195 76.786 44.4146 76.7286C44.4119 76.6667 44.3933 76.6067 44.3607 76.5548C44.3281 76.5029 44.2827 76.4611 44.2292 76.4336C44.0522 76.3192 43.8663 76.2205 43.6733 76.1385C43.4907 76.0658 43.3132 75.98 43.142 75.882C42.9913 75.7971 42.8538 75.689 42.7343 75.5612C42.6225 75.4339 42.5345 75.2859 42.4749 75.1251C42.4105 74.9269 42.3812 74.7183 42.3884 74.5093C42.3772 74.2993 42.4126 74.0895 42.4918 73.896C42.5711 73.7024 42.6921 73.5304 42.8455 73.3932C43.1983 73.1103 43.6356 72.965 44.081 72.9827C44.3382 72.9806 44.5949 73.0064 44.847 73.0596C45.0498 73.0994 45.2484 73.1596 45.44 73.2392L45.2176 74.3425L44.7852 74.304C44.5967 74.2766 44.4054 74.2766 44.2169 74.304C43.8215 74.304 43.6239 74.4323 43.6239 74.6761C43.6179 74.7272 43.6179 74.7789 43.6239 74.83C43.6415 74.8833 43.6764 74.9287 43.7227 74.9583C43.7877 75.0094 43.8582 75.0524 43.9327 75.0866L44.2663 75.2405C44.501 75.3378 44.7282 75.4536 44.9458 75.5869C45.1031 75.683 45.2448 75.8043 45.3659 75.9461C45.4665 76.0752 45.542 76.2233 45.5882 76.3823C45.6093 76.5655 45.6093 76.7507 45.5882 76.9339C45.6023 77.148 45.5645 77.3624 45.4782 77.5574C45.3918 77.7524 45.2598 77.9217 45.0941 78.05C44.6856 78.3315 44.1996 78.4667 43.7103 78.4349C43.3815 78.4429 43.0531 78.4041 42.7343 78.3194C42.5486 78.27 42.3669 78.2056 42.1907 78.127L42.4008 76.9852C42.6144 77.0756 42.8331 77.1527 43.0555 77.2161C43.3226 77.2437 43.5916 77.2437 43.8586 77.2161L43.7968 77.1007ZM40.0905 75.1122C40.1022 74.9971 40.1022 74.881 40.0905 74.7659C40.0656 74.6548 40.0194 74.55 39.9546 74.458C39.8885 74.3722 39.8092 74.2985 39.7198 74.2399C39.6068 74.1745 39.4784 74.1434 39.3492 74.1501C39.2256 74.1468 39.103 74.1731 38.9909 74.227C38.8961 74.2775 38.812 74.3473 38.7438 74.4323C38.6799 74.5267 38.6299 74.6304 38.5956 74.7402C38.5579 74.8566 38.533 74.9771 38.5214 75.0994H40.1522L40.0905 75.1122ZM37.1501 75.6639C37.1422 75.2662 37.205 74.8704 37.3354 74.4964C37.4396 74.1901 37.599 73.9072 37.8049 73.6626C37.9931 73.4515 38.2199 73.2814 38.472 73.1623C38.7216 73.0505 38.9909 72.9937 39.2627 72.9955C39.5398 72.9846 39.8159 73.0363 40.0719 73.147C40.3278 73.2578 40.5576 73.4249 40.7453 73.6369C41.1393 74.1869 41.332 74.8644 41.2888 75.5484V75.8178C41.2888 75.9204 41.2888 75.9974 41.2888 76.0744H38.4967C38.5045 76.2099 38.5406 76.3421 38.6025 76.4617C38.6643 76.5813 38.7505 76.6855 38.855 76.7671C39.1039 76.9484 39.4038 77.0387 39.7075 77.0237C39.9336 77.0433 40.1609 77.0433 40.387 77.0237C40.5745 76.987 40.7571 76.9267 40.9306 76.8441L41.0788 77.9987C40.993 78.0483 40.9017 78.087 40.807 78.1142L40.4364 78.2168H39.9916C39.8354 78.2296 39.6784 78.2296 39.5222 78.2168C39.166 78.2268 38.812 78.1568 38.4844 78.0115C38.2058 77.8846 37.9571 77.6964 37.7555 77.4599C37.5832 77.2396 37.4531 76.987 37.3725 76.7158C37.2818 76.4118 37.2279 76.0972 37.2119 75.7793L37.1501 75.6639ZM35.9146 77.9474L35.5316 78.0628L35.0745 78.1526H34.5803H34.1109C33.7776 78.156 33.4467 78.0951 33.1349 77.973C32.8621 77.8598 32.6172 77.6844 32.4183 77.4599C32.2158 77.222 32.0642 76.9421 31.9735 76.6388C31.8646 76.2912 31.8145 75.9266 31.8253 75.5612C31.8231 75.1888 31.8688 74.8178 31.9612 74.458C32.0407 74.1588 32.1703 73.8765 32.3442 73.6241C32.5081 73.4014 32.7195 73.2214 32.9619 73.0981C33.2217 72.9758 33.5044 72.9144 33.7896 72.9185C33.9455 72.8973 34.1033 72.8973 34.2591 72.9185L34.6668 73.0725V71.084L35.9023 70.8531V78.0628L35.9146 77.9474ZM33.0978 75.5869C33.0816 75.9565 33.1719 76.3228 33.3572 76.6388C33.4407 76.7685 33.5552 76.8733 33.6895 76.9431C33.8238 77.0128 33.9733 77.045 34.1232 77.0365H34.4321H34.6668V74.4708C34.5747 74.4016 34.4694 74.3535 34.358 74.3297C34.231 74.3102 34.1019 74.3102 33.975 74.3297C33.4561 74.3297 33.1596 74.7915 33.1596 75.7023L33.0978 75.5869ZM31.2076 73.1238C30.9605 74.0859 30.6887 74.9839 30.4169 75.8306C30.1451 76.6773 29.8362 77.4855 29.515 78.2809C29.4122 78.5267 29.2967 78.7665 29.1691 78.9993C29.064 79.1835 28.9351 79.3518 28.7861 79.4997C28.6516 79.6287 28.4913 79.7251 28.3166 79.7819C28.117 79.8476 27.9082 79.878 27.6989 79.8717C27.5182 79.8924 27.3359 79.8924 27.1553 79.8717C27.0153 79.8383 26.8788 79.791 26.7476 79.7306L26.9576 78.6016C27.0685 78.6502 27.1847 78.6846 27.3035 78.7043C27.4102 78.7175 27.518 78.7175 27.6247 78.7043C27.7187 78.7125 27.8131 78.6982 27.9009 78.6626C27.9887 78.627 28.0675 78.5711 28.1313 78.499C28.2686 78.3335 28.3735 78.1418 28.4401 77.9346C28.156 77.2931 27.8718 76.6517 27.5877 75.805C27.2749 74.9352 27.0069 74.0487 26.7846 73.1494H28.1066C28.1683 73.3932 28.2301 73.6626 28.3042 73.9448C28.3784 74.227 28.4525 74.5221 28.5513 74.8172L28.8108 75.6767L29.0579 76.4336L29.2926 75.6767L29.515 74.8172L29.7374 73.9448C29.7991 73.6626 29.8609 73.3932 29.9227 73.1494H31.1581L31.2076 73.1238ZM26.2657 78.2553C25.9687 78.2608 25.6726 78.2175 25.3886 78.127C25.1885 78.0549 25.0068 77.9364 24.8573 77.7806C24.7279 77.627 24.6385 77.4415 24.5979 77.2418C24.5461 77.0062 24.5212 76.765 24.5237 76.5234V71.084L25.7592 70.8531V76.2925C25.746 76.4075 25.746 76.5238 25.7592 76.6388C25.7712 76.7316 25.8051 76.8197 25.858 76.8954C25.9096 76.9672 25.9775 77.0245 26.0557 77.0622C26.1679 77.1174 26.2899 77.148 26.414 77.152L26.2657 78.2553ZM19.3101 73.3419C19.5772 73.2576 19.8497 73.1933 20.1255 73.1494C20.4763 73.0856 20.832 73.0555 21.188 73.0596C21.5047 73.0472 21.8204 73.104 22.1146 73.2264C22.345 73.329 22.5483 73.4873 22.7076 73.6882C22.8571 73.9031 22.9623 74.1476 23.0165 74.4066C23.0788 74.7145 23.1078 75.0286 23.103 75.3431V78.1655H21.8675V75.5869C21.8945 75.2572 21.8392 74.9258 21.7069 74.6247C21.6423 74.526 21.5528 74.4475 21.4483 74.3977C21.3438 74.348 21.2281 74.3289 21.1139 74.3425H20.8297H20.5703V78.1911H19.3348V73.406L19.3101 73.3419ZM16.8392 75.6639C16.8609 75.3051 16.7792 74.9479 16.6045 74.6376C16.5359 74.5219 16.4394 74.4267 16.3246 74.3615C16.2098 74.2962 16.0806 74.2632 15.9497 74.2655C15.817 74.2622 15.6857 74.2947 15.5688 74.36C15.4518 74.4252 15.3532 74.5208 15.2826 74.6376C15.1079 74.9479 15.0261 75.3051 15.0478 75.6639C15.034 76.0259 15.1152 76.3851 15.2826 76.703C15.3524 76.8197 15.4498 76.9159 15.5654 76.9827C15.6811 77.0494 15.8112 77.0844 15.9435 77.0844C16.0758 77.0844 16.206 77.0494 16.3216 76.9827C16.4373 76.9159 16.5346 76.8197 16.6045 76.703C16.7528 76.4017 16.825 76.0662 16.8145 75.728L16.8392 75.6639ZM18.0747 75.6639C18.0792 76.0289 18.0292 76.3924 17.9264 76.7415C17.8353 77.0457 17.6885 77.3289 17.494 77.5753C17.3075 77.8037 17.0757 77.9875 16.8145 78.1142C16.5352 78.2453 16.2315 78.311 15.925 78.3066C15.6186 78.3098 15.3151 78.2441 15.0355 78.1142C14.7742 77.9875 14.5424 77.8037 14.356 77.5753C14.1589 77.3287 14.008 77.0458 13.9112 76.7415C13.7981 76.3946 13.7438 76.03 13.7506 75.6639C13.7457 75.2979 13.8 74.9336 13.9112 74.5863C14.0116 74.2875 14.1622 74.0095 14.356 73.7652C14.5468 73.5363 14.7827 73.3526 15.0478 73.2264C15.3196 73.1005 15.6151 73.0392 15.9126 73.0468C16.2136 73.0454 16.5118 73.1065 16.7898 73.2264C17.051 73.3531 17.2828 73.5369 17.4693 73.7652C17.6631 74.0095 17.8136 74.2875 17.9141 74.5863C18.032 74.9543 18.0904 75.3401 18.087 75.728L18.0747 75.6639Z" fill="#121B3B"/>
<path fill-rule="evenodd" clip-rule="evenodd" d="M115.811 19.7819C116.528 19.7819 116.837 20.3849 117.455 20.2566C119.456 19.8204 119.37 17.0237 120.716 16.1385L120.963 16.254C121.019 17.0528 120.894 17.8541 120.598 18.5937C120.302 19.3333 119.843 19.9906 119.258 20.5131C118.888 20.8467 117.776 21.3727 118.023 21.9243C118.146 22.0969 118.322 22.2204 118.522 22.2741C118.723 22.3278 118.934 22.3085 119.122 22.2194C120.803 22.0783 124.064 15.9461 127.499 19.6536C128.178 20.2951 127.227 22.8352 128.092 23.2842C129.946 23.8104 131.881 23.95 133.787 23.6947L137.951 23.4381L142.102 22.9634C144.783 23.3483 147.587 24.2463 148.514 26.5042C148.7 27.2176 148.82 27.9479 148.872 28.6851C149.355 30.1039 149.556 31.6093 149.465 33.111C149.177 34.1915 149.093 35.3199 149.218 36.4336C149.749 38.2938 150.281 40.1539 150.824 42.0013C150.994 42.9355 150.873 43.9015 150.478 44.7595V44.1308C150.33 45.17 149.959 45.1956 150.33 46.3631H150.231C150.132 46.0038 150.021 45.6446 149.935 45.2726C149.786 46.2604 150.206 46.4785 150.478 47.0943L149.873 46.4144C149.873 46.5683 149.873 46.7223 149.873 46.889C149.855 46.8531 149.834 46.8187 149.811 46.7864C149.811 46.6196 149.688 46.44 149.613 46.2733V47.1071L149.465 46.4785C149.465 46.6966 149.465 46.9019 149.366 47.1071C149.453 46.0139 149.656 44.934 149.972 43.8871L149.712 42.322C149.712 41.8217 149.712 41.3214 149.712 40.821L149.119 38.7428L148.563 36.5619C148.354 37.1388 148.266 37.7555 148.304 38.3708C148.588 39.0763 148.872 39.7563 149.156 40.449C149.008 41.9885 148.86 43.5407 148.699 45.0802C148.539 46.6196 149.008 47.7742 147.711 48.0436C147.781 48.1612 147.818 48.2967 147.818 48.4349C147.818 48.5731 147.781 48.7086 147.711 48.8262C146.763 49.155 145.732 49.1186 144.808 48.7235C145.351 48.018 146.673 47.5561 147.019 46.7479C147.148 46.1673 147.215 45.5735 147.217 44.9775C147.587 42.4118 146.055 41.3085 145.215 39.8461C144.56 38.6915 144.449 37.5369 143.164 37.0366L143.016 37.2547C142.868 37.7293 143.016 38.5375 142.868 38.9609L142.164 39.8076C142.04 40.1924 142.263 40.5773 142.065 40.9493L141.324 41.7191C140.693 42.6556 140.088 43.592 139.47 44.5285L138.457 46.6068L137.617 47.1199C137.432 47.4535 137.617 47.6074 137.358 47.7999C136.814 48.3002 135.196 47.7999 134.702 47.5433L134.899 47.2739C136.052 46.6251 137.046 45.7088 137.802 44.5963C138.559 43.4838 139.058 42.205 139.26 40.8595C139.174 40 139.087 39.1276 139.013 38.2938C137.444 38.653 136.209 39.5767 134.244 39.6536C131.872 39.8076 129.772 38.3707 127.338 38.6145C127.534 39.8377 127.666 41.0711 127.734 42.3092C127.915 43.2701 128.184 44.2108 128.537 45.1187C128.685 45.5035 128.981 46.517 128.685 46.9403L128.29 46.6196C128.413 46.9532 128.71 47.492 128.537 47.9025C128.203 48.5824 126.548 48.2874 125.831 48.1591C126.004 47.338 126.782 47.1584 126.98 46.5042C127.118 45.2944 126.93 44.0687 126.436 42.9634C126.103 42.5657 125.757 42.1681 125.436 41.7575C125.114 41.347 125.189 40.6158 124.929 40.1539H124.781C124.46 40.6543 124.361 41.347 124.027 41.9243L122.322 44.8877C121.285 47.5561 121.927 51.3021 118.122 49.6087V49.3521C119.172 47.941 120.407 47.1328 120.926 45.1443C121.136 44.3874 120.654 43.8615 120.84 43.0661C121.05 42.0526 121.655 40.7312 121.037 39.5767C119.53 39.1405 119.926 38.0757 119.036 37.4471C118.146 36.8185 117.257 37.075 116.689 36.3053C116.12 35.5356 115.75 34.5734 115.28 33.7396L112.624 31.7126L111.166 29.0571C110.178 28.2874 106.99 28.6209 107.571 26.2091C107.744 25.465 108.671 25.2085 109.165 24.7979L111.154 22.8351C111.549 22.245 111.636 21.5523 112.155 21.1674C112.673 20.7826 113.859 20.3977 114.205 19.7178C114.477 18.4349 113.983 16.177 114.564 15.0353H114.712C114.815 15.0762 114.915 15.1277 115.008 15.1892C115.492 16.6709 115.762 18.2184 115.811 19.7819Z" fill="#121B3B"/>
<path fill-rule="evenodd" clip-rule="evenodd" d="M145.845 2.50158C145.944 2.41178 146.043 2.50158 146.105 2.50158C146.167 2.50158 146.241 2.50158 146.278 2.50158C145.623 3.07887 145.784 3.88709 145.289 4.60549C145.512 5.22127 146.525 7.17124 146.216 7.95379C145.833 8.45412 145.462 8.96727 145.092 9.46759C144.721 10.3656 145.092 10.9557 144.165 10.9942L143.733 11.8537C143.702 12.693 143.815 13.5314 144.066 14.3297C145.079 14.5734 144.845 15.4971 145.092 16.549C145.265 17.3059 146.216 18.1783 145.969 19.1789C145.882 19.5125 144.585 19.7691 144.301 21.2572C144.437 21.8217 144.783 21.5523 144.993 21.9628C145.203 22.3733 144.783 22.245 144.647 22.3092C143.597 22.9378 143.745 23.592 142.658 23.592C142.522 23.592 142.51 23.4124 142.571 23.143C142.868 22.5786 143.164 22.0141 143.473 21.4625C143.782 20.9108 143.473 20 143.943 19.474C144.412 18.948 144.387 19.1789 144.635 18.7556C144.497 18.0831 144.2 17.4569 143.77 16.9339C143.288 17.152 142.967 16.78 142.398 17.1263C142.337 17.5369 141.867 17.8448 141.966 18.1398L142.547 17.8961C142.917 17.8961 142.991 18.2681 142.954 18.4477C142.04 19.102 142.744 20.7056 142.448 21.1161C142.67 21.3085 142.448 21.7062 142.151 21.9884C141.286 21.1802 141.941 20.526 141.373 19.4227C140.978 19.7691 140.743 20.0128 140.249 19.6279C140.249 19.6279 140.249 19.5638 140.249 19.5253C140.249 18.1142 141.188 17.3701 141.484 16.2796C141.669 15.5869 141.286 15.2533 141.917 14.9968C141.304 13.861 141.033 12.5608 141.138 11.2636C140.434 10.9172 138 9.18535 137.926 8.37714C138.568 7.31236 139.013 6.15777 139.73 5.18279C139.453 4.3976 139.033 3.67475 138.494 3.05322C138.494 2.95059 138.593 2.79664 138.791 2.89927C138.989 3.0019 139.248 2.89927 139.446 3.11736C139.784 3.31084 140.065 3.59768 140.257 3.94627C140.449 4.29486 140.544 4.69167 140.533 5.09299C140.001 6.13027 139.586 7.22802 139.297 8.36431C139.532 8.73635 140.965 9.77548 141.336 9.4291C141.459 8.86464 141.212 8.78766 140.842 8.56957C140.648 8.54298 140.465 8.46327 140.31 8.33866C140.187 8.23603 140.434 8.03077 140.409 7.86399C140.385 7.69722 140.409 7.79985 140.409 7.76136C140.409 7.72288 140.533 7.76136 140.496 7.68439C140.459 7.60742 140.496 7.58176 140.496 7.56893C140.496 7.5561 140.496 7.18407 140.496 7.0173C140.718 6.86335 141.151 6.76072 141.175 6.40152C141.175 6.40152 141.101 6.40152 140.829 6.58112C140.858 6.51033 140.904 6.44839 140.962 6.40122C141.021 6.35405 141.09 6.32324 141.163 6.31172C141.163 6.05514 140.903 6.46566 140.755 6.42718C140.755 6.42718 141.015 6.06797 141.101 6.02948C140.903 6.13211 140.669 6.2604 140.508 6.19626C140.78 6.19626 140.842 5.83705 141.113 5.84988C141.113 5.65745 141.113 5.65745 140.718 5.84988C140.842 5.72159 140.953 5.51633 141.138 5.56765C140.669 4.86207 142.052 5.04167 142.238 5.19562C142.954 5.93968 143.609 6.01666 144.103 6.70941C144.19 6.86335 144.177 7.27387 144.326 7.23539C144.361 7.20767 144.386 7.16866 144.397 7.12452C144.408 7.08037 144.405 7.03362 144.387 6.99164C144.403 7.03013 144.412 7.0716 144.412 7.11351C144.412 7.15542 144.403 7.1969 144.387 7.23539L144.61 7.04295C144.61 7.04295 144.486 7.33802 144.437 7.4663C144.622 7.31236 144.943 6.54263 144.82 6.33737C144.635 5.2341 144.437 4.61832 144.425 4.14366C144.449 3.45091 145.018 3.47657 145.845 2.50158Z" fill="#121B3B"/>
<path fill-rule="evenodd" clip-rule="evenodd" d="M146.747 48.313C146.737 48.2536 146.737 48.1928 146.747 48.1334C146.755 48.2059 146.755 48.279 146.747 48.3515V48.313ZM146.129 47.9666H146.043H146.302H146.129ZM145.808 48.2874C145.773 48.1965 145.748 48.1018 145.734 48.0051H145.919H146.018C145.924 48.0767 145.851 48.1746 145.808 48.2874ZM126.053 48.2489C126.055 48.2616 126.055 48.2746 126.053 48.2874V48.2489ZM125.46 48.2745C125.45 48.2151 125.45 48.1543 125.46 48.0949C125.469 48.1673 125.469 48.2406 125.46 48.313V48.2745ZM126.189 47.4407C126.208 47.5725 126.208 47.7065 126.189 47.8383H125.794L125.683 47.7614C125.819 47.6477 125.968 47.5528 126.127 47.4791L126.189 47.4407ZM128.055 47.5305C128.115 47.6252 128.161 47.7291 128.191 47.8383H127.857C127.894 47.7443 127.94 47.6541 127.993 47.5689L128.055 47.5305ZM129.08 47.8127H128.932L129.093 47.7229C129.056 47.7571 129.03 47.8017 129.018 47.8512L129.08 47.8127ZM130.155 47.7229C130.155 47.7229 130.155 47.7229 130.081 47.8127H130.007C130.018 47.7534 130.018 47.6924 130.007 47.6331L130.155 47.7229ZM133.071 47.1969L133.454 47.0045C133.657 47.1339 133.836 47.2989 133.985 47.492C133.831 47.5713 133.682 47.6613 133.54 47.7614L133.083 47.5818C133.077 47.5092 133.077 47.4362 133.083 47.3637L133.071 47.1969ZM133.194 47.787C133.166 47.7176 133.129 47.6528 133.083 47.5946L133.342 47.787H133.194ZM134.43 47.5561C134.598 47.4198 134.78 47.3036 134.973 47.2097C134.979 47.2823 134.979 47.3553 134.973 47.4278C134.98 47.5689 134.98 47.7102 134.973 47.8512H134.689C134.611 47.7644 134.524 47.6869 134.43 47.6203V47.5561ZM136.728 47.6587L136.975 47.2482C137.061 47.4016 137.116 47.572 137.135 47.7485H136.925C136.839 47.7119 136.747 47.6945 136.654 47.6972L136.728 47.6587ZM138.062 47.5048C138.062 47.6074 138.062 47.6972 138.062 47.7614H137.975V47.6331L138.062 47.5048ZM139.199 47.5048C139.143 47.5862 139.093 47.672 139.05 47.7614C139.08 47.6436 139.08 47.5199 139.05 47.4022L139.199 47.5048ZM140.286 47.3637L140.459 47.6203L140.261 47.7614H140.088C140.063 47.6716 140.137 47.5433 140.212 47.3893L140.286 47.3637ZM141.348 47.6203H141.509V47.6972H141.151L141.274 47.5689L141.348 47.6203ZM141.534 47.4535C141.534 47.4535 141.534 47.5433 141.534 47.5946H141.41L141.534 47.4535ZM142.3 46.8505C142.539 47.0115 142.766 47.1917 142.979 47.3893C142.858 47.4985 142.743 47.6141 142.633 47.7357H142.386C142.313 47.4613 142.182 47.2072 142.003 46.9917L142.3 46.8505ZM147.439 48.1976C147.436 48.2188 147.436 48.2404 147.439 48.2617L147.427 48.2232L147.439 48.1976ZM147.439 47.4535C147.458 47.6282 147.458 47.8047 147.439 47.9795L147.266 48.0436C147.17 47.9408 147.062 47.8504 146.945 47.7742C147.109 47.646 147.293 47.5463 147.488 47.4791L147.439 47.4535ZM149.292 47.5433C149.37 47.6591 149.425 47.79 149.453 47.9282L149.267 48.0051L149.07 47.864L149.292 47.5433ZM150.33 47.7357C150.33 47.8255 150.33 47.8897 150.33 47.9538H150.256L150.182 47.8512L150.33 47.7357ZM151.392 47.7357H151.306C151.317 47.6808 151.317 47.6239 151.306 47.5689L151.392 47.7357ZM152.406 47.6074V47.6716H152.307C152.312 47.692 152.324 47.7095 152.342 47.7204C152.359 47.7312 152.38 47.7344 152.399 47.7293C152.419 47.7242 152.436 47.7112 152.446 47.6932C152.457 47.6751 152.46 47.6535 152.455 47.6331L152.406 47.6074ZM124.41 48.2617C124.359 48.117 124.326 47.9661 124.311 47.8127C124.423 47.8684 124.53 47.9327 124.633 48.0051C124.547 48.0771 124.486 48.1762 124.46 48.2874L124.41 48.2617ZM112.785 48.1591V48.0821C112.774 48.0444 112.774 48.0043 112.785 47.9666H112.859C112.864 48.0403 112.856 48.1144 112.834 48.1847L112.785 48.1591ZM112.785 47.8897C112.785 47.8897 112.735 47.941 112.735 47.9153L112.785 47.8897ZM113.019 47.5689C113.183 47.4034 113.371 47.2649 113.575 47.1584C113.595 47.3803 113.595 47.6036 113.575 47.8255H113.378C113.278 47.7061 113.166 47.5985 113.044 47.5048L113.019 47.5689ZM116.454 47.6459L116.652 47.5176C116.661 47.65 116.661 47.783 116.652 47.9153C116.592 47.8251 116.521 47.7432 116.441 47.6716L116.454 47.6459ZM115.564 47.2611C115.642 47.4172 115.693 47.5867 115.713 47.7614L115.527 47.8512L115.317 47.6716C115.386 47.5373 115.465 47.4087 115.552 47.2867L115.564 47.2611ZM117.788 47.5048C117.717 47.5986 117.659 47.7022 117.615 47.8127C117.652 47.6785 117.652 47.5364 117.615 47.4022L117.788 47.5048ZM118.875 47.3637C118.938 47.4452 118.996 47.5309 119.048 47.6203L118.739 47.864H118.665C118.702 47.7229 118.777 47.5689 118.912 47.3893L118.875 47.3637ZM119.925 47.6203H120.098C120.078 47.7589 120.049 47.896 120.012 48.0308C119.97 47.8955 119.898 47.7724 119.802 47.6716C119.84 47.6672 119.877 47.6586 119.913 47.6459L119.925 47.6203ZM120.123 47.4535C120.129 47.5003 120.129 47.5478 120.123 47.5946H120L120.123 47.4535ZM120.889 46.8505C121.127 47.0147 121.354 47.1947 121.569 47.3893C121.416 47.5215 121.276 47.6675 121.149 47.8255H121.074C121.009 47.5264 120.873 47.2487 120.679 47.0173L120.889 46.8505ZM122.125 47.9538L121.989 48.0564C122.021 48.0242 122.059 47.9982 122.1 47.9795L122.125 47.9538ZM123.718 47.5818C123.496 47.7999 123.335 48.0051 123.409 48.1719C123.349 48.0927 123.273 48.0272 123.187 47.9795C123.323 47.8768 123.496 47.7357 123.694 47.6074L123.718 47.5818ZM111.809 48.1719C111.749 47.9892 111.712 47.7996 111.697 47.6074L112.043 47.864C111.92 47.9375 111.827 48.0565 111.784 48.1976L111.809 48.1719ZM154.185 47.3252C154.449 47.1592 154.731 47.0258 155.025 46.9275C154.951 46.9275 154.543 47.0558 154.061 47.2097C153.865 47.0138 153.659 46.8296 153.443 46.6581C153.579 46.8673 153.656 47.1116 153.666 47.3637L152.974 47.6459L152.591 47.4407C152.89 46.9195 153.242 46.4335 153.641 45.991C153.579 45.991 152.69 46.6196 152.023 47.1969L151.603 47.043L151.973 47.2354C151.798 47.3772 151.637 47.5362 151.491 47.7101H151.281C151.031 47.1427 150.669 46.6359 150.219 46.2219C150.421 46.6788 150.49 47.1873 150.416 47.6844L150.12 47.7742C149.954 47.6054 149.772 47.4549 149.576 47.3252C149.715 47.1618 149.864 47.0075 150.021 46.8634L149.428 47.2226C149.091 47.0209 148.74 46.8451 148.378 46.6966C148.693 46.8608 148.978 47.0824 149.218 47.3509C149.045 47.4663 148.872 47.5818 148.712 47.7101C148.39 47.5689 148.094 47.4791 148.044 47.4535C148.232 47.556 148.41 47.6762 148.576 47.8127C148.422 47.9295 148.288 48.0727 148.18 48.236C148.209 48.1313 148.209 48.0201 148.18 47.9153L148.39 47.8383H148.156C148.064 47.656 147.942 47.4912 147.797 47.3509L148.032 47.2611L147.785 47.3252C147.575 47.1071 147.377 46.9403 147.377 46.9275C147.463 47.0709 147.514 47.2338 147.526 47.4022L146.797 47.6459C146.389 47.4278 145.944 47.2611 145.919 47.2482C146.17 47.3592 146.397 47.5205 146.587 47.7229H145.734C145.726 47.5294 145.759 47.3364 145.833 47.1584C146.018 47.0663 146.208 46.9849 146.401 46.9147L145.882 47.0686C145.908 47.0165 145.941 46.9689 145.981 46.9275L145.672 47.1199C145.137 47.2726 144.612 47.4655 144.103 47.6972L143.757 47.5176C144.103 46.9586 144.518 46.4495 144.993 46.0038C144.375 46.3925 143.78 46.8209 143.214 47.2867C142.843 47.1199 142.497 46.966 142.337 46.9147C142.551 46.7646 142.784 46.6439 143.028 46.5555C143.028 46.5555 142.534 46.7094 142.003 46.9147C141.694 46.5426 141.361 46.2476 141.348 46.2219C141.491 46.4892 141.567 46.7889 141.571 47.0943C141.322 47.201 141.079 47.3209 140.842 47.4535L140.422 47.1841C140.729 46.5428 141.106 45.9402 141.546 45.3881C140.94 45.8509 140.358 46.3477 139.804 46.8762C139.661 46.8033 139.512 46.7432 139.359 46.6966C139.499 46.7654 139.635 46.8425 139.767 46.9275C139.577 47.1117 139.403 47.3135 139.248 47.5305L139.038 47.4663C138.781 46.7707 138.395 46.1342 137.901 45.5933C138.118 46.1771 138.186 46.8088 138.099 47.4278L137.778 47.5433C137.613 47.3342 137.422 47.1487 137.209 46.9917C137.347 46.7832 137.504 46.5897 137.679 46.4144C137.679 46.4144 137.382 46.6068 137.037 46.8634C136.681 46.6074 136.305 46.3842 135.912 46.1963C136.265 46.4067 136.572 46.6906 136.814 47.0301C136.633 47.1645 136.46 47.3102 136.295 47.4663C136.066 47.3413 135.826 47.2382 135.579 47.1584C135.786 47.2881 135.98 47.4384 136.159 47.6074C136.071 47.6821 135.989 47.7636 135.912 47.8512H135.727V47.7229H135.875H135.962H135.715L135.542 47.415C135.479 47.3073 135.409 47.2044 135.332 47.1071L135.579 47.0045L135.319 47.0815C135.184 46.9024 135.036 46.7351 134.874 46.5811C134.969 46.7687 135.028 46.9734 135.047 47.1841C134.782 47.2753 134.522 47.3824 134.269 47.5048L133.738 47.2097L133.417 47.043L133.651 46.9532L133.38 47.0301L133.194 46.9403L133.355 47.043L133.021 47.1456C133.044 46.9258 133.125 46.7168 133.256 46.5426C133.005 46.712 132.769 46.9052 132.552 47.1199C132.305 46.889 132.082 46.7094 132.07 46.6966C132.199 46.9037 132.271 47.143 132.28 47.3893C132.044 47.4744 131.813 47.5729 131.588 47.6844C131.488 47.6191 131.385 47.5592 131.279 47.5048H131.205C131.502 46.9862 131.854 46.5042 132.255 46.068C132.194 46.068 131.304 46.6966 130.637 47.2611L130.217 47.1071C130.344 47.1635 130.468 47.2277 130.587 47.2995C130.418 47.4483 130.258 47.6068 130.106 47.7742H129.908C129.733 47.2134 129.514 46.6685 129.253 46.145C129.5 46.5811 129.08 47.338 129.031 47.7485L128.734 47.8383C128.573 47.6674 128.391 47.5206 128.191 47.4022C128.326 47.2356 128.475 47.0811 128.635 46.9403C128.43 47.0457 128.232 47.1657 128.042 47.2995C127.703 47.0988 127.352 46.9189 126.992 46.7607C127.307 46.9321 127.591 47.1577 127.832 47.4278C127.661 47.5329 127.496 47.6485 127.338 47.7742C127.121 47.6787 126.898 47.5973 126.671 47.5305C126.86 47.631 127.038 47.7513 127.202 47.8897L127.091 47.9666H126.782H126.968H126.745C126.652 47.7851 126.531 47.6204 126.387 47.4791L126.622 47.4022L126.375 47.4663C126.241 47.3223 126.101 47.1852 125.954 47.0558C126.042 47.2038 126.097 47.3704 126.115 47.5433C125.868 47.6154 125.625 47.701 125.386 47.7999C125.105 47.6427 124.811 47.5097 124.509 47.4022C124.763 47.5063 124.991 47.6686 125.176 47.8768L124.756 48.0821L124.336 47.941C124.3 47.72 124.326 47.4931 124.41 47.2867C124.598 47.1944 124.792 47.1172 124.991 47.0558L124.46 47.1969C124.46 47.1969 124.46 47.0943 124.571 47.0558L124.274 47.2482C123.734 47.4053 123.206 47.6025 122.693 47.8383L122.335 47.6459C122.668 47.0959 123.062 46.588 123.508 46.1321C122.894 46.5212 122.304 46.9496 121.742 47.415L120.877 47.0301C121.09 46.8893 121.318 46.7732 121.556 46.6838C121.556 46.6838 121.05 46.8377 120.518 47.043C120.315 46.7936 120.096 46.5579 119.864 46.3374C120.009 46.6042 120.089 46.9035 120.098 47.2097L119.357 47.5818C119.229 47.4801 119.092 47.39 118.949 47.3124C119.26 46.6688 119.637 46.0623 120.074 45.5035C119.471 45.9697 118.893 46.4709 118.344 47.0045L117.899 46.812C118.048 46.9018 118.183 46.966 118.307 47.0558C118.117 47.2358 117.944 47.4333 117.788 47.6459H117.578C117.347 46.8649 116.96 46.1435 116.441 45.5292C116.658 46.1084 116.726 46.7361 116.639 47.3509L116.318 47.4791C116.147 47.2721 115.956 47.083 115.75 46.9147C115.893 46.7113 116.05 46.5184 116.219 46.3374L115.589 46.7992C115.234 46.5432 114.858 46.32 114.465 46.1321C114.818 46.3426 115.125 46.6265 115.367 46.966L114.848 47.4022C114.489 47.2226 114.156 47.1071 114.131 47.0943C114.334 47.2254 114.524 47.3757 114.7 47.5433C114.57 47.6619 114.454 47.7953 114.354 47.941C114.371 47.852 114.371 47.7605 114.354 47.6716L114.601 47.5689H114.341C114.239 47.3479 114.11 47.1411 113.958 46.9532L114.205 46.8505L113.946 46.9275L113.649 46.5811C113.604 46.5258 113.554 46.4743 113.501 46.4272C113.596 46.6102 113.654 46.8107 113.674 47.0173C113.439 47.1071 113.168 47.2097 112.896 47.338C112.601 47.1437 112.291 46.9763 111.969 46.8377C112.245 46.986 112.489 47.1912 112.686 47.4407C112.529 47.5141 112.38 47.6044 112.241 47.7101L111.771 47.5305V47.2995C111.759 46.9864 111.85 46.6782 112.031 46.4272C112.031 46.4272 110.573 47.4535 110.795 47.9923C110.533 47.6738 110.209 47.4159 109.844 47.2354V48.1847L110.548 48.5183C115.446 50.9549 120.063 53.9588 124.311 57.4727C125.077 56.9339 126.597 55.9333 128.747 54.7145C124.558 51.7255 116.676 49.7755 111.376 48.6209H115.293C120.321 49.9038 126.239 51.7255 129.5 54.2655C131.39 53.2392 133.343 52.2899 135.295 51.4561C131.754 50.05 128.062 49.098 124.299 48.6209H129.006C131.524 49.1647 133.979 49.9816 136.332 51.0584C138.6 50.1364 140.914 49.3399 143.263 48.6722H146.747C140.869 50.0091 135.192 52.1669 129.871 55.0866L129.525 55.279C127.486 56.3951 125.954 57.3829 124.954 58.05C126.399 59.2303 127.832 60.4875 129.228 61.7832C133.256 58.7428 142.596 52.1616 152.035 48.6979L153.468 48.1847H153.505L154.419 47.8897L154.889 47.7485H154.345C154.298 47.609 154.236 47.4755 154.16 47.3509L154.185 47.3252Z" fill="#121B3B"/>
<mask id="mask3_12_73" style="mask-type:luminance" maskUnits="userSpaceOnUse" x="85" y="-188" width="92" height="295">
<path d="M176.657 -187.556H85.7775V106.158H176.657V-187.556Z" fill="white"/>
</mask>
<g mask="url(#mask3_12_73)">
<path fill-rule="evenodd" clip-rule="evenodd" d="M133.602 66.1193C141.991 56.6004 148.81 51.5972 153.592 48.9929C143.93 52.2258 134.059 59.1276 129.846 62.2835C131.119 63.515 132.391 64.8108 133.602 66.1193Z" fill="#121B3B"/>
</g>
<mask id="mask4_12_73" style="mask-type:luminance" maskUnits="userSpaceOnUse" x="85" y="-188" width="92" height="295">
<path d="M176.657 -187.556H85.7775V106.158H176.657V-187.556Z" fill="white"/>
</mask>
<g mask="url(#mask4_12_73)">
<path fill-rule="evenodd" clip-rule="evenodd" d="M112.377 32.0334C110.561 31.5074 110.919 34.4067 109.436 34.7659V35.3175L110.758 35.6639C110.73 35.7463 110.718 35.834 110.723 35.9214C110.728 36.0089 110.75 36.0943 110.788 36.1724C110.827 36.2506 110.88 36.3198 110.945 36.3757C111.01 36.4317 111.085 36.4732 111.166 36.4978C111.334 36.5177 111.502 36.4722 111.639 36.3703C111.776 36.2683 111.872 36.1172 111.907 35.9461L113.242 36.2669L113.513 35.805C112.402 34.6376 113.896 32.5722 112.377 32.0334Z" fill="#121B3B"/>
</g>
<mask id="mask5_12_73" style="mask-type:luminance" maskUnits="userSpaceOnUse" x="85" y="-188" width="92" height="295">
<path d="M176.657 -187.556H85.7775V106.158H176.657V-187.556Z" fill="white"/>
</mask>
<g mask="url(#mask5_12_73)">
<path fill-rule="evenodd" clip-rule="evenodd" d="M140.928 0.320718C143.341 1.37647 145.653 2.66499 147.834 4.16934C149.07 5.13149 150.379 6.09365 151.615 7.09429C150.268 6.22194 149.008 5.28544 147.711 4.36177C145.501 2.89544 143.174 1.62928 140.755 0.577293C140.735 0.56675 140.716 0.551718 140.702 0.533218C140.687 0.514717 140.677 0.493179 140.671 0.470064C140.665 0.446948 140.664 0.422795 140.668 0.399242C140.672 0.375688 140.68 0.353284 140.693 0.333547C140.726 0.305603 140.767 0.289275 140.809 0.286966C140.851 0.284657 140.893 0.296487 140.928 0.320718Z" fill="#121B3B"/>
</g>
<mask id="mask6_12_73" style="mask-type:luminance" maskUnits="userSpaceOnUse" x="85" y="-188" width="92" height="295">
<path d="M176.657 -187.556H85.7775V106.158H176.657V-187.556Z" fill="white"/>
</mask>
<g mask="url(#mask6_12_73)">
<path fill-rule="evenodd" clip-rule="evenodd" d="M140.78 0.74409C143.566 2.23002 146.146 4.09839 148.452 6.29893C146.023 4.27257 143.403 2.50608 140.632 1.02632C140.591 1.00425 140.559 0.966999 140.543 0.921888C140.527 0.876777 140.528 0.827079 140.545 0.782576C140.572 0.746237 140.612 0.722002 140.655 0.714845C140.699 0.707688 140.743 0.718152 140.78 0.74409Z" fill="#121B3B"/>
</g>
<mask id="mask7_12_73" style="mask-type:luminance" maskUnits="userSpaceOnUse" x="85" y="-188" width="92" height="295">
<path d="M176.657 -187.556H85.7775V106.158H176.657V-187.556Z" fill="white"/>
</mask>
<g mask="url(#mask7_12_73)">
<path fill-rule="evenodd" clip-rule="evenodd" d="M141.941 0.0256351C144.154 1.75727 146.255 3.63863 148.23 5.65745C146.5 4.56701 143.671 1.80883 141.756 0.333525C141.74 0.316802 141.726 0.296842 141.718 0.274814C141.709 0.252786 141.704 0.229132 141.704 0.205237C141.704 0.181343 141.709 0.157689 141.718 0.135661C141.726 0.113632 141.74 0.0936725 141.756 0.07695C141.779 0.0503659 141.808 0.0313087 141.841 0.0221775C141.874 0.0130464 141.909 0.0142494 141.941 0.0256351Z" fill="#121B3B"/>
</g>
<mask id="mask8_12_73" style="mask-type:luminance" maskUnits="userSpaceOnUse" x="85" y="-188" width="92" height="295">
<path d="M176.657 -187.556H85.7775V106.158H176.657V-187.556Z" fill="white"/>
</mask>
<g mask="url(#mask8_12_73)">
<path fill-rule="evenodd" clip-rule="evenodd" d="M140.866 1.50093C143.77 2.4246 147.884 3.13018 150.219 5.08015C147.55 3.33544 143.807 2.77098 140.755 1.83448C140.735 1.82733 140.716 1.81592 140.699 1.80094C140.683 1.78597 140.67 1.76774 140.661 1.74736C140.652 1.72698 140.647 1.70487 140.646 1.68236C140.645 1.65985 140.649 1.63741 140.656 1.61639C140.66 1.59271 140.669 1.57022 140.682 1.5507C140.696 1.53119 140.713 1.51519 140.733 1.50397C140.754 1.49276 140.777 1.48665 140.8 1.48612C140.823 1.48559 140.846 1.49067 140.866 1.50093Z" fill="#121B3B"/>
</g>
<mask id="mask9_12_73" style="mask-type:luminance" maskUnits="userSpaceOnUse" x="85" y="-188" width="92" height="295">
<path d="M176.657 -187.556H85.7775V106.158H176.657V-187.556Z" fill="white"/>
</mask>
<g mask="url(#mask9_12_73)">
<path fill-rule="evenodd" clip-rule="evenodd" d="M141.41 2.30914C143.881 2.71966 145.87 3.51505 148.316 4.01537C149.555 4.18843 150.765 4.5381 151.911 5.05449C150.723 4.67979 149.509 4.40101 148.279 4.22063C145.808 3.81011 143.869 3.02755 141.398 2.66835C141.351 2.66509 141.307 2.64339 141.275 2.60765C141.242 2.5719 141.225 2.52481 141.225 2.47592C141.226 2.45231 141.232 2.42926 141.242 2.40808C141.253 2.38691 141.267 2.36803 141.284 2.35253C141.301 2.33704 141.321 2.32523 141.343 2.31778C141.364 2.31033 141.387 2.3074 141.41 2.30914Z" fill="#121B3B"/>
</g>
<mask id="mask10_12_73" style="mask-type:luminance" maskUnits="userSpaceOnUse" x="85" y="-188" width="92" height="295">
<path d="M176.657 -187.556H85.7775V106.158H176.657V-187.556Z" fill="white"/>
</mask>
<g mask="url(#mask10_12_73)">
<path fill-rule="evenodd" clip-rule="evenodd" d="M143.523 0.474625C145.919 2.92491 149.206 5.90118 151.318 8.41561C148.736 6.20907 145.734 3.16866 143.263 0.718371C143.234 0.685189 143.217 0.641673 143.217 0.596498C143.217 0.551323 143.234 0.507807 143.263 0.474625C143.279 0.455514 143.299 0.440208 143.322 0.429724C143.344 0.41924 143.368 0.413818 143.393 0.413818C143.417 0.413818 143.442 0.41924 143.464 0.429724C143.486 0.440208 143.506 0.455514 143.523 0.474625Z" fill="#121B3B"/>
</g>
</g>
<defs>
<clipPath id="clip0_12_73">
<rect width="155" height="80" fill="white"/>
</clipPath>
</defs>
</svg>
