<svg width="15" height="15" viewBox="0 0 15 15" fill="none" xmlns="http://www.w3.org/2000/svg">
<path d="M7.68718 7.59203C6.33093 7.59203 5.22748 6.46264 5.22748 5.07452C5.22748 3.68639 6.33093 2.55701 7.68718 2.55701C9.04344 2.55701 10.1469 3.68639 10.1469 5.07452C10.1469 6.46264 9.0436 7.59203 7.68718 7.59203ZM7.68718 3.13846C6.64426 3.13846 5.79561 4.00705 5.79561 5.07449C5.79561 6.14193 6.64426 7.01052 7.68718 7.01052C8.73011 7.01052 9.57876 6.14193 9.57876 5.07449C9.57876 4.00705 8.73028 3.13846 7.68718 3.13846Z" fill="black"/>
<path d="M11.5217 11.6065C11.3665 11.6065 11.2398 11.4788 11.2378 11.3194C11.2135 9.34064 9.62031 7.73082 7.68628 7.73082C6.33156 7.73082 5.11394 8.50214 4.50846 9.74377C4.26856 10.2355 4.14358 10.7657 4.13676 11.3196C4.13478 11.48 4.00594 11.6087 3.84914 11.6067C3.69234 11.6046 3.56665 11.4728 3.56863 11.3123C3.57657 10.6702 3.72174 10.0551 4.00011 9.48413C4.70247 8.0441 6.11498 7.14948 7.68628 7.14948C9.92968 7.14948 11.7778 9.01689 11.8059 11.3123C11.8079 11.4728 11.6823 11.6048 11.5254 11.6067C11.5241 11.6065 11.523 11.6065 11.5217 11.6065Z" fill="black"/>
<path d="M7.68712 13.2515C4.48159 13.2515 1.8736 10.5823 1.8736 7.30133C1.8736 4.02046 4.48159 1.35119 7.68712 1.35119C10.8928 1.35119 13.5006 4.02046 13.5006 7.30133C13.5006 10.5823 10.8928 13.2515 7.68712 13.2515ZM7.68712 1.93267C4.79477 1.93267 2.44173 4.34101 2.44173 7.30133C2.44173 10.2616 4.79477 12.67 7.68712 12.67C10.5795 12.67 12.9325 10.2616 12.9325 7.30133C12.9325 4.34101 10.5795 1.93267 7.68712 1.93267ZM2.7231 2.73411L1.14271 1.11657C1.03178 1.00303 1.03178 0.818992 1.14271 0.705454C1.2535 0.591916 1.43345 0.591916 1.54439 0.705454L3.12465 2.32299C3.23558 2.43653 3.23329 2.61823 3.12465 2.73411C3.02037 2.84531 2.82108 2.83819 2.7231 2.73411Z" fill="black"/>
<path d="M1.15286 2.79555C1.08079 2.79547 1.01144 2.76737 0.95886 2.71692C0.906276 2.66648 0.874387 2.59747 0.869651 2.52386L0.748792 0.642353C0.746145 0.60154 0.751951 0.560615 0.765831 0.522259C0.779712 0.483903 0.801353 0.448981 0.829337 0.41978C0.857181 0.390365 0.890853 0.367388 0.92809 0.352393C0.965328 0.337397 1.00527 0.33073 1.04523 0.332839L2.88099 0.418457C3.03765 0.425719 3.15895 0.561801 3.15185 0.722145C3.14476 0.882489 3.01323 1.00793 2.85514 0.999376L1.33653 0.928422L1.43665 2.48561C1.44702 2.64582 1.32842 2.78435 1.17189 2.79482C1.16556 2.79535 1.15921 2.7956 1.15286 2.79555ZM12.2499 2.73408C12.1328 2.62724 12.1389 2.4365 12.2499 2.32296L13.848 0.687273C13.9589 0.573735 14.1387 0.573735 14.2497 0.687273C14.3606 0.800811 14.3606 0.984853 14.2497 1.09839L12.6515 2.73408C12.5392 2.84528 12.3947 2.86636 12.2499 2.73408Z" fill="black"/>
<path d="M14.2218 2.79562C14.2155 2.79565 14.2092 2.79545 14.2029 2.79503C14.0462 2.78456 13.9276 2.64603 13.938 2.48583L14.0381 0.928634L12.5195 0.999419C12.368 1.00612 12.2301 0.8827 12.2228 0.722188C12.2157 0.561704 12.337 0.42579 12.4937 0.418501L14.3294 0.332883C14.4101 0.329111 14.4887 0.360803 14.5453 0.419823C14.602 0.478844 14.6311 0.559818 14.6259 0.642396L14.5049 2.52391C14.4949 2.67772 14.3702 2.79562 14.2218 2.79562ZM1.07003 13.9717C0.965782 13.8516 0.9591 13.6741 1.07003 13.5606L2.72314 11.8688C2.83393 11.7552 3.01402 11.7552 3.12481 11.8688C3.23574 11.9823 3.23574 12.1663 3.12481 12.2799L1.47171 13.9717C1.36647 14.081 1.16493 14.081 1.07003 13.9717Z" fill="black"/>
<path d="M1.03192 14.2702C0.994133 14.2702 0.95673 14.2625 0.921902 14.2475C0.887073 14.2325 0.855519 14.2105 0.829086 14.1829C0.801117 14.1537 0.779483 14.1188 0.765603 14.0805C0.751723 14.0421 0.745909 14.0012 0.748542 13.9605L0.869565 12.0789C0.879795 11.9186 1.01231 11.7965 1.17167 11.8078C1.32819 11.8184 1.4468 11.9568 1.43643 12.117L1.33631 13.6744L2.85491 13.6036C3.01014 13.5982 3.14451 13.7205 3.15163 13.8808C3.15872 14.0411 3.03742 14.1771 2.88076 14.1845L1.04484 14.27C1.04058 14.2701 1.03632 14.2702 1.03192 14.2702ZM13.8365 13.904L12.2496 12.2798C12.1387 12.1663 12.1387 11.9823 12.2496 11.8687C12.3606 11.7552 12.5404 11.7552 12.6513 11.8687L14.2382 13.4929C14.3492 13.6065 14.3472 13.7885 14.2382 13.904C14.1333 14.0153 13.9615 14.0153 13.8365 13.904Z" fill="black"/>
<path d="M14.3424 14.2702C14.3381 14.2702 14.3337 14.2701 14.3294 14.2699L12.4937 14.1843C12.3369 14.1769 12.2157 14.0411 12.2228 13.8806C12.2301 13.7202 12.3634 13.5996 12.5195 13.6034L14.038 13.6742L13.9379 12.1169C13.9277 11.9567 14.0463 11.8183 14.2028 11.8077C14.3575 11.7965 14.4945 11.9187 14.5049 12.0788L14.6259 13.9603C14.6285 14.0011 14.6227 14.042 14.6088 14.0803C14.5949 14.1186 14.5733 14.1535 14.5454 14.1827C14.5189 14.2104 14.4874 14.2324 14.4525 14.2474C14.4176 14.2625 14.3802 14.2702 14.3424 14.2702Z" fill="black"/>
</svg>
