<svg width="15" height="15" viewBox="0 0 15 15" fill="none" xmlns="http://www.w3.org/2000/svg">
<path d="M7.29261 0.199036C3.46629 0.199036 0.353363 3.38512 0.353363 7.30135C0.353363 11.2176 3.46629 14.4037 7.29261 14.4037C11.1189 14.4037 14.2319 11.2176 14.2319 7.30135C14.2319 3.38512 11.1189 0.199036 7.29261 0.199036ZM7.29261 13.7378C3.82502 13.7378 1.00392 10.8504 1.00392 7.30135C1.00392 3.75228 3.82502 0.864878 7.29261 0.864878C10.7602 0.864878 13.5813 3.75228 13.5813 7.30135C13.5813 10.8504 10.7602 13.7378 7.29261 13.7378ZM10.9218 8.59323C10.9217 8.59323 10.9217 8.59323 10.9218 8.59323L9.64699 7.83994C9.4518 7.72461 9.22402 7.69403 9.00568 7.75391C8.78734 7.81378 8.60499 7.95679 8.49231 8.1566C8.42693 8.27254 8.3124 8.41839 8.13819 8.45484C7.97929 8.48811 7.83902 8.45584 7.70934 8.35624C7.23026 7.98825 6.62156 7.36525 6.26197 6.87485C6.16465 6.74213 6.13313 6.59853 6.16563 6.43595C6.20125 6.25759 6.34375 6.1404 6.45702 6.07349C6.86067 5.83492 6.99945 5.30477 6.76642 4.89164L6.03042 3.58687C5.81962 3.21322 5.38179 3.0565 4.98948 3.21416L4.97422 3.2203C4.36503 3.46508 3.91957 3.65293 3.73535 3.84147C3.40072 4.18399 3.06178 4.82134 3.34751 5.91274C3.90246 8.03259 6.57816 10.7712 8.64934 11.3392C8.93057 11.4163 9.18092 11.449 9.4033 11.449C10.0241 11.449 10.4267 11.1944 10.6731 10.9422C10.8573 10.7537 11.0408 10.2979 11.2799 9.67453L11.286 9.65866C11.44 9.25707 11.2868 8.80899 10.9218 8.59323ZM10.6804 9.41529L10.6743 9.43119C10.5589 9.73193 10.3189 10.3577 10.213 10.4714C9.90249 10.7892 9.43304 10.8648 8.81764 10.696C6.96185 10.1871 4.47305 7.6398 3.97581 5.7404C3.81092 5.11059 3.88476 4.63008 4.19497 4.31261C4.3064 4.20391 4.91798 3.95819 5.21186 3.84011L5.22715 3.83395C5.25054 3.82444 5.27547 3.81953 5.30064 3.81947C5.36783 3.81947 5.43069 3.85559 5.46694 3.91982L6.20293 5.22456C6.2566 5.31975 6.22464 5.44188 6.13167 5.49681C5.80812 5.68799 5.59382 5.97414 5.5282 6.30253C5.45826 6.6526 5.53204 6.98869 5.74158 7.2745C6.13974 7.81752 6.78832 8.48134 7.31882 8.88878C7.59802 9.10323 7.92641 9.17875 8.26847 9.10717C8.58932 9.04001 8.8689 8.82064 9.05569 8.48949C9.06846 8.46684 9.0855 8.447 9.10581 8.43114C9.12613 8.41527 9.14932 8.40368 9.17404 8.39705C9.19869 8.39016 9.22443 8.38833 9.24978 8.39168C9.27513 8.39503 9.29958 8.40348 9.32171 8.41656L10.5965 9.16985C10.6819 9.22039 10.7164 9.32133 10.6804 9.41529Z" fill="#000"/>
</svg>
