<svg width="12" height="14" viewBox="0 0 12 14" fill="none" xmlns="http://www.w3.org/2000/svg">
<path d="M11.0171 9.51891L7.68414 5.38048V2.38949C8.66864 2.09116 8.47781 0.382751 7.46729 0.382751H4.21452C4.02086 0.384628 3.83331 0.462652 3.68175 0.604394C3.53018 0.746136 3.42331 0.943442 3.37816 1.16488C3.33301 1.38632 3.35218 1.61916 3.43262 1.8263C3.51306 2.03345 3.65014 2.20298 3.82201 2.3079C4.03887 2.69803 3.99766 1.49194 3.99766 5.38558L0.840307 9.53421C-0.326353 11.0692 0.54539 13.642 2.38863 13.642H9.51003C9.91567 13.6407 10.3121 13.4999 10.6506 13.237C10.989 12.9741 11.2547 12.6005 11.4149 12.1623C11.5751 11.7241 11.6228 11.2404 11.5521 10.7707C11.4814 10.301 11.2955 9.8659 11.0171 9.51891ZM9.51003 13.1321H2.38863C0.922711 13.1321 0.243966 11.0922 1.16342 9.87334C4.65906 5.27849 4.43137 5.62272 4.43137 5.48248V2.42264H6.59988C6.65739 2.42264 6.71255 2.39578 6.75322 2.34796C6.79389 2.30014 6.81673 2.23528 6.81673 2.16766C6.81673 2.10003 6.79389 2.03517 6.75322 1.98735C6.71255 1.93953 6.65739 1.91267 6.59988 1.91267H4.21452C4.09949 1.91267 3.98918 1.85894 3.90784 1.7633C3.82651 1.66766 3.78081 1.53795 3.78081 1.4027C3.78081 1.26744 3.82651 1.13773 3.90784 1.04209C3.98918 0.946453 4.09949 0.892724 4.21452 0.892724H7.46729C7.58231 0.892724 7.69263 0.946453 7.77396 1.04209C7.8553 1.13773 7.90099 1.26744 7.90099 1.4027C7.90099 1.53795 7.8553 1.66766 7.77396 1.7633C7.69263 1.85894 7.58231 1.91267 7.46729 1.91267C7.40977 1.91267 7.35462 1.93953 7.31395 1.98735C7.27328 2.03517 7.25043 2.10003 7.25043 2.16766V5.48248C7.25043 5.62782 7.00322 5.27594 10.7027 9.87079C10.9224 10.1455 11.0691 10.4897 11.1247 10.8611C11.1804 11.2324 11.1425 11.6149 11.0158 11.9613C10.8891 12.3077 10.6791 12.6031 10.4116 12.8111C10.1441 13.0191 9.83073 13.1306 9.51003 13.1321Z" fill="black"/>
<path d="M10.3883 10.2201C8.43663 7.80284 8.56023 7.92524 8.48 7.89974C5.95585 6.98434 5.82357 9.33531 3.23436 8.15472C3.19355 8.13619 3.14893 8.13261 3.10636 8.14444C3.06379 8.15627 3.02526 8.18297 2.99583 8.22102L1.48871 10.2023C1.32958 10.4091 1.22463 10.6656 1.18648 10.9409C1.14832 11.2162 1.17859 11.4986 1.27363 11.7541C1.36867 12.0097 1.52445 12.2276 1.72225 12.3815C1.92005 12.5355 2.15144 12.619 2.38864 12.6221H9.51004C9.74623 12.621 9.97701 12.5388 10.174 12.3856C10.371 12.2324 10.5257 12.0149 10.619 11.7597C10.7123 11.5046 10.7401 11.2229 10.6991 10.9494C10.6582 10.6759 10.5501 10.4224 10.3883 10.2201ZM9.52088 12.1121H2.38864C2.18292 12.1114 1.98579 12.015 1.84033 11.844C1.69486 11.673 1.61289 11.4412 1.61231 11.1993C1.61231 10.6638 1.72508 10.6663 3.21918 8.70295C5.8214 9.79174 6.11632 7.6116 8.30001 8.36891L10.0695 10.5822C10.1707 10.7118 10.2378 10.8731 10.2629 11.0466C10.2879 11.22 10.2698 11.3983 10.2107 11.56C10.1516 11.7216 10.054 11.8597 9.9297 11.9577C9.8054 12.0556 9.65966 12.1093 9.51004 12.1121H9.52088ZM5.19036 7.64985C5.31903 7.64985 5.44481 7.60499 5.55179 7.52093C5.65877 7.43688 5.74216 7.31741 5.79139 7.17763C5.84063 7.03785 5.85352 6.88404 5.82842 6.73566C5.80331 6.58727 5.74135 6.45097 5.65037 6.34399C5.55939 6.237 5.44347 6.16415 5.31728 6.13463C5.19108 6.10512 5.06028 6.12027 4.9414 6.17816C4.82253 6.23606 4.72093 6.33411 4.64945 6.45991C4.57796 6.5857 4.53981 6.7336 4.53981 6.88489C4.53981 7.08777 4.60835 7.28234 4.73035 7.4258C4.85235 7.56926 5.01782 7.64985 5.19036 7.64985ZM5.19036 6.62991C5.24787 6.62991 5.30303 6.65677 5.3437 6.70459C5.38437 6.75241 5.40721 6.81727 5.40721 6.88489C5.40721 6.95252 5.38437 7.01738 5.3437 7.0652C5.30303 7.11301 5.24787 7.13988 5.19036 7.13988C5.13285 7.13988 5.07769 7.11301 5.03702 7.0652C4.99636 7.01738 4.97351 6.95252 4.97351 6.88489C4.97351 6.81727 4.99636 6.75241 5.03702 6.70459C5.07769 6.65677 5.13285 6.62991 5.19036 6.62991Z" fill="black"/>
<path d="M7.68417 9.56226C7.51261 9.56226 7.3449 9.62207 7.20226 9.73415C7.05962 9.84622 6.94844 10.0055 6.88279 10.1919C6.81714 10.3783 6.79996 10.5833 6.83343 10.7812C6.8669 10.979 6.94951 11.1608 7.07082 11.3034C7.19213 11.4461 7.34668 11.5432 7.51494 11.5825C7.6832 11.6219 7.85761 11.6017 8.01611 11.5245C8.17461 11.4473 8.31008 11.3166 8.40539 11.1489C8.5007 10.9811 8.55157 10.7839 8.55157 10.5822C8.55157 10.3117 8.46018 10.0523 8.29751 9.86099C8.13484 9.66971 7.91422 9.56226 7.68417 9.56226ZM7.68417 11.0922C7.59839 11.0922 7.51454 11.0623 7.44321 11.0062C7.37189 10.9502 7.3163 10.8705 7.28348 10.7774C7.25065 10.6842 7.24206 10.5816 7.2588 10.4827C7.27553 10.3838 7.31684 10.2929 7.37749 10.2216C7.43815 10.1503 7.51542 10.1017 7.59955 10.082C7.68368 10.0623 7.77089 10.0724 7.85014 10.111C7.92939 10.1496 7.99712 10.215 8.04478 10.2989C8.09243 10.3827 8.11787 10.4813 8.11787 10.5822C8.11787 10.7175 8.07218 10.8472 7.99084 10.9428C7.90951 11.0384 7.79919 11.0922 7.68417 11.0922ZM3.88927 10.0722C3.78204 10.0722 3.67723 10.1096 3.58808 10.1797C3.49892 10.2497 3.42944 10.3493 3.3884 10.4657C3.34737 10.5822 3.33664 10.7104 3.35755 10.8341C3.37847 10.9577 3.43011 11.0713 3.50592 11.1605C3.58174 11.2496 3.67834 11.3103 3.7835 11.3349C3.88866 11.3595 3.99767 11.3469 4.09673 11.2986C4.19579 11.2504 4.28046 11.1687 4.34003 11.0639C4.3996 10.959 4.43139 10.8358 4.43139 10.7097C4.43139 10.5406 4.37428 10.3785 4.27261 10.2589C4.17094 10.1394 4.03305 10.0722 3.88927 10.0722ZM3.88927 10.8372C3.86051 10.8372 3.83293 10.8238 3.8126 10.7998C3.79226 10.7759 3.78084 10.7435 3.78084 10.7097C3.78084 10.6759 3.79226 10.6435 3.8126 10.6195C3.83293 10.5956 3.86051 10.5822 3.88927 10.5822C3.91802 10.5822 3.9456 10.5956 3.96593 10.6195C3.98627 10.6435 3.99769 10.6759 3.99769 10.7097C3.99769 10.7435 3.98627 10.7759 3.96593 10.7998C3.9456 10.8238 3.91802 10.8372 3.88927 10.8372Z" fill="black"/>
</svg>
