<svg width="9" height="15" viewBox="0 0 9 15" fill="none" xmlns="http://www.w3.org/2000/svg">
<path d="M8.15918 6.87935C8.15889 5.90682 7.98227 4.94639 7.64197 4.06683L6.97721 2.34547C7.09451 2.30006 7.19697 2.21042 7.26982 2.08946C7.34267 1.96851 7.38216 1.82248 7.38259 1.67241V0.72543C7.38259 0.537064 7.32123 0.356414 7.212 0.22322C7.10277 0.0900255 6.95463 0.0151978 6.80015 0.0151978L1.75234 0.0151978C1.59786 0.0151978 1.44972 0.0900255 1.34049 0.22322C1.23126 0.356414 1.1699 0.537064 1.1699 0.72543V1.67241C1.17087 1.98017 1.33453 2.25243 1.57528 2.34547L0.910712 4.06707C0.570328 4.94652 0.393643 5.90687 0.393311 6.87935L0.393311 12.7994C0.393619 13.176 0.516446 13.5371 0.734837 13.8034C0.953227 14.0697 1.24934 14.2195 1.55819 14.2198H6.9943C7.30315 14.2195 7.59926 14.0697 7.81765 13.8034C8.03604 13.5371 8.15887 13.176 8.15918 12.7994V6.87935ZM0.781604 7.11752H7.77089V10.9054H0.781604V7.11752ZM6.9943 0.72543V1.67241C6.9943 1.73519 6.97385 1.79541 6.93744 1.83981C6.90103 1.88421 6.85164 1.90915 6.80015 1.90915H6.41186V0.488686H6.80015C6.85164 0.488686 6.90103 0.513628 6.93744 0.558026C6.97385 0.602424 6.9943 0.662641 6.9943 0.72543ZM6.02357 1.90915H5.44113V0.488686H6.02357V1.90915ZM5.05283 1.90915H4.47039V0.488686H5.05283V1.90915ZM4.0821 0.488686V1.90915H3.49966V0.488686H4.0821ZM3.11136 0.488686V1.90915H2.52892V0.488686H3.11136ZM1.55819 0.72543C1.55819 0.662641 1.57865 0.602424 1.61506 0.558026C1.65146 0.513628 1.70085 0.488686 1.75234 0.488686H2.14063V1.90915H1.75234C1.70085 1.90915 1.65146 1.88421 1.61506 1.83981C1.57865 1.79541 1.55819 1.73519 1.55819 1.67241V0.72543ZM1.26212 4.26854L1.98997 2.38264H6.56252L7.29037 4.2683C7.57814 5.0132 7.73972 5.82122 7.76545 6.64403H0.78704C0.81275 5.82129 0.974333 5.01334 1.26212 4.26854ZM6.9943 13.7463H1.55819C1.35223 13.7463 1.1547 13.6466 1.00906 13.469C0.863423 13.2914 0.781604 13.0505 0.781604 12.7994V11.3789H7.77089V12.7994C7.77089 13.0505 7.68907 13.2914 7.54343 13.469C7.39779 13.6466 7.20026 13.7463 6.9943 13.7463Z" fill="black"/>
</svg>
